<svg width="30" height="30" viewBox="0 0 30 30" fill="none" xmlns="http://www.w3.org/2000/svg">
    <path fill-rule="evenodd" clip-rule="evenodd" d="M10.7692 11.4824H18.4615C19.3112 11.4824 20 12.1712 20 13.0209V21.4824C20 21.9073 19.6556 22.2517 19.2308 22.2517H10C9.57517 22.2517 9.23077 21.9073 9.23077 21.4824V13.0209C9.23077 12.1712 9.91957 11.4824 10.7692 11.4824Z" stroke="white" stroke-linejoin="round"/>
    <path d="M20.0538 19.0756C21.1613 19.4259 22.3683 19.022 23.0419 18.0758C23.7155 17.1295 23.7021 15.8568 23.0086 14.925C22.3151 13.9932 21.0998 13.615 20 13.9887" stroke="white"/>
    <path d="M6.9231 22.2508H22.3077" stroke="white" stroke-linecap="round"/>
    <path d="M14.6992 8.74377V7.88454C14.7462 7.50469 15.0876 7.23162 15.4685 7.26916H18.6223C19.0032 7.30669 19.3446 7.03362 19.3915 6.65377V5.94608C19.3446 5.56623 19.0032 5.29316 18.6223 5.33069H12.1454C11.7645 5.36823 11.4231 5.09516 11.3762 4.71531V4.07685C11.4231 3.697 11.7645 3.42392 12.1454 3.46146H14.0792C14.4601 3.499 14.8015 3.22593 14.8485 2.84608V2.30762" stroke="white" stroke-linecap="round" stroke-linejoin="round"/>
</svg>
