<?xml version="1.0" encoding="utf-8"?>
<svg xmlns="http://www.w3.org/2000/svg" viewBox="0 0 16 16" width="19" height="19">
  <path d="M2.5 2C1.6774686 2 1 2.6774686 1 3.5L1 9L2 9L2 5L14 5L14 12.5C14 12.781469 13.781469 13 13.5 13L12 13L12 14L13.5 14C14.322531 14 15 13.322531 15 12.5L15 3.5C15 2.6774686 14.322531 2 13.5 2L2.5 2 z M 2.5 3L13.5 3C13.781469 3 14 3.2185314 14 3.5L14 4L2 4L2 3.5C2 3.2185314 2.2185314 3 2.5 3 z M 5.9765625 9L4.890625 14L5.9140625 14L7 9L5.9765625 9 z M 3.5214844 9.0449219L1.0664062 11.5L3.5214844 13.955078L4.2285156 13.248047L2.4804688 11.5L4.2285156 9.7519531L3.5214844 9.0449219 z M 8.5019531 9.0449219L7.7949219 9.7519531L9.5429688 11.5L7.7949219 13.248047L8.5019531 13.955078L10.957031 11.5L8.5019531 9.0449219 z" fill="#FFFFFF" />
</svg>