<svg width="1238" height="225" viewBox="0 0 1238 225" fill="none" xmlns="http://www.w3.org/2000/svg">
    <path opacity="0.201" d="M1339 -42H1136C1133.24 -42 1131 -39.7614 1131 -37V24C1131 26.7614 1133.24 29 1136 29H1339C1341.76 29 1344 26.7614 1344 24V-37C1344 -39.7614 1341.76 -42 1339 -42Z" fill="white"/>
    <path opacity="0.096" d="M565 155H525C522.239 155 520 157.239 520 160V200C520 202.761 522.239 205 525 205H565C567.761 205 570 202.761 570 200V160C570 157.239 567.761 155 565 155Z" fill="white"/>
    <path opacity="0.146" d="M112 -32H-6C-8.76142 -32 -11 -29.7614 -11 -27V27C-11 29.7614 -8.76142 32 -6 32H112C114.761 32 117 29.7614 117 27V-27C117 -29.7614 114.761 -32 112 -32Z" fill="white"/>
    <path opacity="0.098" d="M1184 -9H1044C1041.24 -9 1039 -6.76142 1039 -4V57C1039 59.7614 1041.24 62 1044 62H1184C1186.76 62 1189 59.7614 1189 57V-4C1189 -6.76142 1186.76 -9 1184 -9Z" fill="white"/>
    <path opacity="0.197" d="M540 110H480C477.239 110 475 112.239 475 115V175C475 177.761 477.239 180 480 180H540C542.761 180 545 177.761 545 175V115C545 112.239 542.761 110 540 110Z" fill="white"/>
    <path opacity="0.098" d="M19 205H-86C-87.1046 205 -88 205.895 -88 207V223C-88 224.105 -87.1046 225 -86 225H19C20.1046 225 21 224.105 21 223V207C21 205.895 20.1046 205 19 205Z" fill="white"/>
    <path opacity="0.118" d="M841 177H830C828.895 177 828 177.895 828 179V190C828 191.105 828.895 192 830 192H841C842.105 192 843 191.105 843 190V179C843 177.895 842.105 177 841 177Z" fill="white"/>
</svg>
