<svg width="45" height="45" viewBox="0 0 45 45" fill="none" xmlns="http://www.w3.org/2000/svg">
    <path opacity="0.096" d="M42.6316 21.3159H23.6842C22.3762 21.3159 21.3158 22.3763 21.3158 23.6843V42.6317C21.3158 43.9398 22.3762 45.0001 23.6842 45.0001H42.6316C43.9396 45.0001 45 43.9398 45 42.6317V23.6843C45 22.3763 43.9396 21.3159 42.6316 21.3159Z" fill="white"/>
    <path opacity="0.197" d="M30.7895 0H2.36842C1.06038 0 0 1.06038 0 2.36842V30.7895C0 32.0975 1.06038 33.1579 2.36842 33.1579H30.7895C32.0975 33.1579 33.1579 32.0975 33.1579 30.7895V2.36842C33.1579 1.06038 32.0975 0 30.7895 0Z" fill="white"/>
</svg>
