<svg width="78" height="61" viewBox="0 0 78 61" fill="none" xmlns="http://www.w3.org/2000/svg">
    <path opacity="0.1" d="M-53.6812 27.4927H40.4632C41.7439 27.4927 42.782 28.5218 42.782 29.7913V57.835C42.782 59.1046 41.7439 60.1337 40.4632 60.1337H-53.6812C-54.9618 60.1337 -56 59.1046 -56 57.835V29.7913C-56 28.5218 -54.9618 27.4927 -53.6812 27.4927Z" fill="white"/>
    <path opacity="0.098" d="M-16.3323 0H74.7472C76.5437 0 78 1.45634 78 3.25284V42.9375C78 44.7339 76.5437 46.1903 74.7472 46.1903H-16.3323C-18.1288 46.1903 -19.5851 44.7339 -19.5851 42.9375V3.25284C-19.5851 1.45634 -18.1288 0 -16.3323 0Z" fill="white"/>
</svg>
