<svg width="59" height="20" viewBox="0 0 59 20" fill="none" xmlns="http://www.w3.org/2000/svg">
<path d="M44.5547 20C43.7254 19.9947 42.8992 19.8997 42.0904 19.7167L41.0775 19.4876L41.5334 17.4627L42.5463 17.6918C43.9978 18.0194 45.9347 18.0859 47.0215 17.2878C47.5759 16.8814 47.879 16.2655 47.9505 15.4009C46.8714 15.7541 45.7388 15.9159 44.604 15.8788C43.1057 15.8098 42.2629 15.2728 41.8932 14.9575C41.0554 14.2406 40.5921 12.9868 40.6241 11.4817C40.735 6.3653 44.0742 6.3653 45.1535 6.3653C48.054 6.3653 49.6534 7.84331 49.9096 10.7304C50.0846 12.7454 50.1216 14.5141 50.0082 15.5807C49.848 17.1006 49.2689 18.2067 48.2388 18.9604C47.3147 19.6502 46.0678 20 44.5547 20ZM45.1634 8.43944C43.1624 8.43944 42.7927 9.42479 42.6843 11.7453C42.6522 12.4104 42.7976 12.9154 43.1155 13.2504C43.5911 13.7431 44.3847 13.817 45.0204 13.8194C46.0442 13.8132 47.054 13.5811 47.9776 13.1395C47.9776 12.568 47.9308 11.4349 47.8519 10.9003C47.608 9.26959 47.125 8.43944 45.1634 8.43944Z" fill="white"/>
<path d="M6.95665 19.8866C4.66238 19.8866 2.80429 19.1624 1.58692 17.7928C0.33012 16.3739 -0.2071 14.2997 0.0738316 11.9522C0.224154 10.6959 0.389263 9.47649 0.492764 8.6759L0.544515 8.37537L2.59482 8.68329L2.55293 8.98628C2.44203 9.77702 2.27939 10.9767 2.13399 12.2059C1.92453 13.9573 2.28185 15.4551 3.13943 16.4207C3.99701 17.3863 5.24642 17.8199 6.95665 17.8199C10.4436 17.8199 12.4447 16.0684 12.4447 13.0139C12.4447 11.93 12.4447 10.8116 12.1514 6.95648L12.1292 6.65102L14.2042 6.46381L14.2214 6.78404C14.2707 7.72751 14.4555 10.1293 14.5369 10.8116C14.7513 12.5877 15.0938 13.0705 17.2747 13.3267C19.8573 13.6297 31.9669 13.6174 38.5171 13.307L38.8251 13.2898L38.9187 15.3639H38.6107C32.0556 15.6521 21.607 15.7334 17.1047 15.391C15.9317 15.3023 15.047 15.0708 14.352 14.6693C13.6694 17.9455 10.9242 19.8866 6.95665 19.8866Z" fill="white"/>
<path d="M52.6893 19.9014C52.2825 19.9013 51.8764 19.87 51.4744 19.8078L50.4468 19.6551L50.7647 17.6031L51.7898 17.7559C52.5291 17.8692 53.919 17.9431 54.8431 17.1991C55.4395 16.7188 55.7795 15.9256 55.8485 14.8417C55.9732 13.0515 55.9575 11.2544 55.8017 9.46666L55.7179 8.23498L57.7879 8.0921L57.8717 9.32378C58.0317 11.2044 58.0449 13.0946 57.9112 14.9772C57.8003 16.6621 57.2039 17.9554 56.1344 18.8151C55.2522 19.527 54.0619 19.9014 52.6893 19.9014Z" fill="white"/>
<path d="M7.42239 12.2133C7.19369 12.2138 6.97 12.1464 6.77961 12.0198C6.58922 11.8931 6.4407 11.7129 6.35285 11.5018C6.26499 11.2907 6.24175 11.0584 6.28607 10.8341C6.33039 10.6098 6.44027 10.4037 6.6018 10.2419C6.76334 10.0801 6.96927 9.96981 7.19354 9.92503C7.4178 9.88025 7.65031 9.90299 7.86164 9.99036C8.07297 10.0777 8.25362 10.2258 8.38073 10.4158C8.50783 10.6059 8.57568 10.8294 8.57568 11.058C8.57568 11.3639 8.45425 11.6574 8.23804 11.874C8.02182 12.0906 7.72849 12.2126 7.42239 12.2133Z" fill="white"/>
<path d="M26.8264 3.51272C26.3606 3.51207 25.9141 3.32682 25.5847 2.99757C25.2553 2.66833 25.07 2.22197 25.0693 1.75635C25.069 1.52714 25.1143 1.30015 25.2028 1.08867C25.2912 0.877185 25.4209 0.685449 25.5844 0.524672V0.524672C25.8295 0.279786 26.1416 0.112832 26.4814 0.0448112C26.8212 -0.02321 27.1736 0.0107396 27.4941 0.14239C27.8147 0.274039 28.0892 0.49751 28.283 0.784689C28.4768 1.07187 28.5813 1.40993 28.5834 1.75635C28.5828 2.22197 28.3975 2.66833 28.0681 2.99757C27.7387 3.32682 27.2922 3.51207 26.8264 3.51272V3.51272Z" fill="#F8BC45"/>
<path d="M21.883 5.32574C21.5355 5.32574 21.1958 5.22273 20.9069 5.02973C20.6179 4.83674 20.3927 4.56243 20.2597 4.2415C20.1267 3.92056 20.0919 3.56741 20.1597 3.22671C20.2275 2.88601 20.3949 2.57305 20.6406 2.32742C20.8863 2.08179 21.1994 1.91451 21.5402 1.84674C21.8811 1.77897 22.2344 1.81375 22.5554 1.94668C22.8765 2.07962 23.1509 2.30474 23.344 2.59357C23.537 2.88241 23.6401 3.22198 23.6401 3.56936C23.6394 4.03498 23.4541 4.48134 23.1247 4.81059C22.7954 5.13983 22.3488 5.32508 21.883 5.32574Z" fill="#F8BC45"/>
<path d="M19.468 9.70562C19.0605 9.70834 18.6646 9.56953 18.348 9.31289C18.0314 9.05625 17.8138 8.6977 17.7323 8.29849C17.6508 7.89928 17.7105 7.48417 17.9012 7.12407C18.0918 6.76396 18.4017 6.48119 18.7777 6.32405C19.1538 6.16692 19.5728 6.14517 19.9631 6.26252C20.3534 6.37987 20.6909 6.62904 20.9178 6.96747C21.1448 7.3059 21.2471 7.7126 21.2075 8.1181C21.1678 8.5236 20.9885 8.90274 20.7002 9.19078C20.5387 9.35327 20.3468 9.48238 20.1353 9.57071C19.9239 9.65905 19.6972 9.70489 19.468 9.70562V9.70562Z" fill="#F8BC45"/>
<path d="M34.1847 9.70559C33.8953 9.70734 33.6099 9.6376 33.3539 9.50257C33.098 9.36753 32.8794 9.17138 32.7175 8.93155C32.5556 8.69172 32.4555 8.41563 32.4261 8.12782C32.3967 7.84001 32.4388 7.54939 32.5488 7.28178C32.6588 7.01418 32.8332 6.77787 33.0566 6.59387C33.2799 6.40987 33.5453 6.28387 33.829 6.22706C34.1128 6.17025 34.4063 6.1844 34.6833 6.26825C34.9603 6.3521 35.2123 6.50304 35.4168 6.70768V6.70768C35.6618 6.95272 35.8288 7.2647 35.8969 7.60438C35.9649 7.94406 35.931 8.29627 35.7993 8.61671C35.6676 8.93715 35.444 9.21149 35.1567 9.40524C34.8694 9.59899 34.5312 9.70349 34.1847 9.70559V9.70559Z" fill="#F8BC45"/>
<path d="M31.7698 5.32574C31.4222 5.32574 31.0825 5.22273 30.7936 5.02973C30.5046 4.83674 30.2794 4.56243 30.1464 4.2415C30.0135 3.92056 29.9787 3.56741 30.0465 3.22671C30.1143 2.88601 30.2816 2.57305 30.5273 2.32742C30.7731 2.08179 31.0861 1.91451 31.427 1.84674C31.7678 1.77897 32.1211 1.81375 32.4421 1.94668C32.7632 2.07962 33.0376 2.30474 33.2307 2.59357C33.4238 2.88241 33.5268 3.22198 33.5268 3.56936C33.5262 4.03498 33.3408 4.48134 33.0115 4.81059C32.6821 5.13983 32.2356 5.32508 31.7698 5.32574Z" fill="#F8BC45"/>
</svg>
