<svg width="274" height="260" viewBox="0 0 274 260" fill="none" xmlns="http://www.w3.org/2000/svg">
    <g clip-path="url(#clip0)">
        <rect width="274" height="260" rx="10" fill="#418FE7"/>
        <rect opacity="0.2" x="25" y="189" width="224" height="46" rx="10" fill="white"/>
        <path d="M103.469 216.078C103.469 216.042 103.469 216.018 103.469 216.008C103.458 215.966 103.357 215.945 103.164 215.945L102.281 215.938C102.214 215.938 102.148 215.938 102.086 215.938C101.534 215.906 101.107 215.742 100.805 215.445C100.508 215.143 100.372 214.732 100.398 214.211C100.466 213.154 100.805 212.211 101.414 211.383C102.206 210.299 103.346 209.74 104.836 209.703L105.156 209.695V210.023V211.523V211.805L104.883 211.836C104.596 211.867 104.336 211.919 104.102 211.992C103.872 212.065 103.667 212.159 103.484 212.273C103.302 212.388 103.143 212.523 103.008 212.68C102.872 212.831 102.758 213.005 102.664 213.203C102.576 213.396 102.505 213.615 102.453 213.859H103.227C103.93 213.854 104.474 214.036 104.859 214.406C105.245 214.771 105.435 215.294 105.43 215.977C105.43 216.69 105.227 217.328 104.82 217.891C104.07 218.953 102.911 219.62 101.344 219.891C100.792 219.99 100.188 220.039 99.5312 220.039C97.8906 220.039 96.6406 219.659 95.7812 218.898C94.9219 218.138 94.4922 217.021 94.4922 215.547C94.4922 214.333 94.8646 212.885 95.6094 211.203L95.7344 210.93L96.0078 211.047L97.2812 211.555L97.5781 211.672L97.4531 211.969C97.1406 212.677 96.9062 213.328 96.75 213.922C96.5938 214.516 96.5156 215.049 96.5156 215.523C96.5156 216.357 96.7526 216.974 97.2266 217.375C97.7057 217.776 98.4635 217.979 99.5 217.984C99.7031 217.984 99.8984 217.979 100.086 217.969C100.279 217.958 100.461 217.943 100.633 217.922C100.81 217.901 100.977 217.875 101.133 217.844C101.987 217.677 102.641 217.362 103.094 216.898C103.339 216.648 103.464 216.375 103.469 216.078ZM111.195 211.406C111.701 212.562 111.953 213.641 111.953 214.641C111.953 215.703 111.732 216.62 111.289 217.391C110.852 218.167 110.206 218.789 109.352 219.258C108.497 219.732 107.443 220.052 106.188 220.219L105.906 220.258L105.844 219.984L105.508 218.656L105.422 218.312L105.766 218.266C107.99 217.964 109.32 217.161 109.758 215.859C109.867 215.516 109.922 215.141 109.922 214.734C109.922 213.938 109.703 213.07 109.266 212.133L109.117 211.82L109.445 211.703L110.805 211.242L111.078 211.148L111.195 211.406ZM117.383 214.992C117.383 215.664 117.227 216 116.914 216H116.75C114.49 216 113.359 214.755 113.359 212.266V204.531H115.391V212.25C115.391 212.839 115.495 213.26 115.703 213.516C115.911 213.771 116.268 213.898 116.773 213.898H116.914C117.227 213.898 117.383 214.216 117.383 214.852V214.992ZM123.102 212.188C123.315 212.781 123.581 213.216 123.898 213.492C124.221 213.763 124.607 213.898 125.055 213.898H125.18C125.253 213.898 125.318 213.911 125.375 213.938C125.432 213.958 125.477 213.995 125.508 214.047C125.544 214.099 125.573 214.146 125.594 214.188C125.615 214.224 125.628 214.284 125.633 214.367C125.643 214.451 125.648 214.508 125.648 214.539C125.654 214.565 125.654 214.625 125.648 214.719C125.648 214.807 125.648 214.852 125.648 214.852V215C125.648 215.016 125.648 215.065 125.648 215.148C125.654 215.227 125.654 215.286 125.648 215.328C125.648 215.37 125.643 215.432 125.633 215.516C125.628 215.594 125.615 215.656 125.594 215.703C125.573 215.75 125.547 215.799 125.516 215.852C125.484 215.904 125.44 215.943 125.383 215.969C125.326 215.99 125.258 216 125.18 216H125.055C124.003 216 123.12 215.602 122.406 214.805C121.646 215.602 120.18 216 118.008 216H116.812C116.526 216 116.302 215.906 116.141 215.719C115.974 215.531 115.891 215.292 115.891 215V214.852C115.891 214.565 115.974 214.336 116.141 214.164C116.307 213.987 116.531 213.898 116.812 213.898H118C118.557 213.898 119.039 213.87 119.445 213.812C119.852 213.75 120.169 213.667 120.398 213.562C120.633 213.453 120.805 213.333 120.914 213.203C121.023 213.068 121.078 212.919 121.078 212.758C121.078 212.336 120.841 211.904 120.367 211.461C120.091 211.206 119.828 210.969 119.578 210.75C119.333 210.526 119.099 210.323 118.875 210.141C118.656 209.953 118.448 209.784 118.25 209.633C117.927 209.378 117.677 209.099 117.5 208.797C117.328 208.495 117.242 208.177 117.242 207.844C117.242 207.448 117.359 207.094 117.594 206.781C117.714 206.63 117.852 206.497 118.008 206.383C118.164 206.268 118.339 206.172 118.531 206.094L124.109 203.883L124.531 203.711V204.172V205.695V205.906L124.336 205.984L119.414 207.906C120.581 208.896 121.451 209.701 122.023 210.32C122.471 210.805 122.831 211.427 123.102 212.188ZM130.07 214.117C130.378 214.122 130.589 214.068 130.703 213.953C130.818 213.839 130.872 213.638 130.867 213.352C130.867 213.221 130.852 213.094 130.82 212.969C130.794 212.844 130.758 212.724 130.711 212.609C130.643 212.453 130.562 212.328 130.469 212.234C130.38 212.135 130.273 212.062 130.148 212.016C130.029 211.969 129.888 211.945 129.727 211.945C129.211 211.935 128.786 212.346 128.453 213.18C128.75 213.503 129.031 213.74 129.297 213.891C129.568 214.042 129.826 214.117 130.07 214.117ZM130.156 216.172C129.203 216.172 128.297 215.786 127.438 215.016C127.115 215.344 126.768 215.591 126.398 215.758C126.029 215.919 125.641 216 125.234 216H125.07C124.784 216 124.56 215.906 124.398 215.719C124.237 215.531 124.156 215.292 124.156 215V214.852C124.156 214.57 124.24 214.341 124.406 214.164C124.568 213.987 124.789 213.898 125.07 213.898H125.195C125.576 213.898 125.909 213.698 126.195 213.297C126.372 213.057 126.557 212.721 126.75 212.289C127.484 210.659 128.474 209.841 129.719 209.836C130.661 209.836 131.409 210.185 131.961 210.883C132.341 211.372 132.609 211.974 132.766 212.688C132.854 213.13 132.977 213.443 133.133 213.625C133.289 213.807 133.474 213.898 133.688 213.898H133.805C133.878 213.898 133.943 213.911 134 213.938C134.057 213.958 134.102 213.995 134.133 214.047C134.169 214.099 134.198 214.146 134.219 214.188C134.24 214.224 134.253 214.284 134.258 214.367C134.268 214.451 134.273 214.508 134.273 214.539C134.279 214.565 134.279 214.625 134.273 214.719C134.273 214.807 134.273 214.852 134.273 214.852V215C134.273 215.323 134.266 215.523 134.25 215.602C134.182 215.862 134.034 215.995 133.805 216H133.68C133.102 216 132.612 215.776 132.211 215.328C132.107 215.443 131.995 215.547 131.875 215.641C131.76 215.729 131.638 215.807 131.508 215.875C131.378 215.943 131.24 215.997 131.094 216.039C130.948 216.086 130.797 216.12 130.641 216.141C130.484 216.161 130.323 216.172 130.156 216.172ZM140.352 210.945C140.57 211.305 140.682 211.701 140.688 212.133C140.688 212.81 140.438 213.385 139.938 213.859C140.375 213.911 140.703 213.938 140.922 213.938C141.234 213.938 141.469 213.906 141.625 213.844C141.958 213.719 142.128 213.458 142.133 213.062C142.133 212.599 141.539 211.893 140.352 210.945ZM138.016 209.367C137.979 209.346 137.878 209.302 137.711 209.234L137.383 209.109L138.242 207.398C142.164 209.362 144.135 211.203 144.156 212.922C144.161 213.307 144.094 213.695 143.953 214.086C143.818 214.44 143.622 214.758 143.367 215.039C142.805 215.669 141.911 215.987 140.688 215.992C140.292 215.997 139.854 215.953 139.375 215.859C138.891 215.771 138.354 215.635 137.766 215.453C137.141 215.635 136.555 215.771 136.008 215.859C135.466 215.953 134.958 216 134.484 216H133.688C133.073 216 132.766 215.667 132.766 215V214.852C132.76 214.216 133.068 213.898 133.688 213.898H135.336C134.898 213.367 134.682 212.766 134.688 212.094C134.688 211.646 134.792 211.221 135 210.82C135.271 210.299 135.617 209.919 136.039 209.68C136.555 209.388 137.214 209.284 138.016 209.367ZM137.758 213.32C137.951 213.216 138.159 213.062 138.383 212.859C138.732 212.547 138.904 212.208 138.898 211.844C138.893 211.672 138.823 211.51 138.688 211.359C138.469 211.12 138.185 211 137.836 211C137.43 211 137.115 211.177 136.891 211.531C136.786 211.703 136.732 211.901 136.727 212.125C136.727 212.448 136.859 212.727 137.125 212.961C137.302 213.122 137.513 213.242 137.758 213.32ZM155.969 216C153.859 216 152.25 215.659 151.141 214.977C150.031 214.294 149.477 213.266 149.477 211.891C149.477 211.141 149.628 210.43 149.93 209.758L150.055 209.477L150.336 209.594L151.602 210.133L151.883 210.25L151.773 210.539C151.612 210.94 151.531 211.32 151.531 211.68C151.531 212.034 151.615 212.346 151.781 212.617C151.948 212.888 152.203 213.12 152.547 213.312C152.896 213.505 153.352 213.651 153.914 213.75C154.482 213.849 155.154 213.898 155.93 213.898C157.237 213.898 158.297 213.818 159.109 213.656C159.922 213.49 160.461 213.268 160.727 212.992C160.846 212.862 160.906 212.625 160.906 212.281C160.906 212.214 160.904 212.125 160.898 212.016L160.852 211.375L160.836 211.078L161.125 211.047L162.414 210.891L162.734 210.859L162.766 211.18L162.891 212.672C162.922 213.057 163.029 213.367 163.211 213.602C163.367 213.799 163.651 213.898 164.062 213.898H164.164C164.237 213.898 164.302 213.911 164.359 213.938C164.417 213.958 164.461 213.995 164.492 214.047C164.529 214.099 164.557 214.146 164.578 214.188C164.599 214.224 164.612 214.284 164.617 214.367C164.628 214.451 164.633 214.508 164.633 214.539C164.638 214.565 164.638 214.625 164.633 214.719C164.633 214.807 164.633 214.852 164.633 214.852V215C164.633 215.01 164.633 215.06 164.633 215.148C164.638 215.232 164.638 215.294 164.633 215.336C164.633 215.372 164.628 215.432 164.617 215.516C164.612 215.594 164.599 215.656 164.578 215.703C164.557 215.75 164.529 215.799 164.492 215.852C164.461 215.904 164.417 215.943 164.359 215.969C164.307 215.99 164.242 216 164.164 216H164.062C163.536 216 163.068 215.898 162.656 215.695C162.245 215.492 161.906 215.193 161.641 214.797C160.62 215.599 158.74 216 156 216H155.969ZM153.859 208.211L154.992 207.07L155.109 206.953L155.227 207.07L156.375 208.219L156.383 208.227L156.398 208.211L157.539 207.07L157.656 206.953L157.773 207.07L158.914 208.219L159.031 208.336L158.914 208.453L157.781 209.586L157.664 209.703L157.547 209.586L156.398 208.445L156.391 208.438L156.375 208.453L155.234 209.586L155.117 209.703L155.008 209.586L153.859 208.445L153.742 208.328L153.859 208.211ZM170.227 213.898H170.852C172.31 213.898 173.409 213.742 174.148 213.43C174.482 213.279 174.724 213.102 174.875 212.898C175.026 212.69 175.102 212.445 175.102 212.164C175.102 212.076 175.094 211.992 175.078 211.914C175.062 211.831 175.039 211.755 175.008 211.688C174.977 211.62 174.938 211.555 174.891 211.492C174.766 211.331 174.617 211.211 174.445 211.133C174.279 211.055 174.078 211.013 173.844 211.008C173.312 211.013 172.742 211.253 172.133 211.727C171.523 212.201 170.888 212.924 170.227 213.898ZM166.828 215.047C166.214 215.682 165.336 216 164.195 216H164.062C163.776 216 163.552 215.906 163.391 215.719C163.224 215.531 163.141 215.292 163.141 215V214.852C163.141 214.565 163.227 214.336 163.398 214.164C163.565 213.987 163.789 213.898 164.07 213.898H164.195C165.19 213.898 165.729 213.654 165.812 213.164C165.844 212.987 165.859 212.776 165.859 212.531C165.859 212.406 165.852 212.232 165.836 212.008L165.797 211.367L165.773 211.07L166.07 211.039L167.359 210.883L167.68 210.852L167.703 211.172L167.844 212.828C167.875 213.167 167.943 213.409 168.047 213.555C168.99 212.008 169.938 210.844 170.891 210.062C171.849 209.276 172.826 208.885 173.82 208.891C174.414 208.891 174.943 209.005 175.406 209.234C175.875 209.464 176.268 209.805 176.586 210.258C176.648 210.352 176.706 210.445 176.758 210.539C176.81 210.633 176.857 210.729 176.898 210.828C176.94 210.922 176.977 211.021 177.008 211.125C177.044 211.224 177.073 211.326 177.094 211.43C177.115 211.534 177.13 211.641 177.141 211.75C177.151 211.854 177.154 211.961 177.148 212.07C177.148 212.378 177.112 212.701 177.039 213.039C176.581 215.013 174.503 216 170.805 216H170.406C169.536 216 168.802 215.924 168.203 215.773C167.609 215.622 167.151 215.38 166.828 215.047ZM181.523 211.445L182.047 213.156C182.125 213.411 182.255 213.599 182.438 213.719C182.625 213.839 182.891 213.898 183.234 213.898H183.453C183.516 213.898 183.57 213.909 183.617 213.93C183.669 213.951 183.711 213.974 183.742 214C183.779 214.026 183.807 214.068 183.828 214.125C183.854 214.177 183.872 214.221 183.883 214.258C183.893 214.289 183.901 214.341 183.906 214.414C183.917 214.482 183.922 214.529 183.922 214.555C183.922 214.581 183.922 214.63 183.922 214.703C183.922 214.771 183.922 214.807 183.922 214.812V215C183.922 215.328 183.911 215.536 183.891 215.625C183.823 215.87 183.677 215.995 183.453 216H183.32C183.086 216 182.875 215.987 182.688 215.961C182.5 215.93 182.331 215.883 182.18 215.82C181.961 217.065 181.372 218.055 180.414 218.789C179.456 219.523 178.156 220 176.516 220.219L176.234 220.258L176.172 219.984L175.836 218.656L175.75 218.312L176.094 218.266C177.521 218.073 178.57 217.682 179.242 217.094C179.919 216.51 180.255 215.721 180.25 214.727C180.25 213.945 180.029 213.081 179.586 212.133L179.438 211.82L179.766 211.703L181.125 211.242L181.43 211.133L181.523 211.445ZM186.555 213.25C185.716 213.25 185.068 213.042 184.609 212.625C184.151 212.208 183.917 211.607 183.906 210.82C183.906 210.576 183.93 210.339 183.977 210.109C184.143 209.234 184.466 208.523 184.945 207.977C185.451 207.409 186.099 207.125 186.891 207.125C187.375 207.125 187.807 207.247 188.188 207.492C188.693 207.815 189.091 208.284 189.383 208.898C189.68 209.513 189.88 210.26 189.984 211.141C189.995 211.26 190.003 211.378 190.008 211.492C190.018 211.602 190.026 211.711 190.031 211.82C190.036 211.924 190.039 212.031 190.039 212.141C190.039 213.578 189.62 214.609 188.781 215.234C188.698 215.297 188.609 215.354 188.516 215.406C188.427 215.458 188.331 215.508 188.227 215.555C188.128 215.596 188.021 215.638 187.906 215.68C187.797 215.716 187.68 215.75 187.555 215.781C187.435 215.807 187.307 215.833 187.172 215.859C187.036 215.885 186.896 215.906 186.75 215.922C186.604 215.938 186.453 215.953 186.297 215.969C186.141 215.979 185.979 215.987 185.812 215.992C185.646 215.997 185.474 216 185.297 216H183.328C183.042 216 182.818 215.906 182.656 215.719C182.49 215.531 182.406 215.292 182.406 215V214.852C182.406 214.565 182.49 214.336 182.656 214.164C182.823 213.987 183.047 213.898 183.328 213.898H185.383C185.789 213.898 186.154 213.878 186.477 213.836C186.799 213.794 187.065 213.734 187.273 213.656C187.487 213.578 187.656 213.49 187.781 213.391C187.906 213.292 187.995 213.182 188.047 213.062C187.531 213.188 187.034 213.25 186.555 213.25ZM185.82 210.609C185.82 210.807 185.883 210.953 186.008 211.047C186.138 211.141 186.38 211.188 186.734 211.188C187.062 211.188 187.469 211.122 187.953 210.992C187.88 210.534 187.768 210.143 187.617 209.82C187.508 209.581 187.388 209.411 187.258 209.312C187.133 209.208 186.992 209.156 186.836 209.156C186.628 209.156 186.445 209.232 186.289 209.383C186.138 209.534 186.008 209.786 185.898 210.141C185.846 210.307 185.82 210.464 185.82 210.609ZM185.398 204.797L186.539 203.656L186.656 203.539L186.773 203.656L187.914 204.805L188.031 204.922L187.914 205.039L186.781 206.172L186.664 206.289L186.547 206.172L185.398 205.031L185.281 204.914L185.398 204.797Z" fill="white"/>
        <path d="M71 206L65 212L71 218" stroke="white" stroke-width="2" stroke-miterlimit="10" stroke-linecap="round" stroke-linejoin="round"/>
        <path d="M95.5469 67.5469C95.8125 66.2344 96.474 65.1771 97.5312 64.375L97.6172 64.3047L97.7109 64.3672L98.0859 64.6016L98.2656 64.7109L98.1094 64.8438C97.3542 65.5208 96.9219 66.3828 96.8125 67.4297C97.4688 67.4505 97.8906 67.6458 98.0781 68.0156C98.1927 68.2448 98.2474 68.4688 98.2422 68.6875C98.2422 68.8906 98.2109 69.0703 98.1484 69.2266C98.0911 69.3776 98.0078 69.5052 97.8984 69.6094C97.7891 69.7135 97.6536 69.7943 97.4922 69.8516C97.3359 69.9036 97.1562 69.9297 96.9531 69.9297C96.7969 69.9297 96.651 69.9167 96.5156 69.8906C96.0521 69.8021 95.7396 69.5547 95.5781 69.1484C95.4219 68.7422 95.4115 68.2083 95.5469 67.5469ZM103.969 64.6875L105.109 63.5469L105.227 63.4297L105.344 63.5469L106.484 64.6953L106.602 64.8125L106.484 64.9297L105.352 66.0625L105.234 66.1797L105.117 66.0625L103.969 64.9219L103.852 64.8047L103.969 64.6875ZM110.617 69.7969C110.549 70.3698 110.38 70.9427 110.109 71.5156C109.276 73.25 107.628 74.1172 105.164 74.1172C103.518 74.1172 102.266 73.7135 101.406 72.9062C100.552 72.1042 100.125 70.9245 100.125 69.3672C100.125 68.2578 100.396 67.0495 100.938 65.7422L101.055 65.4531L101.344 65.5703L102.609 66.0781L102.898 66.1953L102.789 66.4844C102.367 67.5469 102.156 68.5052 102.156 69.3594C102.156 70.2812 102.401 70.9609 102.891 71.3984C103.385 71.8359 104.161 72.0547 105.219 72.0547C106.391 72.0547 107.253 71.7969 107.805 71.2812C108.357 70.7708 108.633 69.974 108.633 68.8906C108.633 67.9792 108.406 67.0625 107.953 66.1406L107.805 65.8203L108.133 65.7031L109.484 65.2344L109.781 65.1328L109.883 65.4297L110.453 67.1875C110.505 67.349 110.578 67.4818 110.672 67.5859C110.771 67.6849 110.901 67.763 111.062 67.8203C111.229 67.8724 111.43 67.8984 111.664 67.8984H111.812C111.875 67.8984 111.932 67.9089 111.984 67.9297C112.036 67.9505 112.078 67.974 112.109 68C112.141 68.026 112.167 68.0677 112.188 68.125C112.214 68.1771 112.232 68.2214 112.242 68.2578C112.258 68.2891 112.268 68.3411 112.273 68.4141C112.279 68.4818 112.281 68.5312 112.281 68.5625C112.286 68.5885 112.286 68.6354 112.281 68.7031C112.281 68.7708 112.281 68.8073 112.281 68.8125V69C112.281 69.0208 112.281 69.0547 112.281 69.1016C112.297 69.7005 112.141 70 111.812 70H111.695C111.279 70 110.919 69.9323 110.617 69.7969ZM115.945 62.2969L117.055 61.1875L117.172 61.0703L117.289 61.1875L118.414 62.3047L118.445 62.3359L118.484 62.2969L119.602 61.1875L119.719 61.0703L119.836 61.1875L120.953 62.3047L121.07 62.4219L120.953 62.5391L119.844 63.6484L119.727 63.7656L119.609 63.6484L118.484 62.5312L118.453 62.5L118.414 62.5391L117.297 63.6484L117.18 63.7656L117.07 63.6484L115.945 62.5312L115.828 62.4141L115.945 62.2969ZM117.203 60.2031L118.312 59.0859L118.43 58.9688L118.547 59.0859L119.664 60.2109L119.781 60.3281L119.664 60.4453L118.555 61.5547L118.438 61.6719L118.32 61.5547L117.203 60.4375L117.086 60.3203L117.203 60.2031ZM120.703 69.9922C120.417 69.9922 120.151 69.9609 119.906 69.8984C119.667 69.8359 119.448 69.7422 119.25 69.6172C119.052 69.487 118.883 69.3255 118.742 69.1328C118.185 69.7109 117.461 70 116.57 70C115.565 69.9948 114.841 69.7109 114.398 69.1484C113.867 69.7161 113.036 70 111.906 70H111.703C111.417 70 111.193 69.9062 111.031 69.7188C110.865 69.5312 110.781 69.2917 110.781 69V68.8516C110.781 68.5651 110.865 68.3359 111.031 68.1641C111.198 67.987 111.422 67.8984 111.703 67.8984H111.922C112.484 67.8984 112.885 67.8047 113.125 67.6172C113.365 67.4245 113.487 67.1276 113.492 66.7266C113.492 66.4453 113.484 66.2083 113.469 66.0156L113.422 65.5391L113.398 65.2344L113.695 65.2031L114.984 65.0469L115.312 65.0156L115.336 65.3359L115.461 66.9844C115.477 67.2031 115.523 67.3776 115.602 67.5078C115.68 67.638 115.797 67.737 115.953 67.8047C116.115 67.8672 116.326 67.8984 116.586 67.8984C116.878 67.8984 117.109 67.862 117.281 67.7891C117.453 67.7109 117.578 67.5964 117.656 67.4453C117.734 67.2891 117.776 67.0807 117.781 66.8203C117.781 66.5443 117.776 66.3281 117.766 66.1719L117.719 65.5312L117.703 65.2344L118 65.2031L119.289 65.0469L119.609 65.0156L119.633 65.3359L119.758 66.9844C119.784 67.3177 119.867 67.5521 120.008 67.6875C120.148 67.8229 120.37 67.8906 120.672 67.8906C120.958 67.8906 121.167 67.8047 121.297 67.6328C121.427 67.4609 121.492 67.1589 121.492 66.7266C121.492 66.2214 121.383 65.5859 121.164 64.8203L121.07 64.5078L121.383 64.4297L122.75 64.0703L123.039 64L123.125 64.2812C123.391 65.1198 123.523 65.9167 123.523 66.6719C123.523 66.6875 123.523 66.7031 123.523 66.7188C123.518 67.2917 123.427 67.8047 123.25 68.2578C123.078 68.7109 122.818 69.0911 122.469 69.3984C122.016 69.7943 121.427 69.9922 120.703 69.9922ZM128.641 67.8516C128.594 67.3568 128.513 66.9557 128.398 66.6484C128.284 66.3359 128.151 66.1198 128 66C127.849 65.8802 127.669 65.8203 127.461 65.8203C127.393 65.8203 127.331 65.8255 127.273 65.8359C127.216 65.8464 127.159 65.8646 127.102 65.8906C127.049 65.9115 127 65.9427 126.953 65.9844C126.906 66.0208 126.862 66.0651 126.82 66.1172C126.784 66.1693 126.747 66.2318 126.711 66.3047C126.674 66.3776 126.641 66.4583 126.609 66.5469C126.526 66.7969 126.484 67.0286 126.484 67.2422C126.484 67.487 126.573 67.6693 126.75 67.7891C126.927 67.9089 127.247 67.9688 127.711 67.9688C128.023 67.9635 128.333 67.9245 128.641 67.8516ZM127.703 70.0156C126.693 70.0156 125.911 69.7917 125.359 69.3438C124.812 68.8906 124.539 68.2292 124.539 67.3594C124.539 66.6823 124.685 66.0391 124.977 65.4297C125.154 65.0599 125.367 64.7474 125.617 64.4922C125.872 64.237 126.161 64.0443 126.484 63.9141C126.812 63.7839 127.169 63.7188 127.555 63.7188C127.857 63.7188 128.138 63.763 128.398 63.8516C128.664 63.9401 128.904 64.0703 129.117 64.2422C129.331 64.4089 129.521 64.6146 129.688 64.8594C129.859 65.1042 130.005 65.388 130.125 65.7109C130.49 66.6641 130.669 67.651 130.664 68.6719C130.654 70.2604 130.164 71.5208 129.195 72.4531C128.232 73.3854 126.823 73.974 124.969 74.2188L124.695 74.25L124.633 73.9844L124.297 72.6562L124.211 72.3125L124.555 72.2656C126.695 71.9688 128.018 71.1979 128.523 69.9531C128.331 69.974 128.169 69.9896 128.039 70C127.909 70.0104 127.797 70.0156 127.703 70.0156ZM136.445 65.4062C136.951 66.5625 137.203 67.6406 137.203 68.6406C137.203 69.7031 136.982 70.6198 136.539 71.3906C136.102 72.1667 135.456 72.7891 134.602 73.2578C133.747 73.7318 132.693 74.0521 131.438 74.2188L131.156 74.2578L131.094 73.9844L130.758 72.6562L130.672 72.3125L131.016 72.2656C133.24 71.9635 134.57 71.1615 135.008 69.8594C135.117 69.5156 135.172 69.1406 135.172 68.7344C135.172 67.9375 134.953 67.0703 134.516 66.1328L134.367 65.8203L134.695 65.7031L136.055 65.2422L136.328 65.1484L136.445 65.4062ZM153.125 67.6719C153.146 67.8646 153.161 68.0573 153.172 68.25C153.182 68.4427 153.188 68.6328 153.188 68.8203C153.188 68.9089 153.185 69 153.18 69.0938C153.18 69.1823 153.174 69.2708 153.164 69.3594C153.159 69.4427 153.151 69.5286 153.141 69.6172C153.135 69.7005 153.125 69.7839 153.109 69.8672C152.979 70.7214 152.693 71.4349 152.25 72.0078C151.812 72.5807 151.227 73.0104 150.492 73.2969C149.758 73.5833 148.878 73.7266 147.852 73.7266C146.711 73.7266 145.755 73.5547 144.984 73.2109C144.599 73.0391 144.258 72.8203 143.961 72.5547C143.669 72.2943 143.427 71.9896 143.234 71.6406C142.849 70.9427 142.654 70.0755 142.648 69.0391C142.643 67.8203 142.909 66.6354 143.445 65.4844L143.508 65.3516L143.641 65.4062L144.914 65.9219L145.062 65.9766L145 66.125C144.781 66.6719 144.62 67.1823 144.516 67.6562C144.411 68.125 144.359 68.5651 144.359 68.9766C144.37 69.9922 144.654 70.7474 145.211 71.2422C145.768 71.737 146.62 71.9818 147.766 71.9766C148.932 71.9766 149.826 71.7578 150.445 71.3203C151.065 70.888 151.432 70.237 151.547 69.3672C150.948 69.5339 150.37 69.6146 149.812 69.6094C149.417 69.6042 149.065 69.5547 148.758 69.4609C148.451 69.362 148.193 69.2135 147.984 69.0156C147.568 68.6198 147.362 68.0417 147.367 67.2812C147.367 67.1771 147.372 67.0677 147.383 66.9531C147.393 66.8385 147.409 66.7188 147.43 66.5938C147.466 66.349 147.523 66.0885 147.602 65.8125C147.758 65.25 148.013 64.7682 148.367 64.3672C148.857 63.8203 149.458 63.5495 150.172 63.5547C150.557 63.5599 150.961 63.6979 151.383 63.9688C152.352 64.5938 152.932 65.8281 153.125 67.6719ZM151.422 67.6172C151.396 67.4193 151.365 67.2344 151.328 67.0625C151.292 66.8854 151.25 66.7266 151.203 66.5859C151.161 66.4401 151.112 66.3073 151.055 66.1875C150.799 65.6302 150.495 65.3516 150.141 65.3516C149.885 65.3516 149.667 65.4401 149.484 65.6172C149.307 65.7891 149.164 66.0651 149.055 66.4453C149.039 66.5078 149.023 66.5677 149.008 66.625C148.997 66.6823 148.987 66.737 148.977 66.7891C148.961 66.8932 148.953 66.9896 148.953 67.0781C148.953 67.25 148.987 67.3932 149.055 67.5078C149.122 67.6172 149.234 67.7031 149.391 67.7656C149.547 67.8229 149.753 67.8542 150.008 67.8594C150.107 67.8594 150.214 67.8542 150.328 67.8438C150.443 67.8333 150.562 67.8177 150.688 67.7969C150.911 67.7552 151.156 67.6953 151.422 67.6172ZM150.102 61.3281L151.234 60.1953L151.297 60.1328L151.352 60.1953L152.5 61.3359L152.555 61.3984L152.5 61.4531L151.359 62.5938L151.305 62.6484L151.242 62.5938L150.102 61.4453L150.039 61.3906L150.102 61.3281ZM147.555 61.3281L148.695 60.1953L148.75 60.1328L148.812 60.1953L149.953 61.3359L150.016 61.3984L149.953 61.4531L148.82 62.5938L148.758 62.6484L148.703 62.5938L147.555 61.4453L147.5 61.3906L147.555 61.3281ZM159.117 67.8594C160.107 67.4583 160.602 66.4531 160.602 64.8438V58.6875V58.5312H162.312V65.5547C162.312 67.3255 162.862 68.2109 163.961 68.2109H164.156C164.365 68.2109 164.469 68.4766 164.469 69.0078V69.1562C164.469 69.7188 164.365 70 164.156 70H163.852C162.518 70 161.646 69.4661 161.234 68.3984C160.339 69.4505 158.901 69.9766 156.922 69.9766C156.193 69.9766 155.56 69.9271 155.023 69.8281V69.6953V68.25V68.0703L155.203 68.0938C155.964 68.1927 156.724 68.224 157.484 68.1875C156.62 65.4115 155.568 62.625 154.328 59.8281L155.938 58.9375C157.182 61.8438 158.242 64.8177 159.117 67.8594ZM167.125 60.5234L168.258 59.3906L168.32 59.3281L168.375 59.3906L169.523 60.5312L169.578 60.5938L169.523 60.6484L168.383 61.7891L168.328 61.8438L168.266 61.7891L167.125 60.6406L167.062 60.5859L167.125 60.5234ZM164.047 70C163.802 70 163.615 69.9245 163.484 69.7734C163.349 69.6224 163.281 69.4167 163.281 69.1562V69.0078C163.281 68.7578 163.349 68.5625 163.484 68.4219C163.62 68.2812 163.807 68.2109 164.047 68.2109H164.516C166.26 68.2109 168.362 67.5755 170.82 66.3047L171.078 66.1719C171.036 66.1562 170.99 66.1406 170.938 66.125C170.891 66.1042 170.839 66.0833 170.781 66.0625C170.729 66.0417 170.672 66.0208 170.609 66C170.552 65.974 170.49 65.9479 170.422 65.9219C170.354 65.8906 170.281 65.862 170.203 65.8359C170.13 65.8047 170.052 65.7734 169.969 65.7422C169.891 65.7057 169.807 65.6693 169.719 65.6328C168.719 65.2318 168.044 65.0312 167.695 65.0312C167.424 65.0312 167.177 65.0859 166.953 65.1953C166.734 65.3047 166.536 65.474 166.359 65.7031L166.141 65.9844L166.062 66.0859L165.953 66.0312L164.75 65.4375L164.594 65.3594L164.688 65.2188L164.812 65C165.526 63.8438 166.49 63.2604 167.703 63.25C168.052 63.25 168.427 63.3073 168.828 63.4219C169.234 63.5365 169.674 63.7083 170.148 63.9375C171.753 64.7188 172.99 65.1276 173.859 65.1641L174.008 65.1719V65.3281L173.992 66.7266V66.8672L173.852 66.8828C173.273 66.9349 172.188 67.3802 170.594 68.2188C168.339 69.4062 166.281 70 164.422 70H164.047ZM183.688 68.125C183.562 66.5885 183.112 65.8203 182.336 65.8203C182.096 65.8203 181.893 65.888 181.727 66.0234C181.565 66.1536 181.435 66.3646 181.336 66.6562C181.247 66.9167 181.203 67.1641 181.203 67.3984C181.203 67.5495 181.229 67.6797 181.281 67.7891C181.333 67.8932 181.411 67.9844 181.516 68.0625C181.625 68.1354 181.768 68.1901 181.945 68.2266C182.122 68.263 182.336 68.2812 182.586 68.2812C182.961 68.276 183.328 68.224 183.688 68.125ZM182.578 70.0156C181.599 70.0156 180.852 69.8047 180.336 69.3828C179.826 68.9609 179.57 68.3385 179.57 67.5156C179.57 66.8594 179.711 66.2396 179.992 65.6562C180.508 64.5729 181.32 64.0312 182.43 64.0312C183.57 64.0312 184.38 64.6615 184.859 65.9219C185.214 66.8542 185.388 67.8229 185.383 68.8281C185.372 70.3802 184.898 71.6068 183.961 72.5078C183.029 73.4089 181.651 73.9792 179.828 74.2188L179.688 74.2344L179.656 74.1016L179.32 72.7734L179.281 72.6016L179.453 72.5781C181.786 72.25 183.18 71.3646 183.633 69.9219C183.128 69.9844 182.776 70.0156 182.578 70.0156ZM196 71.9531C197.208 71.9479 198.104 71.6719 198.688 71.125C199.271 70.5833 199.56 69.7578 199.555 68.6484C199.555 67.6745 199.326 66.7161 198.867 65.7734L198.789 65.6094L198.953 65.5547L200.312 65.0859L200.453 65.0312L200.508 65.1719C201.023 66.4583 201.281 67.6198 201.281 68.6562C201.276 68.9792 201.253 69.2917 201.211 69.5938C201.174 69.8906 201.115 70.1745 201.031 70.4453C200.953 70.7214 200.854 70.9844 200.734 71.2344C199.927 72.8802 198.326 73.7005 195.93 73.6953C194.326 73.6953 193.112 73.3151 192.289 72.5547C191.471 71.7943 191.06 70.6641 191.055 69.1641C191.055 68.0339 191.32 66.8255 191.852 65.5391L191.906 65.3984L192.055 65.4531L193.32 65.9609L193.469 66.0234L193.414 66.1641C192.982 67.2526 192.768 68.2578 192.773 69.1797C192.779 70.1172 193.044 70.8125 193.57 71.2656C194.102 71.724 194.911 71.9531 196 71.9531ZM194.805 64.4922L195.938 63.3594L196 63.2969L196.055 63.3594L197.203 64.5L197.258 64.5625L197.203 64.6172L196.062 65.7578L196.008 65.8125L195.945 65.7578L194.805 64.6094L194.742 64.5547L194.805 64.4922ZM203.227 58.5312H204.625H204.781V58.6875V69.8359V69.9922H204.625H203.227H203.07V69.8359V58.6875V58.5312H203.227ZM210.586 68.1797C210.456 66.6068 210.008 65.8203 209.242 65.8203C209.003 65.8203 208.799 65.888 208.633 66.0234C208.471 66.1536 208.341 66.3646 208.242 66.6562C208.154 66.9167 208.109 67.1641 208.109 67.3984C208.109 67.6745 208.203 67.8776 208.391 68.0078C208.583 68.138 208.898 68.2031 209.336 68.2031C209.898 68.1979 210.315 68.1901 210.586 68.1797ZM212.25 68.2109H212.867C212.94 68.2109 213 68.2318 213.047 68.2734C213.094 68.3203 213.125 68.3906 213.141 68.4844C213.161 68.5781 213.172 68.6589 213.172 68.7266C213.177 68.7995 213.18 68.8984 213.18 69.0234C213.18 69.0286 213.18 69.0469 213.18 69.0781V69.1562C213.18 69.1823 213.18 69.1979 213.18 69.2031C213.18 69.3281 213.177 69.4245 213.172 69.4922C213.172 69.5599 213.161 69.6406 213.141 69.7344C213.125 69.8281 213.094 69.8958 213.047 69.9375C213 69.9792 212.94 70 212.867 70L212.195 69.9922C211.747 72.388 209.93 73.7969 206.742 74.2188L206.602 74.2344L206.57 74.1016L206.234 72.7656L206.195 72.5938L206.367 72.5703C208.716 72.2214 210.104 71.3646 210.531 70C210.427 70.0052 210.32 70.0078 210.211 70.0078C210.102 70.013 209.987 70.0156 209.867 70.0156C209.747 70.0156 209.62 70.0156 209.484 70.0156C208.505 70.0156 207.758 69.8047 207.242 69.3828C206.732 68.9609 206.477 68.3385 206.477 67.5156C206.477 66.8594 206.617 66.2396 206.898 65.6562C207.065 65.3021 207.268 65.0026 207.508 64.7578C207.747 64.5182 208.021 64.3385 208.328 64.2188C208.635 64.0938 208.971 64.0312 209.336 64.0312C209.904 64.0312 210.391 64.1927 210.797 64.5156C211.203 64.8438 211.526 65.3151 211.766 65.9297C212.005 66.5443 212.167 67.3047 212.25 68.2109ZM217.398 72.4922L218.531 71.3594L218.594 71.2969L218.648 71.3594L219.797 72.5L219.852 72.5625L219.797 72.6172L218.656 73.7578L218.602 73.8125L218.539 73.7578L217.398 72.6094L217.336 72.5547L217.398 72.4922ZM212.766 70C212.521 70 212.333 69.9245 212.203 69.7734C212.068 69.6224 212 69.4167 212 69.1562V69.0078C212 68.7578 212.068 68.5625 212.203 68.4219C212.339 68.2812 212.526 68.2109 212.766 68.2109H213.234C214.979 68.2109 217.081 67.5755 219.539 66.3047L219.797 66.1719C219.755 66.1562 219.708 66.1406 219.656 66.125C219.609 66.1042 219.557 66.0833 219.5 66.0625C219.448 66.0417 219.391 66.0208 219.328 66C219.271 65.974 219.208 65.9479 219.141 65.9219C219.073 65.8906 219 65.862 218.922 65.8359C218.849 65.8047 218.771 65.7734 218.688 65.7422C218.609 65.7057 218.526 65.6693 218.438 65.6328C217.438 65.2318 216.763 65.0312 216.414 65.0312C216.143 65.0312 215.896 65.0859 215.672 65.1953C215.453 65.3047 215.255 65.474 215.078 65.7031L214.859 65.9844L214.781 66.0859L214.672 66.0312L213.469 65.4375L213.312 65.3594L213.406 65.2188L213.531 65C214.245 63.8438 215.208 63.2604 216.422 63.25C216.771 63.25 217.146 63.3073 217.547 63.4219C217.953 63.5365 218.393 63.7083 218.867 63.9375C220.471 64.7188 221.708 65.1276 222.578 65.1641L222.727 65.1719V65.3281L222.711 66.7266V66.8672L222.57 66.8828C221.992 66.9349 220.906 67.3802 219.312 68.2188C217.057 69.4062 215 70 213.141 70H212.766ZM234.258 68.4141C234.549 68.4141 234.76 68.3438 234.891 68.2031C235.026 68.0573 235.089 67.8203 235.078 67.4922C235.078 67.3516 235.062 67.2135 235.031 67.0781C235.005 66.9427 234.964 66.8125 234.906 66.6875C234.688 66.1927 234.328 65.9427 233.828 65.9375C233.214 65.9271 232.727 66.3984 232.367 67.3516C233.19 68.0599 233.82 68.4141 234.258 68.4141ZM237.906 68.2109C238.099 68.2109 238.203 68.3984 238.219 68.7734C238.219 68.8151 238.219 68.8932 238.219 69.0078V69.1562C238.219 69.1615 238.219 69.1745 238.219 69.1953C238.219 69.3203 238.216 69.4167 238.211 69.4844C238.206 69.5521 238.195 69.6328 238.18 69.7266C238.164 69.8203 238.133 69.8906 238.086 69.9375C238.039 69.9792 237.979 70 237.906 70H237.781C237.474 70 237.193 69.9375 236.938 69.8125C236.682 69.6823 236.458 69.4948 236.266 69.25C235.833 69.8281 235.221 70.138 234.43 70.1797C234.003 70.2005 233.474 70.0625 232.844 69.7656C232.734 69.7188 232.591 69.6458 232.414 69.5469C232.237 69.4427 232.021 69.3125 231.766 69.1562C231.49 68.9896 231.232 68.9115 230.992 68.9219C230.685 68.9323 230.438 69.25 230.25 69.875C230.068 70.4948 229.979 71.4427 229.984 72.7188C229.984 73.7344 230.021 74.6589 230.094 75.4922L230.109 75.6641H229.938H228.5H228.359L228.344 75.5156C228.286 74.6302 228.258 73.6875 228.258 72.6875C228.258 70.75 228.469 69.3646 228.891 68.5312C229.031 68.2604 229.188 68.026 229.359 67.8281C229.531 67.625 229.719 67.4609 229.922 67.3359C230.13 67.2109 230.354 67.125 230.594 67.0781C230.984 66.1146 231.448 65.388 231.984 64.8984C232.521 64.4036 233.133 64.1536 233.82 64.1484C234.258 64.1484 234.654 64.2318 235.008 64.3984C235.367 64.5651 235.677 64.8125 235.938 65.1406C236.271 65.5417 236.516 66.1198 236.672 66.875C236.859 67.7656 237.229 68.2109 237.781 68.2109H237.906ZM240.164 72.4922L241.297 71.3594L241.359 71.2969L241.414 71.3594L242.562 72.5L242.617 72.5625L242.562 72.6172L241.422 73.7578L241.367 73.8125L241.305 73.7578L240.164 72.6094L240.102 72.5547L240.164 72.4922ZM237.617 72.4922L238.758 71.3594L238.812 71.2969L238.875 71.3594L240.016 72.5L240.078 72.5625L240.016 72.6172L238.883 73.7578L238.82 73.8125L238.766 73.7578L237.617 72.6094L237.562 72.5547L237.617 72.4922ZM243.828 69.1562C243.828 69.1667 243.828 69.1823 243.828 69.2031C243.828 69.3281 243.826 69.4245 243.82 69.4922C243.815 69.5599 243.805 69.6406 243.789 69.7344C243.773 69.8229 243.742 69.8906 243.695 69.9375C243.648 69.9792 243.589 70 243.516 70H243.438C242.443 70 241.727 69.6719 241.289 69.0156C240.727 69.6719 239.831 70 238.602 70H237.789C237.549 70 237.365 69.9245 237.234 69.7734C237.099 69.6224 237.031 69.4167 237.031 69.1562V69.0078C237.031 68.7578 237.099 68.5625 237.234 68.4219C237.365 68.2812 237.549 68.2109 237.789 68.2109H238.562C239.677 68.2109 240.292 67.9219 240.406 67.3438C240.417 67.2865 240.424 67.2266 240.43 67.1641C240.44 67.0964 240.445 67.026 240.445 66.9531C240.451 66.8802 240.453 66.8047 240.453 66.7266C240.453 66.5703 240.445 66.3802 240.43 66.1562L240.391 65.5156L240.375 65.3672L240.523 65.3516L241.812 65.1953L241.977 65.1797L241.984 65.3438L242.109 66.9922C242.146 67.4089 242.271 67.7161 242.484 67.9141C242.698 68.112 243.021 68.2109 243.453 68.2109H243.516C243.708 68.2109 243.81 68.3984 243.82 68.7734C243.826 68.8203 243.828 68.9219 243.828 69.0781V69.1562ZM244 70H243.406C243.161 70 242.974 69.9245 242.844 69.7734C242.708 69.6224 242.641 69.4167 242.641 69.1562V69.0078C242.641 68.7578 242.708 68.5625 242.844 68.4219C242.979 68.2812 243.167 68.2109 243.406 68.2109H244C244.391 68.2109 244.719 68.1901 244.984 68.1484C245.255 68.1068 245.456 68.0521 245.586 67.9844C245.977 67.7552 246.172 67.3203 246.172 66.6797C246.172 66.4766 246.161 66.2682 246.141 66.0547C246.12 65.8359 246.089 65.6094 246.047 65.375C246.005 65.1406 245.953 64.8984 245.891 64.6484L245.852 64.5L246.008 64.4609L247.312 64.1406L247.453 64.1016L247.5 64.2422C247.755 65.0703 247.883 65.875 247.883 66.6562C247.883 67.8958 247.516 68.7891 246.781 69.3359C246.193 69.7786 245.266 70 244 70ZM245.898 61.6953L247.031 60.5625L247.094 60.5L247.148 60.5625L248.297 61.7031L248.352 61.7656L248.297 61.8203L247.156 62.9609L247.102 63.0156L247.039 62.9609L245.898 61.8125L245.836 61.7578L245.898 61.6953ZM243.352 61.6953L244.492 60.5625L244.547 60.5L244.609 60.5625L245.75 61.7031L245.812 61.7656L245.75 61.8203L244.617 62.9609L244.555 63.0156L244.5 62.9609L243.352 61.8125L243.297 61.7578L243.352 61.6953Z" fill="white"/>
        <path d="M137.812 38.625C138.062 39.1927 138.25 39.7422 138.375 40.2734C138.5 40.7995 138.562 41.3073 138.562 41.7969C138.562 43.349 138.089 44.5781 137.141 45.4844C136.193 46.3906 134.789 46.9688 132.93 47.2188L132.789 47.2344L132.758 47.1016L132.422 45.7734L132.383 45.6016L132.555 45.5781C134.003 45.3802 135.078 44.974 135.781 44.3594C136.49 43.75 136.844 42.9271 136.844 41.8906C136.844 41.0729 136.62 40.1823 136.172 39.2188L136.094 39.0625L136.266 39.0078L137.625 38.5391L137.758 38.5L137.812 38.625ZM143.992 42.1562C144.034 42.7188 143.93 43 143.68 43H143.516C141.359 43 140.281 41.8073 140.281 39.4219V31.5312H142V39.4062C142 40.6094 142.513 41.2109 143.539 41.2109H143.68C143.857 41.2109 143.958 41.3984 143.984 41.7734C143.99 41.7786 143.992 41.8568 143.992 42.0078V42.1562ZM149.609 42.1562C149.609 42.1667 149.609 42.1823 149.609 42.2031C149.609 42.3281 149.607 42.4245 149.602 42.4922C149.596 42.5599 149.586 42.6406 149.57 42.7344C149.555 42.8229 149.523 42.8906 149.477 42.9375C149.43 42.9792 149.37 43 149.297 43H149.219C148.224 43 147.508 42.6719 147.07 42.0156C146.508 42.6719 145.612 43 144.383 43H143.57C143.331 43 143.146 42.9245 143.016 42.7734C142.88 42.6224 142.812 42.4167 142.812 42.1562V42.0078C142.812 41.7578 142.88 41.5625 143.016 41.4219C143.146 41.2812 143.331 41.2109 143.57 41.2109H144.344C145.458 41.2109 146.073 40.9219 146.188 40.3438C146.198 40.2865 146.206 40.2266 146.211 40.1641C146.221 40.0964 146.227 40.026 146.227 39.9531C146.232 39.8802 146.234 39.8047 146.234 39.7266C146.234 39.5703 146.227 39.3802 146.211 39.1562L146.172 38.5156L146.156 38.3672L146.305 38.3516L147.594 38.1953L147.758 38.1797L147.766 38.3438L147.891 39.9922C147.927 40.4089 148.052 40.7161 148.266 40.9141C148.479 41.112 148.802 41.2109 149.234 41.2109H149.297C149.49 41.2109 149.591 41.3984 149.602 41.7734C149.607 41.8203 149.609 41.9219 149.609 42.0781V42.1562ZM145.328 35.4375L146.461 34.3047L146.523 34.2422L146.578 34.3047L147.727 35.4453L147.781 35.5078L147.727 35.5625L146.586 36.7031L146.531 36.7578L146.469 36.7031L145.328 35.5547L145.266 35.5L145.328 35.4375ZM150.375 41.2109C152.526 41.2109 153.604 40.7786 153.609 39.9141C153.609 39.763 153.581 39.612 153.523 39.4609C153.471 39.3047 153.388 39.1484 153.273 38.9922C153.164 38.8307 153.023 38.6667 152.852 38.5C152.023 37.7344 151.315 37.1224 150.727 36.6641C150.091 36.1693 149.773 35.6146 149.773 35C149.773 34.6354 149.88 34.3125 150.094 34.0312C150.312 33.75 150.604 33.5391 150.969 33.3984L156.539 31.1797L156.75 31.0938V31.3281V32.8516V32.9531L156.656 32.9922L151.484 35.0156C152.75 36.0781 153.682 36.9349 154.281 37.5859C154.99 38.3464 155.336 39.1875 155.32 40.1094C155.305 41.0781 154.878 41.8021 154.039 42.2812C153.201 42.7604 151.982 43 150.383 43H149.188C148.943 43 148.755 42.9245 148.625 42.7734C148.49 42.6224 148.422 42.4167 148.422 42.1562V42.0078C148.422 41.7578 148.49 41.5625 148.625 41.4219C148.76 41.2812 148.948 41.2109 149.188 41.2109H150.375ZM166.562 38.625C166.812 39.1927 167 39.7422 167.125 40.2734C167.25 40.7995 167.312 41.3073 167.312 41.7969C167.312 43.349 166.839 44.5781 165.891 45.4844C164.943 46.3906 163.539 46.9688 161.68 47.2188L161.539 47.2344L161.508 47.1016L161.172 45.7734L161.133 45.6016L161.305 45.5781C162.753 45.3802 163.828 44.974 164.531 44.3594C165.24 43.75 165.594 42.9271 165.594 41.8906C165.594 41.0729 165.37 40.1823 164.922 39.2188L164.844 39.0625L165.016 39.0078L166.375 38.5391L166.508 38.5L166.562 38.625ZM168.727 41.0078C169.346 41.138 169.964 41.2031 170.578 41.2031C172.401 41.2031 173.312 40.7969 173.312 39.9844C173.312 38.9531 172.255 37.7734 170.141 36.4453L170.008 36.3594L170.094 36.2266L170.883 35.0391L170.961 34.9141L171.094 34.9922C172.411 35.7839 173.404 36.5938 174.07 37.4219C174.742 38.25 175.078 39.0964 175.078 39.9609C175.078 40.9661 174.703 41.7214 173.953 42.2266C173.208 42.7266 172.117 42.9792 170.68 42.9844C169.904 42.9844 169.232 42.9219 168.664 42.7969L168.539 42.7656V42.6406V41.1641V40.9688L168.727 41.0078ZM185.234 38.625C185.484 39.1927 185.672 39.7422 185.797 40.2734C185.922 40.7995 185.984 41.3073 185.984 41.7969C185.984 43.349 185.51 44.5781 184.562 45.4844C183.615 46.3906 182.211 46.9688 180.352 47.2188L180.211 47.2344L180.18 47.1016L179.844 45.7734L179.805 45.6016L179.977 45.5781C181.424 45.3802 182.5 44.974 183.203 44.3594C183.911 43.75 184.266 42.9271 184.266 41.8906C184.266 41.0729 184.042 40.1823 183.594 39.2188L183.516 39.0625L183.688 39.0078L185.047 38.5391L185.18 38.5L185.234 38.625ZM191.336 41.1797C191.206 39.6068 190.758 38.8203 189.992 38.8203C189.753 38.8203 189.549 38.888 189.383 39.0234C189.221 39.1536 189.091 39.3646 188.992 39.6562C188.904 39.9167 188.859 40.1641 188.859 40.3984C188.859 40.6745 188.953 40.8776 189.141 41.0078C189.333 41.138 189.648 41.2031 190.086 41.2031C190.648 41.1979 191.065 41.1901 191.336 41.1797ZM193 41.2109H193.617C193.69 41.2109 193.75 41.2318 193.797 41.2734C193.844 41.3203 193.875 41.3906 193.891 41.4844C193.911 41.5781 193.922 41.6589 193.922 41.7266C193.927 41.7995 193.93 41.8984 193.93 42.0234C193.93 42.0286 193.93 42.0469 193.93 42.0781V42.1562C193.93 42.1823 193.93 42.1979 193.93 42.2031C193.93 42.3281 193.927 42.4245 193.922 42.4922C193.922 42.5599 193.911 42.6406 193.891 42.7344C193.875 42.8281 193.844 42.8958 193.797 42.9375C193.75 42.9792 193.69 43 193.617 43L192.945 42.9922C192.497 45.388 190.68 46.7969 187.492 47.2188L187.352 47.2344L187.32 47.1016L186.984 45.7656L186.945 45.5938L187.117 45.5703C189.466 45.2214 190.854 44.3646 191.281 43C191.177 43.0052 191.07 43.0078 190.961 43.0078C190.852 43.013 190.737 43.0156 190.617 43.0156C190.497 43.0156 190.37 43.0156 190.234 43.0156C189.255 43.0156 188.508 42.8047 187.992 42.3828C187.482 41.9609 187.227 41.3385 187.227 40.5156C187.227 39.8594 187.367 39.2396 187.648 38.6562C187.815 38.3021 188.018 38.0026 188.258 37.7578C188.497 37.5182 188.771 37.3385 189.078 37.2188C189.385 37.0938 189.721 37.0312 190.086 37.0312C190.654 37.0312 191.141 37.1927 191.547 37.5156C191.953 37.8438 192.276 38.3151 192.516 38.9297C192.755 39.5443 192.917 40.3047 193 41.2109ZM201.609 33.6953L202.742 32.5625L202.805 32.5L202.859 32.5625L204.008 33.7031L204.062 33.7656L204.008 33.8203L202.867 34.9609L202.812 35.0156L202.75 34.9609L201.609 33.8125L201.547 33.7578L201.609 33.6953ZM197.141 40C197.161 40.2604 197.206 40.4688 197.273 40.625C197.346 40.7812 197.435 40.888 197.539 40.9453C199.44 37.7786 201.357 36.1979 203.289 36.2031C204.419 36.2031 205.294 36.6354 205.914 37.5C206.279 38.026 206.461 38.6198 206.461 39.2812C206.461 39.5938 206.411 39.8984 206.312 40.1953C206.219 40.4922 206.076 40.7786 205.883 41.0547C206.128 41.1589 206.578 41.2109 207.234 41.2109H207.375C207.453 41.2109 207.513 41.2318 207.555 41.2734C207.602 41.3151 207.633 41.3828 207.648 41.4766C207.669 41.5651 207.68 41.6432 207.68 41.7109C207.685 41.7734 207.688 41.862 207.688 41.9766C207.688 41.9922 207.688 42.0026 207.688 42.0078V42.1562C207.688 42.1667 207.688 42.1849 207.688 42.2109C207.688 42.3359 207.685 42.4323 207.68 42.5C207.68 42.5625 207.669 42.6406 207.648 42.7344C207.633 42.8281 207.602 42.8958 207.555 42.9375C207.513 42.9792 207.453 43 207.375 43H207.188C205.958 43 205.034 42.7708 204.414 42.3125C203.971 42.5469 203.404 42.7214 202.711 42.8359C202.023 42.9453 201.206 43 200.258 43H199.859C198.047 43 196.857 42.6562 196.289 41.9688C195.695 42.6562 194.815 43 193.648 43H193.516C193.271 43 193.083 42.9245 192.953 42.7734C192.818 42.6224 192.75 42.4167 192.75 42.1562V42.0078C192.75 41.8411 192.781 41.7005 192.844 41.5859C192.901 41.4661 192.987 41.375 193.102 41.3125C193.216 41.2448 193.354 41.2109 193.516 41.2109H193.641C194.729 41.2109 195.323 40.9219 195.422 40.3438C195.453 40.1562 195.469 39.9375 195.469 39.6875C195.469 39.625 195.466 39.5495 195.461 39.4609C195.461 39.3724 195.456 39.2708 195.445 39.1562L195.406 38.5156L195.391 38.3672L195.539 38.3516L196.828 38.1953L196.992 38.1797L197 38.3438L197.141 40ZM199.383 41.2109H200.305C201.82 41.2109 202.94 41.0521 203.664 40.7344C203.898 40.6302 204.094 40.5078 204.25 40.3672C204.406 40.2266 204.521 40.0703 204.594 39.8984C204.667 39.7266 204.706 39.5339 204.711 39.3203C204.711 39.0234 204.63 38.7682 204.469 38.5547C204.193 38.1953 203.802 38.013 203.297 38.0078C202.089 38.013 200.784 39.0807 199.383 41.2109ZM207.266 43C207.021 43 206.833 42.9245 206.703 42.7734C206.568 42.6224 206.5 42.4167 206.5 42.1562V42.0078C206.5 41.7578 206.568 41.5625 206.703 41.4219C206.839 41.2812 207.026 41.2109 207.266 41.2109H207.734C209.479 41.2109 211.581 40.5755 214.039 39.3047L214.297 39.1719C214.255 39.1562 214.208 39.1406 214.156 39.125C214.109 39.1042 214.057 39.0833 214 39.0625C213.948 39.0417 213.891 39.0208 213.828 39C213.771 38.974 213.708 38.9479 213.641 38.9219C213.573 38.8906 213.5 38.862 213.422 38.8359C213.349 38.8047 213.271 38.7734 213.188 38.7422C213.109 38.7057 213.026 38.6693 212.938 38.6328C211.938 38.2318 211.263 38.0312 210.914 38.0312C210.643 38.0312 210.396 38.0859 210.172 38.1953C209.953 38.3047 209.755 38.474 209.578 38.7031L209.359 38.9844L209.281 39.0859L209.172 39.0312L207.969 38.4375L207.812 38.3594L207.906 38.2188L208.031 38C208.745 36.8438 209.708 36.2604 210.922 36.25C211.271 36.25 211.646 36.3073 212.047 36.4219C212.453 36.5365 212.893 36.7083 213.367 36.9375C214.971 37.7188 216.208 38.1276 217.078 38.1641L217.227 38.1719V38.3281L217.211 39.7266V39.8672L217.07 39.8828C216.492 39.9349 215.406 40.3802 213.812 41.2188C211.557 42.4062 209.5 43 207.641 43H207.266ZM231.766 43.2344C231.766 43.1719 231.753 43.1198 231.727 43.0781C231.706 43.0365 231.661 43.0052 231.594 42.9844C231.526 42.9583 231.43 42.9453 231.305 42.9453L230.422 42.9375C230.401 42.9375 230.38 42.9375 230.359 42.9375C230.339 42.9375 230.318 42.9375 230.297 42.9375C230.276 42.9375 230.255 42.9375 230.234 42.9375C229.714 42.9062 229.32 42.7578 229.055 42.4922C228.789 42.2266 228.669 41.8568 228.695 41.3828C228.727 40.8672 228.823 40.3802 228.984 39.9219C229.151 39.4635 229.383 39.0339 229.68 38.6328C229.935 38.2891 230.227 38 230.555 37.7656C230.888 37.526 231.258 37.3464 231.664 37.2266C232.07 37.1016 232.51 37.0312 232.984 37.0156H233.141V37.1719V38.6797V38.8203L233 38.8359C232.234 38.9245 231.638 39.1615 231.211 39.5469C230.784 39.9323 230.518 40.474 230.414 41.1719H231.367C232.034 41.1667 232.542 41.3333 232.891 41.6719C233.245 42.0052 233.419 42.4922 233.414 43.1328C233.414 43.8099 233.221 44.4193 232.836 44.9609C232.112 45.9818 230.984 46.625 229.453 46.8906C228.911 46.9896 228.318 47.0391 227.672 47.0391C225.068 47.0391 223.503 46.1016 222.977 44.2266C222.852 43.7682 222.789 43.2604 222.789 42.7031C222.789 41.5104 223.156 40.0859 223.891 38.4297L223.953 38.2891L224.094 38.3438L225.359 38.8516L225.516 38.9141L225.445 39.0625C224.815 40.4948 224.5 41.7005 224.5 42.6797C224.5 43.1172 224.562 43.4974 224.688 43.8203C224.818 44.1484 225.01 44.4193 225.266 44.6328C225.526 44.8516 225.852 45.0156 226.242 45.125C226.638 45.2344 227.104 45.2917 227.641 45.2969C227.797 45.2969 227.948 45.2943 228.094 45.2891C228.24 45.2839 228.383 45.2734 228.523 45.2578C228.664 45.2474 228.799 45.2318 228.93 45.2109C229.06 45.1953 229.185 45.1771 229.305 45.1562C230.19 44.9844 230.87 44.6536 231.344 44.1641C231.62 43.8828 231.76 43.5729 231.766 43.2344ZM235.336 31.5312H236.734H236.891V31.6875V42.8359V42.9922H236.734H235.336H235.18V42.8359V31.6875V31.5312H235.336ZM241.953 38.6484L242.477 40.3594C242.565 40.6458 242.716 40.8594 242.93 41C243.148 41.1406 243.443 41.2109 243.812 41.2109H244.031C244.078 41.2109 244.12 41.2214 244.156 41.2422C244.198 41.263 244.229 41.2969 244.25 41.3438C244.271 41.3854 244.286 41.4245 244.297 41.4609C244.312 41.4974 244.323 41.5521 244.328 41.625C244.333 41.6979 244.336 41.7552 244.336 41.7969C244.341 41.8333 244.344 41.8906 244.344 41.9688V42.1562C244.344 42.1615 244.344 42.1745 244.344 42.1953C244.344 42.3203 244.341 42.4167 244.336 42.4844C244.331 42.5521 244.32 42.6328 244.305 42.7266C244.289 42.8203 244.258 42.8906 244.211 42.9375C244.164 42.9792 244.104 43 244.031 43H243.898C243.336 43 242.917 42.9141 242.641 42.7422C242.464 44.013 241.906 45.0208 240.969 45.7656C240.036 46.5104 238.737 46.9948 237.07 47.2188L236.93 47.2344L236.898 47.1016L236.562 45.7734L236.523 45.6016L236.695 45.5781C238.148 45.3802 239.227 44.974 239.93 44.3594C240.638 43.7448 240.99 42.9193 240.984 41.8828C240.984 41.0755 240.758 40.1875 240.305 39.2188L240.227 39.0625L240.398 39.0078L241.758 38.5391L241.906 38.4922L241.953 38.6484ZM244.5 43H243.906C243.661 43 243.474 42.9245 243.344 42.7734C243.208 42.6224 243.141 42.4167 243.141 42.1562V42.0078C243.141 41.7578 243.208 41.5625 243.344 41.4219C243.479 41.2812 243.667 41.2109 243.906 41.2109H244.5C244.891 41.2109 245.219 41.1901 245.484 41.1484C245.755 41.1068 245.956 41.0521 246.086 40.9844C246.477 40.7552 246.672 40.3203 246.672 39.6797C246.672 39.4766 246.661 39.2682 246.641 39.0547C246.62 38.8359 246.589 38.6094 246.547 38.375C246.505 38.1406 246.453 37.8984 246.391 37.6484L246.352 37.5L246.508 37.4609L247.812 37.1406L247.953 37.1016L248 37.2422C248.255 38.0703 248.383 38.875 248.383 39.6562C248.383 40.8958 248.016 41.7891 247.281 42.3359C246.693 42.7786 245.766 43 244.5 43ZM244.859 45.4922L245.992 44.3594L246.055 44.2969L246.109 44.3594L247.258 45.5L247.312 45.5625L247.258 45.6172L246.117 46.7578L246.062 46.8125L246 46.7578L244.859 45.6094L244.797 45.5547L244.859 45.4922Z" fill="white"/>
        <path d="M118.508 95.75C118.508 95.4115 118.625 95.125 118.859 94.8906C119.099 94.651 119.385 94.5312 119.719 94.5312C120.052 94.5312 120.336 94.651 120.57 94.8906C120.81 95.125 120.93 95.4115 120.93 95.75C120.93 96.0833 120.81 96.3698 120.57 96.6094C120.336 96.8438 120.052 96.9609 119.719 96.9609C119.625 96.9609 119.531 96.9505 119.438 96.9297C119.349 96.9089 119.263 96.8776 119.18 96.8359C119.102 96.7943 119.026 96.7448 118.953 96.6875C118.875 96.6198 118.805 96.5469 118.742 96.4688C118.685 96.3854 118.638 96.2995 118.602 96.2109C118.539 96.0651 118.508 95.9115 118.508 95.75ZM125.266 96.9922C124.557 96.9922 123.802 96.9167 123 96.7656L122.875 96.7422V96.6094V95.1328V94.9375L123.062 94.9766C123.781 95.1276 124.529 95.2031 125.305 95.2031C126.945 95.2031 127.766 94.8932 127.766 94.2734C127.766 93.9505 127.531 93.2422 127.062 92.1484L126.031 89.7266L125.969 89.5859L126.109 89.5234L127.391 88.9297L127.539 88.8594L127.602 89.0156L129.195 92.9453C129.503 93.7057 129.802 94.2734 130.094 94.6484C130.391 95.0234 130.659 95.2109 130.898 95.2109H131.055C131.247 95.2109 131.349 95.3984 131.359 95.7734C131.365 95.8151 131.367 95.8932 131.367 96.0078V96.1562C131.367 96.3281 131.359 96.4661 131.344 96.5703C131.333 96.6276 131.323 96.6797 131.312 96.7266C131.302 96.7682 131.289 96.8073 131.273 96.8438L131.266 96.8516C131.214 96.9505 131.143 97 131.055 97H130.898C130.185 97 129.539 96.5781 128.961 95.7344C128.174 96.5729 126.943 96.9922 125.266 96.9922ZM133.32 99.4922L134.453 98.3594L134.516 98.2969L134.57 98.3594L135.719 99.5L135.773 99.5625L135.719 99.6172L134.578 100.758L134.523 100.812L134.461 100.758L133.32 99.6094L133.258 99.5547L133.32 99.4922ZM130.773 99.4922L131.914 98.3594L131.969 98.2969L132.031 98.3594L133.172 99.5L133.234 99.5625L133.172 99.6172L132.039 100.758L131.977 100.812L131.922 100.758L130.773 99.6094L130.719 99.5547L130.773 99.4922ZM136.984 96.1562C136.984 96.1667 136.984 96.1823 136.984 96.2031C136.984 96.3281 136.982 96.4245 136.977 96.4922C136.971 96.5599 136.961 96.6406 136.945 96.7344C136.93 96.8229 136.898 96.8906 136.852 96.9375C136.805 96.9792 136.745 97 136.672 97H136.594C135.599 97 134.883 96.6719 134.445 96.0156C133.883 96.6719 132.987 97 131.758 97H130.945C130.706 97 130.521 96.9245 130.391 96.7734C130.255 96.6224 130.188 96.4167 130.188 96.1562V96.0078C130.188 95.7578 130.255 95.5625 130.391 95.4219C130.521 95.2812 130.706 95.2109 130.945 95.2109H131.719C132.833 95.2109 133.448 94.9219 133.562 94.3438C133.573 94.2865 133.581 94.2266 133.586 94.1641C133.596 94.0964 133.602 94.026 133.602 93.9531C133.607 93.8802 133.609 93.8047 133.609 93.7266C133.609 93.5703 133.602 93.3802 133.586 93.1562L133.547 92.5156L133.531 92.3672L133.68 92.3516L134.969 92.1953L135.133 92.1797L135.141 92.3438L135.266 93.9922C135.302 94.4089 135.427 94.7161 135.641 94.9141C135.854 95.112 136.177 95.2109 136.609 95.2109H136.672C136.865 95.2109 136.966 95.3984 136.977 95.7734C136.982 95.8203 136.984 95.9219 136.984 96.0781V96.1562ZM142.117 87.4922L143.227 86.3828L143.289 86.3203L143.344 86.3828L144.469 87.5L144.523 87.5625L144.469 87.6172L143.352 88.7266L143.297 88.7891L143.234 88.7266L142.117 87.6094L142.062 87.5547L142.117 87.4922ZM143.406 89.5938L144.516 88.4766L144.578 88.4219L144.633 88.4766L145.758 89.6016L145.812 89.6562L145.758 89.7188L144.641 90.8281L144.586 90.8828L144.523 90.8281L143.406 89.7109L143.344 89.6484L143.406 89.5938ZM140.867 89.5938L141.977 88.4766L142.031 88.4219L142.094 88.4766L143.211 89.6016L143.273 89.6562L143.211 89.7188L142.102 90.8281L142.039 90.8828L141.984 90.8281L140.867 89.7109L140.805 89.6484L140.867 89.5938ZM145.562 96.9922C144.641 96.9922 143.995 96.6719 143.625 96.0312C143.083 96.6771 142.352 97 141.43 97C140.378 96.9948 139.659 96.6771 139.273 96.0469C138.789 96.6823 137.953 97 136.766 97H136.562C136.318 97 136.13 96.9245 136 96.7734C135.865 96.6224 135.797 96.4167 135.797 96.1562V96.0078C135.797 95.7578 135.865 95.5625 136 95.4219C136.135 95.2812 136.323 95.2109 136.562 95.2109H136.781C137.375 95.2109 137.81 95.1016 138.086 94.8828C138.362 94.6641 138.503 94.3307 138.508 93.8828C138.508 93.5964 138.5 93.3542 138.484 93.1562L138.438 92.6797L138.43 92.5312L138.578 92.5156L139.867 92.3594L140.023 92.3438L140.039 92.5078L140.164 94.1562C140.19 94.5156 140.305 94.7812 140.508 94.9531C140.716 95.125 141.029 95.2109 141.445 95.2109C141.758 95.2109 142.013 95.1667 142.211 95.0781C142.409 94.9896 142.555 94.8568 142.648 94.6797C142.742 94.4974 142.792 94.263 142.797 93.9766C142.797 93.8411 142.794 93.7188 142.789 93.6094C142.789 93.4948 142.786 93.3984 142.781 93.3203L142.734 92.6797L142.727 92.5312L142.875 92.5156L144.164 92.3594L144.328 92.3438L144.336 92.5078L144.461 94.1562C144.471 94.2448 144.484 94.3281 144.5 94.4062C144.516 94.4844 144.534 94.5573 144.555 94.625C144.581 94.6927 144.609 94.7552 144.641 94.8125C144.677 94.8646 144.716 94.9115 144.758 94.9531C144.805 94.9948 144.854 95.0312 144.906 95.0625C144.964 95.0938 145.023 95.1198 145.086 95.1406C145.154 95.1615 145.224 95.1771 145.297 95.1875C145.37 95.1979 145.448 95.2031 145.531 95.2031C145.755 95.2031 145.938 95.1589 146.078 95.0703C146.219 94.9818 146.326 94.8411 146.398 94.6484C146.471 94.4505 146.508 94.1953 146.508 93.8828C146.508 93.6224 146.479 93.3307 146.422 93.0078C146.365 92.6797 146.281 92.3203 146.172 91.9297L146.125 91.7812L146.281 91.7344L147.648 91.3828L147.789 91.3438L147.836 91.4844C147.924 91.7552 147.997 92.0234 148.055 92.2891C148.112 92.5547 148.154 92.8151 148.18 93.0703C148.211 93.3255 148.227 93.5781 148.227 93.8281C148.227 93.8385 148.227 93.8464 148.227 93.8516C148.227 93.8568 148.227 93.8646 148.227 93.875C148.221 94.4323 148.135 94.9271 147.969 95.3594C147.802 95.7865 147.555 96.1458 147.227 96.4375C147.013 96.625 146.766 96.7656 146.484 96.8594C146.208 96.9479 145.901 96.9922 145.562 96.9922ZM153.742 96.1562C153.784 96.7188 153.68 97 153.43 97H153.266C151.109 97 150.031 95.8073 150.031 93.4219V85.5312H151.75V93.4062C151.75 94.6094 152.263 95.2109 153.289 95.2109H153.43C153.607 95.2109 153.708 95.3984 153.734 95.7734C153.74 95.7786 153.742 95.8568 153.742 96.0078V96.1562ZM153.922 97H153.328C153.083 97 152.896 96.9245 152.766 96.7734C152.63 96.6224 152.562 96.4167 152.562 96.1562V96.0078C152.562 95.7578 152.63 95.5625 152.766 95.4219C152.901 95.2812 153.089 95.2109 153.328 95.2109H153.922C154.312 95.2109 154.641 95.1901 154.906 95.1484C155.177 95.1068 155.378 95.0521 155.508 94.9844C155.898 94.7552 156.094 94.3203 156.094 93.6797C156.094 93.4766 156.083 93.2682 156.062 93.0547C156.042 92.8359 156.01 92.6094 155.969 92.375C155.927 92.1406 155.875 91.8984 155.812 91.6484L155.773 91.5L155.93 91.4609L157.234 91.1406L157.375 91.1016L157.422 91.2422C157.677 92.0703 157.805 92.875 157.805 93.6562C157.805 94.8958 157.438 95.7891 156.703 96.3359C156.115 96.7786 155.188 97 153.922 97ZM154.281 99.4922L155.414 98.3594L155.477 98.2969L155.531 98.3594L156.68 99.5L156.734 99.5625L156.68 99.6172L155.539 100.758L155.484 100.812L155.422 100.758L154.281 99.6094L154.219 99.5547L154.281 99.4922ZM170.984 90.2031C172.146 90.2031 173.026 90.6406 173.625 91.5156C173.958 92 174.125 92.5573 174.125 93.1875C174.125 94.4635 173.602 95.4167 172.555 96.0469C171.513 96.6823 169.974 97 167.938 97H163.586H163.43V96.8438V95.3672V95.2109H163.586H165.234C165.281 95.1224 165.331 95.0365 165.383 94.9531C165.43 94.8698 165.479 94.7865 165.531 94.7031C165.583 94.6198 165.635 94.5339 165.688 94.4453V85.6797V85.5234H165.844H167.242H167.398V85.6797V92.1328C168.18 91.237 168.953 90.6615 169.719 90.4062C170.13 90.2708 170.552 90.2031 170.984 90.2031ZM167.984 95.2031C169.448 95.2031 170.565 95.0417 171.336 94.7188C172.039 94.3958 172.391 93.9349 172.391 93.3359C172.391 92.9401 172.253 92.6172 171.977 92.3672C171.716 92.1276 171.383 92.0078 170.977 92.0078C169.758 92.0078 168.453 93.0729 167.062 95.2031H167.984ZM179.617 96.1562C179.659 96.7188 179.555 97 179.305 97H179.141C176.984 97 175.906 95.8073 175.906 93.4219V85.5312H177.625V93.4062C177.625 94.6094 178.138 95.2109 179.164 95.2109H179.305C179.482 95.2109 179.583 95.3984 179.609 95.7734C179.615 95.7786 179.617 95.8568 179.617 96.0078V96.1562ZM185.234 96.1562C185.234 96.1667 185.234 96.1823 185.234 96.2031C185.234 96.3281 185.232 96.4245 185.227 96.4922C185.221 96.5599 185.211 96.6406 185.195 96.7344C185.18 96.8229 185.148 96.8906 185.102 96.9375C185.055 96.9792 184.995 97 184.922 97H184.844C183.849 97 183.133 96.6719 182.695 96.0156C182.133 96.6719 181.237 97 180.008 97H179.195C178.956 97 178.771 96.9245 178.641 96.7734C178.505 96.6224 178.438 96.4167 178.438 96.1562V96.0078C178.438 95.7578 178.505 95.5625 178.641 95.4219C178.771 95.2812 178.956 95.2109 179.195 95.2109H179.969C181.083 95.2109 181.698 94.9219 181.812 94.3438C181.823 94.2865 181.831 94.2266 181.836 94.1641C181.846 94.0964 181.852 94.026 181.852 93.9531C181.857 93.8802 181.859 93.8047 181.859 93.7266C181.859 93.5703 181.852 93.3802 181.836 93.1562L181.797 92.5156L181.781 92.3672L181.93 92.3516L183.219 92.1953L183.383 92.1797L183.391 92.3438L183.516 93.9922C183.552 94.4089 183.677 94.7161 183.891 94.9141C184.104 95.112 184.427 95.2109 184.859 95.2109H184.922C185.115 95.2109 185.216 95.3984 185.227 95.7734C185.232 95.8203 185.234 95.9219 185.234 96.0781V96.1562ZM180.461 99.4922L181.594 98.3594L181.656 98.2969L181.711 98.3594L182.859 99.5L182.914 99.5625L182.859 99.6172L181.719 100.758L181.664 100.812L181.602 100.758L180.461 99.6094L180.398 99.5547L180.461 99.4922ZM185.406 97H184.812C184.568 97 184.38 96.9245 184.25 96.7734C184.115 96.6224 184.047 96.4167 184.047 96.1562V96.0078C184.047 95.7578 184.115 95.5625 184.25 95.4219C184.385 95.2812 184.573 95.2109 184.812 95.2109H185.406C185.797 95.2109 186.125 95.1901 186.391 95.1484C186.661 95.1068 186.862 95.0521 186.992 94.9844C187.383 94.7552 187.578 94.3203 187.578 93.6797C187.578 93.4766 187.568 93.2682 187.547 93.0547C187.526 92.8359 187.495 92.6094 187.453 92.375C187.411 92.1406 187.359 91.8984 187.297 91.6484L187.258 91.5L187.414 91.4609L188.719 91.1406L188.859 91.1016L188.906 91.2422C189.161 92.0703 189.289 92.875 189.289 93.6562C189.289 94.8958 188.922 95.7891 188.188 96.3359C187.599 96.7786 186.672 97 185.406 97ZM187.305 88.6953L188.438 87.5625L188.5 87.5L188.555 87.5625L189.703 88.7031L189.758 88.7656L189.703 88.8203L188.562 89.9609L188.508 90.0156L188.445 89.9609L187.305 88.8125L187.242 88.7578L187.305 88.6953ZM184.758 88.6953L185.898 87.5625L185.953 87.5L186.016 87.5625L187.156 88.7031L187.219 88.7656L187.156 88.8203L186.023 89.9609L185.961 90.0156L185.906 89.9609L184.758 88.8125L184.703 88.7578L184.758 88.6953ZM194.156 92.625C194.406 93.1927 194.594 93.7422 194.719 94.2734C194.844 94.7995 194.906 95.3073 194.906 95.7969C194.906 97.349 194.432 98.5781 193.484 99.4844C192.536 100.391 191.133 100.969 189.273 101.219L189.133 101.234L189.102 101.102L188.766 99.7734L188.727 99.6016L188.898 99.5781C190.346 99.3802 191.422 98.974 192.125 98.3594C192.833 97.75 193.188 96.9271 193.188 95.8906C193.188 95.0729 192.964 94.1823 192.516 93.2188L192.438 93.0625L192.609 93.0078L193.969 92.5391L194.102 92.5L194.156 92.625ZM196.789 85.5312H198.188H198.344V85.6875V96.8359V96.9922H198.188H196.789H196.633V96.8359V85.6875V85.5312H196.789ZM208.906 92.625C209.156 93.1927 209.344 93.7422 209.469 94.2734C209.594 94.7995 209.656 95.3073 209.656 95.7969C209.656 97.349 209.182 98.5781 208.234 99.4844C207.286 100.391 205.883 100.969 204.023 101.219L203.883 101.234L203.852 101.102L203.516 99.7734L203.477 99.6016L203.648 99.5781C205.096 99.3802 206.172 98.974 206.875 98.3594C207.583 97.75 207.938 96.9271 207.938 95.8906C207.938 95.0729 207.714 94.1823 207.266 93.2188L207.188 93.0625L207.359 93.0078L208.719 92.5391L208.852 92.5L208.906 92.625ZM211.07 95.0078C211.69 95.138 212.307 95.2031 212.922 95.2031C214.745 95.2031 215.656 94.7969 215.656 93.9844C215.656 92.9531 214.599 91.7734 212.484 90.4453L212.352 90.3594L212.438 90.2266L213.227 89.0391L213.305 88.9141L213.438 88.9922C214.755 89.7839 215.747 90.5938 216.414 91.4219C217.086 92.25 217.422 93.0964 217.422 93.9609C217.422 94.9661 217.047 95.7214 216.297 96.2266C215.552 96.7266 214.461 96.9792 213.023 96.9844C212.247 96.9844 211.576 96.9219 211.008 96.7969L210.883 96.7656V96.6406V95.1641V94.9688L211.07 95.0078ZM227.273 96.1562C227.315 96.7188 227.211 97 226.961 97H226.797C224.641 97 223.562 95.8073 223.562 93.4219V85.5312H225.281V93.4062C225.281 94.6094 225.794 95.2109 226.82 95.2109H226.961C227.138 95.2109 227.24 95.3984 227.266 95.7734C227.271 95.7786 227.273 95.8568 227.273 96.0078V96.1562ZM231.844 95.4297C232.172 95.4297 232.409 95.3568 232.555 95.2109C232.706 95.0651 232.781 94.8333 232.781 94.5156C232.781 94.2031 232.732 93.9323 232.633 93.7031C232.414 93.1979 232.047 92.9453 231.531 92.9453C230.906 92.9453 230.414 93.4219 230.055 94.375C230.69 95.0781 231.286 95.4297 231.844 95.4297ZM229.211 95.9609C228.565 96.6536 227.833 97 227.016 97H226.852C226.612 97 226.427 96.9245 226.297 96.7734C226.161 96.6224 226.094 96.4167 226.094 96.1562V96.0078C226.094 95.7578 226.161 95.5625 226.297 95.4219C226.427 95.2812 226.612 95.2109 226.852 95.2109H226.977C227.357 95.2109 227.732 94.987 228.102 94.5391C228.273 94.3307 228.464 93.9896 228.672 93.5156C229.385 91.9375 230.328 91.1484 231.5 91.1484C231.953 91.1484 232.359 91.2318 232.719 91.3984C233.083 91.5651 233.396 91.8099 233.656 92.1328C234.172 92.7786 234.43 93.5339 234.43 94.3984C234.43 95.2682 234.245 95.9219 233.875 96.3594C233.641 96.6302 233.362 96.8333 233.039 96.9688C232.716 97.1042 232.354 97.1719 231.953 97.1719C230.948 97.1719 230.034 96.7682 229.211 95.9609ZM244.32 96.1562C244.362 96.7188 244.258 97 244.008 97H243.844C241.688 97 240.609 95.8073 240.609 93.4219V85.5312H242.328V93.4062C242.328 94.6094 242.841 95.2109 243.867 95.2109H244.008C244.185 95.2109 244.286 95.3984 244.312 95.7734C244.318 95.7786 244.32 95.8568 244.32 96.0078V96.1562ZM244.5 97H243.906C243.661 97 243.474 96.9245 243.344 96.7734C243.208 96.6224 243.141 96.4167 243.141 96.1562V96.0078C243.141 95.7578 243.208 95.5625 243.344 95.4219C243.479 95.2812 243.667 95.2109 243.906 95.2109H244.5C244.891 95.2109 245.219 95.1901 245.484 95.1484C245.755 95.1068 245.956 95.0521 246.086 94.9844C246.477 94.7552 246.672 94.3203 246.672 93.6797C246.672 93.4766 246.661 93.2682 246.641 93.0547C246.62 92.8359 246.589 92.6094 246.547 92.375C246.505 92.1406 246.453 91.8984 246.391 91.6484L246.352 91.5L246.508 91.4609L247.812 91.1406L247.953 91.1016L248 91.2422C248.255 92.0703 248.383 92.875 248.383 93.6562C248.383 94.8958 248.016 95.7891 247.281 96.3359C246.693 96.7786 245.766 97 244.5 97ZM244.859 99.4922L245.992 98.3594L246.055 98.2969L246.109 98.3594L247.258 99.5L247.312 99.5625L247.258 99.6172L246.117 100.758L246.062 100.812L246 100.758L244.859 99.6094L244.797 99.5547L244.859 99.4922Z" fill="white"/>
        <path opacity="0.096" d="M257.632 146.316H238.684C237.376 146.316 236.316 147.376 236.316 148.684V167.632C236.316 168.94 237.376 170 238.684 170H257.632C258.94 170 260 168.94 260 167.632V148.684C260 147.376 258.94 146.316 257.632 146.316Z" fill="white"/>
        <path opacity="0.197" d="M245.789 125H217.368C216.06 125 215 126.06 215 127.368V155.789C215 157.098 216.06 158.158 217.368 158.158H245.789C247.098 158.158 248.158 157.098 248.158 155.789V127.368C248.158 126.06 247.098 125 245.789 125Z" fill="white"/>
        <path opacity="0.1" d="M-53.6812 56.4927H40.4632C41.7439 56.4927 42.782 57.5218 42.782 58.7913V86.835C42.782 88.1046 41.7439 89.1337 40.4632 89.1337H-53.6812C-54.9618 89.1337 -56 88.1046 -56 86.835V58.7913C-56 57.5218 -54.9618 56.4927 -53.6812 56.4927Z" fill="white"/>
        <path opacity="0.098" d="M-16.3323 29H74.7472C76.5437 29 78 30.4563 78 32.2528V71.9375C78 73.7339 76.5437 75.1903 74.7472 75.1903H-16.3323C-18.1288 75.1903 -19.5851 73.7339 -19.5851 71.9375V32.2528C-19.5851 30.4563 -18.1288 29 -16.3323 29Z" fill="white"/>
    </g>
    <defs>
        <clipPath id="clip0">
            <rect width="274" height="260" fill="white"/>
        </clipPath>
    </defs>
</svg>
