<svg xmlns="http://www.w3.org/2000/svg" width="23.599" height="29.75" viewBox="0 0 23.599 29.75"><defs><style>.a,.b,.c,.d,.f{fill:none;}.a,.b,.c,.d{stroke:#545757;stroke-miterlimit:10;}.a,.d{stroke-linejoin:round;}.a,.b,.c{stroke-width:2px;}.c,.d{stroke-linecap:round;}.d{stroke-width:1.5px;}.e{stroke:none;}</style></defs><g transform="translate(1 0.75)"><g class="a" transform="translate(4 15)"><path class="e" d="M1,0H11a1,1,0,0,1,1,1V12a0,0,0,0,1,0,0H0a0,0,0,0,1,0,0V1A1,1,0,0,1,1,0Z"/><path class="f" d="M1-1H11a2,2,0,0,1,2,2V12a1,1,0,0,1-1,1H0a1,1,0,0,1-1-1V1A2,2,0,0,1,1-1Z"/></g><path class="b" d="M.07,6.8A3.48,3.48,0,1,0,0,.187" transform="translate(17 17)"/><path class="c" d="M0,.5H20" transform="translate(0 27.5)"/><path class="d" d="M4.32,10.44V9.046a1,1,0,0,1,1-1h4.1a1,1,0,0,0,1-1V5.9a1,1,0,0,0-1-1H1a1,1,0,0,1-1-1V2.865a1,1,0,0,1,1-1H3.514a1,1,0,0,0,1-1V0" transform="translate(5.789 0)"/></g></svg>