<svg width="39" height="39" viewBox="0 0 39 39" fill="none" xmlns="http://www.w3.org/2000/svg">
    <path fill-rule="evenodd" clip-rule="evenodd" d="M14 14.927H24C25.1046 14.927 26 15.8224 26 16.927V27.927C26 28.4793 25.5523 28.927 25 28.927H13C12.4477 28.927 12 28.4793 12 27.927V16.927C12 15.8224 12.8954 14.927 14 14.927Z" stroke="#545757" stroke-width="2" stroke-linejoin="round"/>
    <path d="M26.07 24.7982C27.5097 25.2536 29.0788 24.7286 29.9545 23.4984C30.8302 22.2683 30.8127 20.6138 29.9111 19.4025C29.0096 18.1912 27.4297 17.6995 26 18.1852" stroke="#545757" stroke-width="2"/>
    <path d="M9 28.927H29" stroke="#545757" stroke-width="2" stroke-linecap="round"/>
    <path d="M19.1091 11.367V10.25C19.1701 9.75619 19.6139 9.4012 20.1091 9.45H24.2091C24.7042 9.4988 25.148 9.14381 25.2091 8.65V7.73C25.148 7.23619 24.7042 6.8812 24.2091 6.93H15.7891C15.2939 6.9788 14.8501 6.62381 14.7891 6.13V5.3C14.8501 4.80619 15.2939 4.4512 15.7891 4.5H18.3031C18.7982 4.5488 19.242 4.19381 19.3031 3.7V3" stroke="#545757" stroke-width="1.5" stroke-linecap="round" stroke-linejoin="round"/>
</svg>
