<svg width="300" height="182" viewBox="0 0 300 182" fill="none" xmlns="http://www.w3.org/2000/svg">
    <g clip-path="url(#clip0)">
        <path d="M267.055 169.828C267.055 168.312 268.432 167.133 271.188 166.289L271.117 165.93L272.391 165.672L273.031 170.258C273.151 171.102 273.635 171.523 274.484 171.523H274.641C274.745 171.523 274.797 171.724 274.797 172.125V172.312C274.797 172.771 274.745 173 274.641 173H274.453C273.026 173 272.185 172.409 271.93 171.227C271.305 171.773 270.578 172.047 269.75 172.047C268.589 172.047 267.779 171.667 267.32 170.906C267.143 170.609 267.055 170.25 267.055 169.828ZM271.352 167.594C269.414 168.292 268.445 169.005 268.445 169.734C268.445 170.37 268.865 170.688 269.703 170.688C270.156 170.688 270.583 170.565 270.984 170.32C271.484 170.013 271.682 169.518 271.578 168.836L271.414 167.797L271.375 167.578L271.352 167.594ZM280.141 163.711L281.25 162.594L282.367 163.719L281.258 164.828L280.141 163.711ZM281.422 165.805L282.539 164.695L283.656 165.812L282.547 166.922L281.422 165.805ZM278.891 165.805L279.992 164.695L281.117 165.812L280 166.922L278.891 165.805ZM283.547 173C282.62 173 281.977 172.633 281.617 171.898C281.096 172.633 280.354 173 279.391 173C278.276 173 277.562 172.633 277.25 171.898C276.833 172.633 275.992 173 274.727 173H274.523C274.117 173 273.914 172.771 273.914 172.312V172.164C273.914 171.737 274.117 171.523 274.523 171.523H274.742C275.987 171.523 276.615 171.029 276.625 170.039C276.625 169.747 276.617 169.5 276.602 169.297L276.555 168.828L277.844 168.672L277.969 170.32C278.031 171.122 278.51 171.523 279.406 171.523C280.401 171.523 280.904 171.06 280.914 170.133C280.914 169.852 280.909 169.628 280.898 169.461L280.852 168.828L282.141 168.672L282.266 170.32C282.328 171.117 282.742 171.516 283.508 171.516C284.294 171.516 284.682 171 284.672 169.969C284.672 169.734 284.659 169.484 284.633 169.219L284.594 168.742L285.883 168.508L286.008 169.836C286.112 170.961 286.594 171.523 287.453 171.523H287.594C287.698 171.523 287.75 171.737 287.75 172.164V172.312C287.75 172.771 287.698 173 287.594 173H287.469C286.427 173 285.779 172.628 285.523 171.883C285.148 172.628 284.49 173 283.547 173ZM288.07 173H287.477C287.07 173 286.867 172.771 286.867 172.312V172.164C286.867 171.737 287.07 171.523 287.477 171.523H288.07C288.883 171.523 289.438 171.44 289.734 171.273C290.177 171.013 290.398 170.534 290.398 169.836C290.398 169.216 290.302 168.526 290.109 167.766L291.414 167.445C291.669 168.258 291.797 169.047 291.797 169.812C291.797 171 291.453 171.852 290.766 172.367C290.198 172.789 289.299 173 288.07 173ZM289.898 175.555L291.039 174.414L292.18 175.562L291.047 176.695L289.898 175.555ZM287.359 175.555L288.492 174.414L289.641 175.562L288.5 176.695L287.359 175.555ZM298.328 168.844C298.818 169.958 299.062 170.995 299.062 171.953C299.062 174.974 297.229 176.729 293.562 177.219L293.234 175.891C296.182 175.49 297.656 174.208 297.656 172.047C297.656 171.208 297.427 170.297 296.969 169.312L298.328 168.844Z" fill="#BEBEBE"/>
        <path d="M283.116 152.116C264.879 115.006 212.601 32.1162 125.616 32.1162C38.6313 32.1162 -15.7289 115.654 -31.8838 152.116" stroke="#9E9E9E" stroke-width="1.5"/>
        <path fill-rule="evenodd" clip-rule="evenodd" d="M128.82 26.8839V37.5506L120.82 32.2172L128.82 26.8839Z" fill="#9E9E9E"/>
        <path d="M194.102 172.312C194.107 172.771 194.055 173 193.945 173H193.781C191.729 173 190.703 171.859 190.703 169.578V161.531H192.109V169.562C192.109 170.87 192.674 171.523 193.805 171.523H193.945C194.049 171.523 194.102 171.737 194.102 172.164V172.312ZM194.641 173H193.844C193.438 173 193.234 172.771 193.234 172.312V172.164C193.234 171.737 193.438 171.523 193.844 171.523H195.914H196.305C196.076 171.362 195.898 171.211 195.773 171.07C195.357 170.586 195.151 170.031 195.156 169.406C195.156 168.781 195.385 168.206 195.844 167.68C196.385 167.049 197.078 166.734 197.922 166.734C198.729 166.734 199.422 167.008 200 167.555C200.453 167.977 200.682 168.477 200.688 169.055C200.688 170.039 200.224 170.815 199.297 171.383C200.135 171.503 200.729 171.562 201.078 171.562C201.432 171.562 201.706 171.526 201.898 171.453C202.367 171.271 202.602 170.859 202.602 170.219C202.602 169.703 202.339 169.148 201.812 168.555C200.859 167.466 199.635 166.622 198.141 166.023L198.836 164.75C202.305 166.651 204.026 168.477 204 170.227C203.99 170.997 203.755 171.635 203.297 172.141C202.786 172.708 201.969 172.992 200.844 172.992C200.083 172.997 199.112 172.812 197.93 172.438C196.664 172.812 195.568 173 194.641 173ZM198.75 170.406C199.167 170.026 199.372 169.609 199.367 169.156C199.362 168.901 199.266 168.669 199.078 168.461C198.797 168.154 198.435 168 197.992 168C197.471 168 197.07 168.227 196.789 168.68C196.648 168.898 196.576 169.151 196.57 169.438C196.57 169.854 196.737 170.211 197.07 170.508C197.216 170.638 197.375 170.742 197.547 170.82C197.672 170.883 197.802 170.93 197.938 170.961C198.016 170.93 198.094 170.891 198.172 170.844C198.354 170.729 198.547 170.583 198.75 170.406ZM223.508 160.344L217.227 162.906V161.906L223.508 159.336V160.344ZM215.898 173C211.93 173 209.945 171.734 209.945 169.203C209.945 168.5 210.089 167.831 210.375 167.195L211.633 167.734C211.461 168.177 211.375 168.602 211.375 169.008C211.385 170.685 212.893 171.523 215.898 171.523H217.32C219.576 171.523 220.706 171.039 220.711 170.07C220.711 169.56 220.44 169.052 219.898 168.547C219.07 167.776 218.359 167.159 217.766 166.695C217.172 166.232 216.875 165.719 216.875 165.156C216.875 164.828 216.971 164.536 217.164 164.281C217.362 164.026 217.63 163.831 217.969 163.695L223.539 161.484V163.008L218.164 165.109L218.125 165.117C219.49 166.258 220.487 167.167 221.117 167.844C221.534 168.297 221.87 168.883 222.125 169.602C222.583 170.883 223.333 171.523 224.375 171.523H224.5C224.604 171.523 224.656 171.737 224.656 172.164V172.312C224.656 172.771 224.604 173 224.5 173H224.375C223.297 173 222.414 172.539 221.727 171.617C221.133 172.539 219.664 173 217.32 173H215.898ZM224.977 173H224.383C223.977 173 223.773 172.771 223.773 172.312V172.164C223.773 171.737 223.977 171.523 224.383 171.523H224.977C225.789 171.523 226.344 171.44 226.641 171.273C227.083 171.013 227.305 170.534 227.305 169.836C227.305 169.216 227.208 168.526 227.016 167.766L228.32 167.445C228.576 168.258 228.703 169.047 228.703 169.812C228.703 171 228.359 171.852 227.672 172.367C227.104 172.789 226.206 173 224.977 173ZM225.836 164.984L226.977 163.844L228.117 164.992L226.984 166.125L225.836 164.984ZM233.094 168.844C233.583 169.958 233.828 170.995 233.828 171.953C233.828 174.974 231.995 176.729 228.328 177.219L228 175.891C230.948 175.49 232.422 174.208 232.422 172.047C232.422 171.208 232.193 170.297 231.734 169.312L233.094 168.844ZM230.797 165.844L231.969 164.672L233.156 165.852L231.977 167.031L230.797 165.844Z" fill="#303030"/>
        <path d="M95.6348 13.2246C95.6348 11.8984 96.8402 10.8662 99.251 10.1279L99.1895 9.81348L100.304 9.58789L100.864 13.6006C100.969 14.3389 101.393 14.708 102.136 14.708H102.272C102.364 14.708 102.409 14.8835 102.409 15.2344V15.3984C102.409 15.7995 102.364 16 102.272 16H102.108C100.86 16 100.124 15.4827 99.9004 14.4482C99.3535 14.9268 98.7178 15.166 97.9932 15.166C96.9769 15.166 96.2682 14.8333 95.8672 14.168C95.7122 13.9082 95.6348 13.5938 95.6348 13.2246ZM99.3945 11.2695C97.6992 11.8802 96.8516 12.5046 96.8516 13.1426C96.8516 13.6986 97.2184 13.9766 97.9521 13.9766C98.3486 13.9766 98.7223 13.8695 99.0732 13.6553C99.5107 13.3864 99.6839 12.9535 99.5928 12.3564L99.4492 11.4473L99.415 11.2559L99.3945 11.2695ZM102.519 16H102.177C101.821 16 101.644 15.7995 101.644 15.3984V15.2686C101.644 14.8949 101.821 14.708 102.177 14.708H102.532C103.744 14.708 104.351 14.2386 104.351 13.2998V5.96484H105.574V13.2998C105.574 14.2386 106.089 14.708 107.119 14.708H107.235C107.345 14.708 107.399 14.8949 107.399 15.2686V15.3984C107.399 15.7995 107.345 16 107.235 16H107.133C106.107 16 105.365 15.6764 104.904 15.0293C104.462 15.6764 103.667 16 102.519 16ZM111.521 14.8994C112.182 14.904 112.506 14.5872 112.492 13.9492C112.488 13.6849 112.435 13.4342 112.335 13.1973C112.116 12.7051 111.747 12.4567 111.228 12.4521C110.612 12.443 110.136 12.9147 109.799 13.8672C110.387 14.5508 110.961 14.8949 111.521 14.8994ZM111.597 16.1504C110.758 16.1504 109.961 15.7744 109.204 15.0225C108.644 15.6742 108.006 16 107.29 16H107.146C106.796 16 106.62 15.7995 106.62 15.3984V15.2686C106.62 14.8949 106.796 14.708 107.146 14.708H107.256C107.68 14.708 108.047 14.4961 108.356 14.0723C108.521 13.8444 108.691 13.5322 108.869 13.1357C109.462 11.8187 110.243 11.1579 111.214 11.1533C111.952 11.1533 112.535 11.4245 112.964 11.9668C113.269 12.3587 113.483 12.8464 113.606 13.4297C113.789 14.2819 114.149 14.708 114.687 14.708H114.789C114.88 14.708 114.926 14.8949 114.926 15.2686V15.3984C114.926 15.7995 114.88 16 114.789 16H114.68C114.151 16 113.723 15.7448 113.395 15.2344C113.003 15.8451 112.403 16.1504 111.597 16.1504ZM118.781 18.2354L119.779 17.2373L120.777 18.2422L119.786 19.2334L118.781 18.2354ZM114.68 16C114.324 16 114.146 15.7995 114.146 15.3984V15.2686C114.146 14.8949 114.324 14.708 114.68 14.708H115.09C116.639 14.708 118.499 14.1475 120.668 13.0264L121.174 12.7666C121.055 12.7347 120.563 12.5433 119.697 12.1924C118.804 11.8324 118.196 11.6523 117.872 11.6523C117.357 11.6523 116.933 11.8665 116.601 12.2949L116.409 12.541L115.356 12.0215L115.466 11.8301C116.058 10.8594 116.863 10.3717 117.879 10.3672C118.458 10.3672 119.15 10.5632 119.957 10.9551C121.379 11.6478 122.479 12.0101 123.259 12.042L123.245 13.2725C122.721 13.318 121.755 13.7122 120.347 14.4551C118.392 15.485 116.612 16 115.008 16H114.68ZM128.461 13.2246C128.461 11.8984 129.666 10.8662 132.077 10.1279L132.016 9.81348L133.13 9.58789L133.69 13.6006C133.795 14.3389 134.219 14.708 134.962 14.708H135.099C135.19 14.708 135.235 14.8835 135.235 15.2344V15.3984C135.235 15.7995 135.19 16 135.099 16H134.935C133.686 16 132.95 15.4827 132.727 14.4482C132.18 14.9268 131.544 15.166 130.819 15.166C129.803 15.166 129.094 14.8333 128.693 14.168C128.538 13.9082 128.461 13.5938 128.461 13.2246ZM132.221 11.2695C130.525 11.8802 129.678 12.5046 129.678 13.1426C129.678 13.6986 130.045 13.9766 130.778 13.9766C131.175 13.9766 131.549 13.8695 131.899 13.6553C132.337 13.3864 132.51 12.9535 132.419 12.3564L132.275 11.4473L132.241 11.2559L132.221 11.2695ZM139.911 7.87207L140.882 6.89453L141.859 7.87891L140.889 8.84961L139.911 7.87207ZM141.032 9.7041L142.01 8.7334L142.987 9.71094L142.017 10.6816L141.032 9.7041ZM138.817 9.7041L139.781 8.7334L140.766 9.71094L139.788 10.6816L138.817 9.7041ZM142.892 16C142.08 16 141.518 15.6787 141.203 15.0361C140.747 15.6787 140.098 16 139.255 16C138.28 16 137.655 15.6787 137.382 15.0361C137.017 15.6787 136.281 16 135.174 16H134.996C134.641 16 134.463 15.7995 134.463 15.3984V15.2686C134.463 14.8949 134.641 14.708 134.996 14.708H135.188C136.277 14.708 136.826 14.2751 136.835 13.4092C136.835 13.154 136.828 12.9375 136.814 12.7598L136.773 12.3496L137.901 12.2129L138.011 13.6553C138.065 14.3571 138.485 14.708 139.269 14.708C140.139 14.708 140.579 14.3024 140.588 13.4912C140.588 13.2451 140.583 13.0492 140.574 12.9033L140.533 12.3496L141.661 12.2129L141.771 13.6553C141.825 14.3525 142.188 14.7012 142.857 14.7012C143.546 14.7012 143.885 14.25 143.876 13.3477C143.876 13.1426 143.865 12.9238 143.842 12.6914L143.808 12.2744L144.936 12.0693L145.045 13.2314C145.136 14.2158 145.558 14.708 146.31 14.708H146.433C146.524 14.708 146.569 14.8949 146.569 15.2686V15.3984C146.569 15.7995 146.524 16 146.433 16H146.323C145.412 16 144.844 15.6742 144.621 15.0225C144.293 15.6742 143.716 16 142.892 16ZM146.85 16H146.33C145.975 16 145.797 15.7995 145.797 15.3984V15.2686C145.797 14.8949 145.975 14.708 146.33 14.708H146.85C147.561 14.708 148.046 14.6351 148.306 14.4893C148.693 14.2614 148.887 13.8421 148.887 13.2314C148.887 12.6891 148.802 12.0853 148.634 11.4199L149.775 11.1396C149.999 11.8506 150.11 12.541 150.11 13.2109C150.11 14.25 149.81 14.9951 149.208 15.4463C148.711 15.8154 147.925 16 146.85 16ZM148.449 18.2354L149.447 17.2373L150.445 18.2422L149.454 19.2334L148.449 18.2354ZM146.228 18.2354L147.219 17.2373L148.224 18.2422L147.226 19.2334L146.228 18.2354ZM155.825 12.3633C156.254 13.3385 156.468 14.2454 156.468 15.084C156.468 17.7272 154.864 19.263 151.655 19.6914L151.368 18.5293C153.948 18.1784 155.237 17.0573 155.237 15.166C155.237 14.4323 155.037 13.6348 154.636 12.7734L155.825 12.3633Z" fill="#9E9E9E"/>
        <path d="M84.1631 62.3164L84.1768 52.9717H85.3936L85.3867 60.2725C85.3867 61.2295 85.9062 61.708 86.9453 61.708H87.082C87.1732 61.708 87.2188 61.8835 87.2188 62.2344V62.3984C87.2188 62.7995 87.1732 63 87.082 63H86.9111C86.2048 63 85.6807 62.8291 85.3389 62.4873C85.3343 62.5921 85.3298 62.6969 85.3252 62.8018C85.1976 65.3356 83.8372 66.6025 81.2441 66.6025C78.6009 66.6025 77.2839 65.3174 77.293 62.7471C77.293 62.2731 77.3385 61.8083 77.4297 61.3525C77.5299 60.8786 77.6735 60.4115 77.8604 59.9512L78.9746 60.3955C78.6693 61.1702 78.5166 61.9518 78.5166 62.7402C78.5166 64.4766 79.4281 65.3447 81.251 65.3447C83.1878 65.3447 84.1585 64.3353 84.1631 62.3164ZM92.9268 59.0078C92.3571 58.5384 91.7965 58.3037 91.2451 58.3037C90.9535 58.2992 90.6914 58.3402 90.459 58.4268C90.2266 58.5088 90.026 58.6318 89.8574 58.7959C89.6979 58.9554 89.5771 59.1331 89.4951 59.3291C89.4131 59.5251 89.3721 59.7415 89.3721 59.9785C89.3721 60.5801 89.7275 61.0495 90.4385 61.3867C90.5387 61.4368 90.598 61.4596 90.6162 61.4551L93.5967 60.7305V61.9883C91.4274 62.6628 89.4313 63 87.6084 63H86.9795C86.624 63 86.4463 62.7995 86.4463 62.3984V62.2686C86.4463 61.8949 86.624 61.708 86.9795 61.708H88.8457H88.8936L88.8662 61.6738C88.8343 61.6374 88.8047 61.6032 88.7773 61.5713C88.75 61.5394 88.7227 61.5075 88.6953 61.4756C88.6725 61.4437 88.6497 61.4118 88.627 61.3799C88.6042 61.3434 88.5814 61.3092 88.5586 61.2773C88.3034 60.8809 88.1781 60.4251 88.1826 59.9102C88.1872 59.1628 88.39 58.5361 88.791 58.0303C89.0052 57.7614 89.2741 57.5404 89.5977 57.3672C90.0169 57.1393 90.5091 57.0277 91.0742 57.0322C92.0085 57.0368 92.7786 57.3535 93.3848 57.9824L92.9268 59.0078ZM98.416 62.3984C98.4206 62.7995 98.375 63 98.2793 63H98.1357C96.3402 63 95.4424 62.002 95.4424 60.0059V52.9648H96.6729V59.9922C96.6729 61.1361 97.1673 61.708 98.1562 61.708H98.2793C98.3704 61.708 98.416 61.8949 98.416 62.2686V62.3984ZM101.007 60.5938C99.6624 60.5938 98.9811 59.9762 98.9629 58.7412C98.9629 58.5452 98.9811 58.3561 99.0176 58.1738C99.1543 57.4538 99.4163 56.875 99.8037 56.4375C100.191 56 100.69 55.7812 101.301 55.7812C101.67 55.7812 101.998 55.8747 102.285 56.0615C103.083 56.5719 103.566 57.57 103.734 59.0557C103.766 59.3519 103.782 59.6322 103.782 59.8965C103.782 61.0632 103.452 61.8926 102.791 62.3848C102.244 62.7949 101.283 63 99.9062 63H98.1836C97.8281 63 97.6504 62.7995 97.6504 62.3984V62.2686C97.6504 61.8949 97.8281 61.708 98.1836 61.708H99.9814C101.718 61.708 102.606 61.291 102.647 60.457C102.647 60.416 102.645 60.375 102.641 60.334C102.071 60.5072 101.526 60.5938 101.007 60.5938ZM100.091 58.5566C100.091 59.0762 100.449 59.3359 101.164 59.3359C101.529 59.3359 101.984 59.2539 102.531 59.0898C102.467 58.5612 102.351 58.1146 102.183 57.75C101.959 57.2578 101.649 57.0117 101.253 57.0117C100.747 57.0117 100.387 57.3626 100.173 58.0645C100.118 58.2376 100.091 58.4017 100.091 58.5566ZM100.098 53.71L101.096 52.7119L102.094 53.7168L101.103 54.708L100.098 53.71Z" fill="#FF4B4B"/>
        <path d="M44.7598 98.9932C44.1491 98.9932 43.4974 98.9271 42.8047 98.7949V97.5029C43.4427 97.6351 44.1058 97.7012 44.7939 97.7012C46.3206 97.7012 47.084 97.3844 47.084 96.751C47.084 96.4502 46.8766 95.8145 46.4619 94.8438L45.5527 92.7178L46.6807 92.1982L48.0752 95.6367C48.6312 97.0176 49.1689 97.708 49.6885 97.708H49.8252C49.9163 97.708 49.9619 97.8949 49.9619 98.2686V98.3984C49.9619 98.5397 49.9551 98.6536 49.9414 98.7402C49.9277 98.8314 49.9118 98.8975 49.8936 98.9385C49.8708 98.9795 49.848 99 49.8252 99H49.6885C49.0732 99 48.5127 98.6012 48.0068 97.8037C47.3597 98.5967 46.2773 98.9932 44.7598 98.9932ZM51.8486 101.235L52.8467 100.237L53.8447 101.242L52.8535 102.233L51.8486 101.235ZM49.627 101.235L50.6182 100.237L51.623 101.242L50.625 102.233L49.627 101.235ZM54.8701 98.3984C54.8701 98.7995 54.8245 99 54.7334 99H54.665C53.7627 99 53.1406 98.6787 52.7988 98.0361C52.3477 98.6787 51.5592 99 50.4336 99H49.7227C49.3717 99 49.1963 98.7995 49.1963 98.3984V98.2686C49.1963 97.8949 49.3717 97.708 49.7227 97.708H50.3994C51.4521 97.708 52.0355 97.4186 52.1494 96.8398C52.1768 96.6803 52.1904 96.4912 52.1904 96.2725C52.1904 96.1357 52.1836 95.9648 52.1699 95.7598L52.1357 95.2061L53.2568 95.0693L53.3662 96.5117C53.43 97.3092 53.8675 97.708 54.6787 97.708H54.7334C54.8245 97.708 54.8701 97.9154 54.8701 98.3301V98.3984ZM57.4609 96.5938C56.1165 96.5938 55.4352 95.9762 55.417 94.7412C55.417 94.5452 55.4352 94.3561 55.4717 94.1738C55.6084 93.4538 55.8704 92.875 56.2578 92.4375C56.6452 92 57.1442 91.7812 57.7549 91.7812C58.124 91.7812 58.4521 91.8747 58.7393 92.0615C59.5368 92.5719 60.0199 93.57 60.1885 95.0557C60.2204 95.3519 60.2363 95.6322 60.2363 95.8965C60.2363 97.0632 59.9059 97.8926 59.2451 98.3848C58.6982 98.7949 57.7367 99 56.3604 99H54.6377C54.2822 99 54.1045 98.7995 54.1045 98.3984V98.2686C54.1045 97.8949 54.2822 97.708 54.6377 97.708H56.4355C58.1719 97.708 59.0605 97.291 59.1016 96.457C59.1016 96.416 59.0993 96.375 59.0947 96.334C58.5251 96.5072 57.9805 96.5938 57.4609 96.5938ZM56.5449 94.5566C56.5449 95.0762 56.9027 95.3359 57.6182 95.3359C57.9827 95.3359 58.4385 95.2539 58.9854 95.0898C58.9215 94.5612 58.8053 94.1146 58.6367 93.75C58.4134 93.2578 58.1035 93.0117 57.707 93.0117C57.2012 93.0117 56.8411 93.3626 56.627 94.0645C56.5723 94.2376 56.5449 94.4017 56.5449 94.5566ZM57.6797 89.7305L58.6777 88.7324L59.6758 89.7373L58.6846 90.7285L57.6797 89.7305ZM55.458 89.7305L56.4492 88.7324L57.4541 89.7373L56.4561 90.7285L55.458 89.7305Z" fill="#2FAAE0"/>
        <path d="M218.616 151.616C204.142 128.422 162.652 76.6162 93.6162 76.6162C24.5806 76.6162 -18.5624 128.827 -31.3838 151.616" stroke="#FF4B4B" stroke-width="1.5"/>
        <path fill-rule="evenodd" clip-rule="evenodd" d="M87.3203 71.3839V82.0506L95.3203 76.7172L87.3203 71.3839Z" fill="#FF4B4B"/>
        <path d="M141.852 173.398C141.852 173.096 141.648 172.945 141.242 172.945L140.352 172.938C139.253 172.932 138.729 172.469 138.781 171.547C138.844 170.547 139.161 169.659 139.734 168.883C140.469 167.883 141.529 167.365 142.914 167.328V168.836C141.284 169.023 140.37 169.88 140.172 171.406L140.164 171.484H141.297C142.562 171.479 143.193 172.081 143.188 173.289C143.188 173.935 143.005 174.513 142.641 175.023C141.938 176.013 140.844 176.638 139.359 176.898C138.823 176.992 138.237 177.039 137.602 177.039C134.451 177.039 132.875 175.646 132.875 172.859C132.875 171.688 133.237 170.284 133.961 168.648L135.234 169.156C134.594 170.609 134.273 171.836 134.273 172.836C134.273 174.674 135.372 175.599 137.57 175.609C138.201 175.609 138.766 175.56 139.266 175.461C140.182 175.284 140.888 174.94 141.383 174.43C141.69 174.117 141.846 173.773 141.852 173.398ZM145.266 161.531H146.664V172.992H145.266V161.531ZM151.734 168.844L152.258 170.555C152.456 171.201 152.951 171.523 153.742 171.523H153.961C154.065 171.523 154.117 171.724 154.117 172.125V172.312C154.117 172.771 154.065 173 153.961 173H153.828C153.115 173 152.654 172.862 152.445 172.586C152.211 175.221 150.388 176.766 146.977 177.219L146.648 175.891C149.602 175.49 151.076 174.206 151.07 172.039C151.07 171.211 150.839 170.302 150.375 169.312L151.734 168.844ZM154.422 173H153.828C153.422 173 153.219 172.771 153.219 172.312V172.164C153.219 171.737 153.422 171.523 153.828 171.523H154.422C155.234 171.523 155.789 171.44 156.086 171.273C156.529 171.013 156.75 170.534 156.75 169.836C156.75 169.216 156.654 168.526 156.461 167.766L157.766 167.445C158.021 168.258 158.148 169.047 158.148 169.812C158.148 171 157.805 171.852 157.117 172.367C156.549 172.789 155.651 173 154.422 173ZM154.836 175.555L155.977 174.414L157.117 175.562L155.984 176.695L154.836 175.555Z" fill="#303030"/>
        <path d="M145.116 152.116C134.637 139.746 104.598 112.116 54.6162 112.116C4.6344 112.116 -26.6011 139.962 -35.8838 152.116" stroke="#2FAAE0" stroke-width="1.5"/>
        <path fill-rule="evenodd" clip-rule="evenodd" d="M48.8203 106.884V117.551L56.8203 112.217L48.8203 106.884Z" fill="#2FAAE0"/>
        <path d="M85.2656 169.828C85.2656 168.312 86.6432 167.133 89.3984 166.289L89.3281 165.93L90.6016 165.672L91.2422 170.258C91.362 171.102 91.8464 171.523 92.6953 171.523H92.8516C92.9557 171.523 93.0078 171.724 93.0078 172.125V172.312C93.0078 172.771 92.9557 173 92.8516 173H92.6641C91.237 173 90.3958 172.409 90.1406 171.227C89.5156 171.773 88.7891 172.047 87.9609 172.047C86.7995 172.047 85.9896 171.667 85.5312 170.906C85.3542 170.609 85.2656 170.25 85.2656 169.828ZM89.5625 167.594C87.625 168.292 86.6562 169.005 86.6562 169.734C86.6562 170.37 87.0755 170.688 87.9141 170.688C88.3672 170.688 88.7943 170.565 89.1953 170.32C89.6953 170.013 89.8932 169.518 89.7891 168.836L89.625 167.797L89.5859 167.578L89.5625 167.594ZM93.9219 171.523C96.1771 171.523 97.3073 171.039 97.3125 170.07C97.3125 169.56 97.0417 169.052 96.5 168.547C95.6719 167.776 94.9609 167.159 94.3672 166.695C93.7734 166.232 93.4766 165.719 93.4766 165.156C93.4766 164.828 93.5729 164.536 93.7656 164.281C93.9635 164.026 94.2318 163.831 94.5703 163.695L100.141 161.484V163.008L94.7656 165.109L94.7344 165.117C96.0938 166.258 97.0885 167.167 97.7188 167.844C98.3958 168.578 98.7266 169.385 98.7109 170.266C98.6797 172.089 97.0859 173 93.9297 173H92.7344C92.3281 173 92.125 172.771 92.125 172.312V172.164C92.125 171.737 92.3281 171.523 92.7344 171.523H93.9219Z" fill="#303030"/>
        <path d="M47.7172 151.717C50.3224 147.388 57.7908 137.717 70.2172 137.717C82.6436 137.717 90.4093 147.463 92.7172 151.717" stroke="#3ABC40" stroke-width="1.5"/>
        <path fill-rule="evenodd" clip-rule="evenodd" d="M73.013 132.283V142.95L65.013 137.616L73.013 132.283Z" fill="#3ABC40"/>
        <path d="M41.1484 169.828C41.1484 168.312 42.526 167.133 45.2812 166.289L45.2109 165.93L46.4844 165.672L47.125 170.258C47.2448 171.102 47.7292 171.523 48.5781 171.523H48.7344C48.8385 171.523 48.8906 171.724 48.8906 172.125V172.312C48.8906 172.771 48.8385 173 48.7344 173H48.5469C47.1198 173 46.2786 172.409 46.0234 171.227C45.3984 171.773 44.6719 172.047 43.8438 172.047C42.6823 172.047 41.8724 171.667 41.4141 170.906C41.237 170.609 41.1484 170.25 41.1484 169.828ZM45.4453 167.594C43.5078 168.292 42.5391 169.005 42.5391 169.734C42.5391 170.37 42.9583 170.688 43.7969 170.688C44.25 170.688 44.6771 170.565 45.0781 170.32C45.5781 170.013 45.776 169.518 45.6719 168.836L45.5078 167.797L45.4688 167.578L45.4453 167.594ZM49.2109 173H48.6172C48.2109 173 48.0078 172.771 48.0078 172.312V172.164C48.0078 171.737 48.2109 171.523 48.6172 171.523H49.2109C50.0234 171.523 50.5781 171.44 50.875 171.273C51.3177 171.013 51.5391 170.534 51.5391 169.836C51.5391 169.216 51.4427 168.526 51.25 167.766L52.5547 167.445C52.8099 168.258 52.9375 169.047 52.9375 169.812C52.9375 171 52.5938 171.852 51.9062 172.367C51.3385 172.789 50.4401 173 49.2109 173ZM49.625 175.555L50.7656 174.414L51.9062 175.562L50.7734 176.695L49.625 175.555Z" fill="#303030"/>
    </g>
    <defs>
        <clipPath id="clip0">
            <rect width="335.884" height="182" fill="white" transform="translate(-35.8838)"/>
        </clipPath>
    </defs>
</svg>
