<svg width="986" height="415" viewBox="0 0 986 415" fill="none" xmlns="http://www.w3.org/2000/svg">
    <path d="M932.589 395.846C932.589 393.383 934.827 391.466 939.305 390.095L939.19 389.511L941.26 389.092L942.301 396.544C942.495 397.915 943.283 398.601 944.662 398.601H944.916C945.085 398.601 945.17 398.926 945.17 399.578V399.883C945.17 400.628 945.085 401 944.916 401H944.611C942.292 401 940.925 400.039 940.511 398.118C939.495 399.007 938.314 399.451 936.969 399.451C935.081 399.451 933.765 398.833 933.021 397.598C932.733 397.115 932.589 396.531 932.589 395.846ZM939.571 392.215C936.423 393.349 934.849 394.508 934.849 395.693C934.849 396.726 935.53 397.242 936.893 397.242C937.629 397.242 938.323 397.043 938.975 396.646C939.787 396.146 940.109 395.342 939.939 394.233L939.673 392.545L939.609 392.189L939.571 392.215ZM953.854 385.905L955.656 384.09L957.472 385.918L955.669 387.721L953.854 385.905ZM955.936 389.308L957.751 387.505L959.566 389.32L957.764 391.123L955.936 389.308ZM951.822 389.308L953.612 387.505L955.44 389.32L953.625 391.123L951.822 389.308ZM959.389 401C957.882 401 956.837 400.403 956.253 399.21C955.407 400.403 954.201 401 952.635 401C950.824 401 949.664 400.403 949.156 399.21C948.479 400.403 947.112 401 945.056 401H944.726C944.065 401 943.735 400.628 943.735 399.883V399.642C943.735 398.948 944.065 398.601 944.726 398.601H945.081C947.104 398.601 948.124 397.797 948.141 396.188C948.141 395.715 948.128 395.312 948.103 394.982L948.026 394.221L950.121 393.967L950.324 396.646C950.426 397.949 951.204 398.601 952.66 398.601C954.277 398.601 955.093 397.847 955.11 396.341C955.11 395.884 955.102 395.52 955.085 395.249L955.009 394.221L957.104 393.967L957.307 396.646C957.408 397.94 958.081 398.588 959.325 398.588C960.603 398.588 961.234 397.75 961.217 396.074C961.217 395.693 961.196 395.287 961.153 394.855L961.09 394.081L963.185 393.7L963.388 395.858C963.557 397.687 964.34 398.601 965.736 398.601H965.965C966.134 398.601 966.219 398.948 966.219 399.642V399.883C966.219 400.628 966.134 401 965.965 401H965.762C964.069 401 963.015 400.395 962.601 399.185C961.991 400.395 960.921 401 959.389 401ZM966.739 401H965.774C965.114 401 964.784 400.628 964.784 399.883V399.642C964.784 398.948 965.114 398.601 965.774 398.601H966.739C968.06 398.601 968.961 398.465 969.443 398.194C970.163 397.771 970.522 396.993 970.522 395.858C970.522 394.851 970.366 393.73 970.053 392.494L972.173 391.974C972.588 393.294 972.795 394.576 972.795 395.82C972.795 397.75 972.236 399.134 971.119 399.972C970.197 400.657 968.737 401 966.739 401ZM969.71 405.151L971.563 403.298L973.417 405.164L971.576 407.005L969.71 405.151ZM965.584 405.151L967.425 403.298L969.291 405.164L967.438 407.005L965.584 405.151ZM983.408 394.246C984.204 396.057 984.602 397.742 984.602 399.299C984.602 404.208 981.622 407.06 975.664 407.855L975.131 405.697C979.921 405.046 982.316 402.964 982.316 399.451C982.316 398.089 981.944 396.607 981.199 395.008L983.408 394.246Z" fill="#BEBEBE"/>
    <path d="M954 358C906.584 261.514 770.661 46 544.5 46C318.339 46 177.003 263.198 135 358" stroke="#9E9E9E" stroke-width="1.5"/>
    <path fill-rule="evenodd" clip-rule="evenodd" d="M551 38V54L539 46L551 38Z" fill="#9E9E9E"/>
    <path d="M798 356C759.731 295.696 650.03 161 467.5 161C284.97 161 170.9 296.749 137 356" stroke="#FF4B4B" stroke-width="1.5"/>
    <path fill-rule="evenodd" clip-rule="evenodd" d="M463 153V169L475 161L463 153Z" fill="#FF4B4B"/>
    <path d="M647.071 401.647C647.071 401.157 646.741 400.911 646.081 400.911L644.634 400.898C642.848 400.89 641.997 400.137 642.082 398.639C642.184 397.014 642.7 395.571 643.631 394.31C644.824 392.685 646.547 391.842 648.798 391.783V394.233C646.149 394.538 644.663 395.93 644.342 398.41L644.329 398.537H646.17C648.227 398.529 649.251 399.506 649.242 401.47C649.242 402.519 648.946 403.459 648.354 404.288C647.211 405.896 645.434 406.912 643.021 407.335C642.15 407.487 641.198 407.563 640.165 407.563C635.045 407.563 632.484 405.299 632.484 400.771C632.484 398.867 633.073 396.586 634.249 393.929L636.318 394.754C635.277 397.115 634.757 399.108 634.757 400.733C634.757 403.721 636.543 405.223 640.114 405.24C641.138 405.24 642.057 405.16 642.869 404.999C644.359 404.711 645.506 404.153 646.31 403.323C646.809 402.815 647.063 402.257 647.071 401.647ZM652.619 382.363H654.892V400.987H652.619V382.363ZM663.131 394.246L663.981 397.026C664.303 398.076 665.107 398.601 666.394 398.601H666.749C666.918 398.601 667.003 398.926 667.003 399.578V399.883C667.003 400.628 666.918 401 666.749 401H666.533C665.374 401 664.625 400.776 664.286 400.327C663.905 404.61 660.943 407.119 655.399 407.855L654.866 405.697C659.665 405.046 662.06 402.959 662.052 399.438C662.052 398.093 661.675 396.616 660.922 395.008L663.131 394.246ZM667.498 401H666.533C665.873 401 665.543 400.628 665.543 399.883V399.642C665.543 398.948 665.873 398.601 666.533 398.601H667.498C668.818 398.601 669.72 398.465 670.202 398.194C670.922 397.771 671.281 396.993 671.281 395.858C671.281 394.851 671.125 393.73 670.812 392.494L672.932 391.974C673.346 393.294 673.554 394.576 673.554 395.82C673.554 397.75 672.995 399.134 671.878 399.972C670.955 400.657 669.495 401 667.498 401ZM668.171 405.151L670.024 403.298L671.878 405.164L670.037 407.005L668.171 405.151Z" fill="#303030"/>
    <path d="M652 357C622.126 324.838 536.489 253 394 253C251.511 253 162.463 325.399 136 357" stroke="#2FAAE0" stroke-width="1.5"/>
    <path fill-rule="evenodd" clip-rule="evenodd" d="M389 245V261L401 253L389 245Z" fill="#2FAAE0"/>
    <path d="M412 357C396.021 341.537 350.215 307 274 307C197.785 307 150.155 341.807 136 357" stroke="#FF9329" stroke-width="1.5"/>
    <path fill-rule="evenodd" clip-rule="evenodd" d="M269 299V315L281 307L269 299Z" fill="#FF9329"/>
    <path d="M514.744 395.846C514.744 393.383 516.983 391.466 521.46 390.095L521.346 389.511L523.415 389.092L524.456 396.544C524.651 397.915 525.438 398.601 526.817 398.601H527.071C527.241 398.601 527.325 398.926 527.325 399.578V399.883C527.325 400.628 527.241 401 527.071 401H526.767C524.448 401 523.081 400.039 522.666 398.118C521.65 399.007 520.47 399.451 519.124 399.451C517.237 399.451 515.921 398.833 515.176 397.598C514.888 397.115 514.744 396.531 514.744 395.846ZM521.727 392.215C518.578 393.349 517.004 394.508 517.004 395.693C517.004 396.726 517.685 397.242 519.048 397.242C519.784 397.242 520.478 397.043 521.13 396.646C521.942 396.146 522.264 395.342 522.095 394.233L521.828 392.545L521.765 392.189L521.727 392.215ZM528.811 398.601C532.475 398.601 534.312 397.813 534.32 396.239C534.32 395.41 533.88 394.585 533 393.764C531.654 392.511 530.499 391.508 529.534 390.755C528.569 390.002 528.087 389.168 528.087 388.254C528.087 387.721 528.243 387.247 528.557 386.832C528.878 386.417 529.314 386.1 529.864 385.88L538.916 382.287V384.763L530.182 388.178L530.131 388.19C532.34 390.044 533.956 391.521 534.98 392.621C536.081 393.814 536.618 395.126 536.593 396.557C536.542 399.519 533.952 401 528.823 401H526.881C526.221 401 525.891 400.628 525.891 399.883V399.642C525.891 398.948 526.221 398.601 526.881 398.601H528.811Z" fill="#303030"/>
    <path d="M525.5 356.5C532.795 348.769 553.706 331.5 588.5 331.5C623.294 331.5 645.038 348.904 651.5 356.5" stroke="#3ABC40" stroke-width="1.5"/>
    <path fill-rule="evenodd" clip-rule="evenodd" d="M593 323.5V339.5L581 331.5L593 323.5Z" fill="#3ABC40"/>
    <path d="M285.5 356.5C292.795 348.769 313.706 331.5 348.5 331.5C383.294 331.5 405.038 348.904 411.5 356.5" stroke="#3ABC40" stroke-width="1.5"/>
    <path fill-rule="evenodd" clip-rule="evenodd" d="M353 323.5V339.5L341 331.5L353 323.5Z" fill="#3ABC40"/>
    <path d="M9.5 356.5C16.7948 348.769 37.7061 331.5 72.5 331.5C107.294 331.5 129.038 348.904 135.5 356.5" stroke="#DF6FFD" stroke-width="1.5"/>
    <path fill-rule="evenodd" clip-rule="evenodd" d="M77 324V340L65 332L77 324Z" fill="#DF6FFD"/>
    <path d="M402.491 395.846C402.491 393.383 404.73 391.466 409.207 390.095L409.093 389.511L411.162 389.092L412.203 396.544C412.398 397.915 413.185 398.601 414.564 398.601H414.818C414.988 398.601 415.072 398.926 415.072 399.578V399.883C415.072 400.628 414.988 401 414.818 401H414.514C412.195 401 410.828 400.039 410.413 398.118C409.397 399.007 408.217 399.451 406.871 399.451C404.984 399.451 403.668 398.833 402.923 397.598C402.635 397.115 402.491 396.531 402.491 395.846ZM409.474 392.215C406.325 393.349 404.751 394.508 404.751 395.693C404.751 396.726 405.432 397.242 406.795 397.242C407.531 397.242 408.225 397.043 408.877 396.646C409.689 396.146 410.011 395.342 409.842 394.233L409.575 392.545L409.512 392.189L409.474 392.215ZM415.593 401H414.628C413.968 401 413.638 400.628 413.638 399.883V399.642C413.638 398.948 413.968 398.601 414.628 398.601H415.593C416.913 398.601 417.814 398.465 418.297 398.194C419.016 397.771 419.376 396.993 419.376 395.858C419.376 394.851 419.219 393.73 418.906 392.494L421.026 391.974C421.441 393.294 421.648 394.576 421.648 395.82C421.648 397.75 421.09 399.134 419.973 399.972C419.05 400.657 417.59 401 415.593 401ZM416.266 405.151L418.119 403.298L419.973 405.164L418.132 407.005L416.266 405.151Z" fill="#303030"/>
    <path d="M271.33 382.363H273.603V400.987H271.33V382.363ZM280.483 400.987C279.349 400.987 278.139 400.865 276.853 400.619V398.22C278.037 398.465 279.269 398.588 280.547 398.588C283.382 398.588 284.8 398 284.8 396.823C284.8 396.265 284.415 395.084 283.645 393.281L281.956 389.333L284.051 388.368L286.641 394.754C287.673 397.318 288.672 398.601 289.637 398.601H289.891C290.06 398.601 290.145 398.948 290.145 399.642V399.883C290.145 400.145 290.132 400.357 290.106 400.518C290.081 400.687 290.051 400.81 290.018 400.886C289.975 400.962 289.933 401 289.891 401H289.637C288.494 401 287.453 400.259 286.514 398.778C285.312 400.251 283.302 400.987 280.483 400.987ZM298.79 398.601H300.745C303.191 398.601 305.045 398.334 306.306 397.801C307.541 397.234 308.159 396.392 308.159 395.274C308.159 394.733 308.011 394.267 307.715 393.878C307.215 393.226 306.513 392.896 305.607 392.888C303.475 392.896 301.202 394.8 298.79 398.601ZM294.22 399.159C293.323 400.386 291.892 401 289.929 401H289.713C289.053 401 288.723 400.628 288.723 399.883V399.642C288.723 398.948 289.057 398.601 289.726 398.601H289.929C291.833 398.601 292.878 398.063 293.064 396.988C293.115 396.667 293.141 396.294 293.141 395.871C293.141 395.66 293.128 395.363 293.103 394.982L293.039 393.954L295.121 393.7L295.35 396.392C295.443 397.466 295.781 398.08 296.365 398.232C299.429 393.044 302.497 390.454 305.569 390.463C307.355 390.463 308.714 391.132 309.645 392.469C310.203 393.273 310.478 394.157 310.47 395.122C310.47 395.579 310.41 396.066 310.292 396.582C309.615 399.527 306.407 401 300.669 401H300.021C296.89 401 294.956 400.386 294.22 399.159Z" fill="#303030"/>
    <path d="M97.1914 400.987C96.0573 400.987 94.847 400.865 93.5605 400.619V398.22C94.7454 398.465 95.9769 398.588 97.2549 398.588C100.09 398.588 101.508 398 101.508 396.823C101.508 396.265 101.123 395.084 100.353 393.281L98.6641 389.333L100.759 388.368L103.349 394.754C104.381 397.318 105.38 398.601 106.345 398.601H106.599C106.768 398.601 106.853 398.948 106.853 399.642V399.883C106.853 400.145 106.84 400.357 106.814 400.518C106.789 400.687 106.759 400.81 106.726 400.886C106.683 400.962 106.641 401 106.599 401H106.345C105.202 401 104.161 400.259 103.222 398.778C102.02 400.251 100.01 400.987 97.1914 400.987ZM107.386 401H106.421C105.761 401 105.431 400.628 105.431 399.883V399.642C105.431 398.948 105.761 398.601 106.421 398.601H107.386C108.706 398.601 109.607 398.465 110.09 398.194C110.809 397.771 111.169 396.993 111.169 395.858C111.169 394.851 111.012 393.73 110.699 392.494L112.819 391.974C113.234 393.294 113.441 394.576 113.441 395.82C113.441 397.75 112.883 399.134 111.766 399.972C110.843 400.657 109.383 401 107.386 401ZM110.356 405.151L112.21 403.298L114.063 405.164L112.223 407.005L110.356 405.151ZM106.23 405.151L108.071 403.298L109.938 405.164L108.084 407.005L106.23 405.151ZM118.266 384.242H120.538V400.987H118.266V384.242ZM118.38 381.716C117.44 381.589 116.581 381.987 115.803 382.909L114.521 381.563C115.519 380.125 116.738 379.52 118.177 379.748L120.068 380.053C120.889 380.188 121.816 379.993 122.849 379.469L123.687 381.208C122.595 381.885 121.423 382.139 120.17 381.97L118.38 381.716ZM143.263 398.601C143.44 398.601 143.529 398.948 143.529 399.642V399.883C143.529 400.628 143.44 401 143.263 401H141.46H141.143C141.633 401.372 141.875 401.855 141.866 402.447C141.866 402.786 141.786 403.167 141.625 403.59C141.295 404.436 140.618 405.189 139.594 405.85C137.698 407.06 135.425 407.665 132.776 407.665C127.681 407.665 125.142 405.456 125.159 401.038C125.159 399.185 125.587 397.34 126.441 395.503L128.511 396.328C127.791 398.148 127.432 399.697 127.432 400.975C127.432 403.869 129.281 405.325 132.979 405.342C134.664 405.342 136.111 405.071 137.321 404.529C138.295 404.089 138.989 403.556 139.403 402.93C139.598 402.633 139.695 402.35 139.695 402.079C139.695 401.351 139.137 400.987 138.02 400.987H136.331C135.84 400.937 135.506 400.539 135.328 399.794C135.243 399.438 135.201 399.159 135.201 398.956C135.201 398.753 135.248 398.634 135.341 398.601H143.263ZM151.223 398.956C152.408 398.956 153 398.376 153 397.217C153 396.667 152.915 396.193 152.746 395.795C152.34 394.872 151.663 394.411 150.715 394.411C149.547 394.411 148.654 395.287 148.036 397.039C149.145 398.317 150.207 398.956 151.223 398.956ZM146.932 399.185C145.891 400.395 144.706 401 143.377 401H143.11C142.459 401 142.133 400.628 142.133 399.883V399.642C142.133 398.948 142.459 398.601 143.11 398.601H143.313C144.007 398.601 144.685 398.207 145.345 397.42C145.632 397.064 145.954 396.489 146.31 395.693C147.418 393.23 148.87 391.999 150.664 391.999C152.061 391.999 153.161 392.503 153.965 393.51C154.769 394.508 155.171 395.681 155.171 397.026C155.171 398.372 154.887 399.379 154.32 400.048C153.618 400.869 152.645 401.279 151.4 401.279C149.758 401.279 148.269 400.581 146.932 399.185ZM162.395 394.246C163.19 396.057 163.588 397.742 163.588 399.299C163.588 404.208 160.609 407.06 154.65 407.855L154.117 405.697C158.908 405.046 161.303 402.964 161.303 399.451C161.303 398.089 160.93 396.607 160.186 395.008L162.395 394.246ZM166.089 398.271C167.113 398.482 168.133 398.588 169.148 398.588C172.28 398.588 173.846 397.843 173.846 396.354C173.846 394.585 172.09 392.596 168.577 390.387L169.847 388.457C174.087 391.005 176.207 393.624 176.207 396.315C176.207 399.413 173.909 400.966 169.313 400.975C168.069 400.975 166.994 400.873 166.089 400.67V398.271Z" fill="#303030"/>
    <path d="M6.00781 399.223C6.00781 398.749 6.17285 398.342 6.50293 398.004C6.84147 397.665 7.24772 397.496 7.72168 397.496C8.19564 397.496 8.59766 397.665 8.92773 398.004C9.26628 398.342 9.43555 398.749 9.43555 399.223C9.43555 399.688 9.26628 400.09 8.92773 400.429C8.59766 400.767 8.19564 400.937 7.72168 400.937C7.30697 400.937 6.94727 400.805 6.64258 400.543C6.41406 400.357 6.24479 400.132 6.13477 399.87C6.05013 399.675 6.00781 399.46 6.00781 399.223ZM6.43945 394.703C6.38867 394.119 5.66081 393.142 4.25586 391.771C2.74089 390.298 2.00033 388.783 2.03418 387.226C2.05957 385.973 2.42773 384.94 3.13867 384.128C4.16276 382.977 5.50423 382.401 7.16309 382.401C10.2692 382.418 11.8223 384.064 11.8223 387.34C11.8223 387.34 11.8223 387.382 11.8223 387.467H9.79102V387.353C9.79102 385.694 8.95312 384.864 7.27734 384.864C6.27865 384.864 5.54232 385.148 5.06836 385.715C4.69596 386.163 4.50977 386.735 4.50977 387.429C4.5013 388.36 5.09375 389.443 6.28711 390.679C8.07292 392.558 8.98275 393.899 9.0166 394.703H6.43945Z" fill="#303030"/>
    <path d="M507.121 19.0352C507.121 17.1406 508.843 15.666 512.287 14.6113L512.199 14.1621L513.791 13.8398L514.592 19.5723C514.742 20.627 515.347 21.1543 516.408 21.1543H516.604C516.734 21.1543 516.799 21.4049 516.799 21.9062V22.1406C516.799 22.7135 516.734 23 516.604 23H516.369C514.585 23 513.534 22.2611 513.215 20.7832C512.434 21.4668 511.525 21.8086 510.49 21.8086C509.038 21.8086 508.026 21.3333 507.453 20.3828C507.232 20.0117 507.121 19.5625 507.121 19.0352ZM512.492 16.2422C510.07 17.1146 508.859 18.0065 508.859 18.918C508.859 19.7122 509.383 20.1094 510.432 20.1094C510.998 20.1094 511.532 19.9564 512.033 19.6504C512.658 19.2663 512.906 18.6478 512.775 17.7949L512.57 16.4961L512.521 16.2227L512.492 16.2422ZM516.955 23H516.467C515.959 23 515.705 22.7135 515.705 22.1406V21.9551C515.705 21.4212 515.959 21.1543 516.467 21.1543H516.975C518.706 21.1543 519.572 20.4837 519.572 19.1426V8.66406H521.32V19.1426C521.32 20.4837 522.056 21.1543 523.527 21.1543H523.693C523.85 21.1543 523.928 21.4212 523.928 21.9551V22.1406C523.928 22.7135 523.85 23 523.693 23H523.547C522.082 23 521.021 22.5378 520.363 21.6133C519.732 22.5378 518.596 23 516.955 23ZM529.816 21.4277C530.76 21.4342 531.223 20.9818 531.203 20.0703C531.197 19.6927 531.122 19.3346 530.979 18.9961C530.666 18.293 530.139 17.9382 529.396 17.9316C528.518 17.9186 527.837 18.5924 527.355 19.9531C528.195 20.9297 529.016 21.4212 529.816 21.4277ZM529.924 23.2148C528.726 23.2148 527.587 22.6777 526.506 21.6035C525.705 22.5345 524.794 23 523.771 23H523.566C523.065 23 522.814 22.7135 522.814 22.1406V21.9551C522.814 21.4212 523.065 21.1543 523.566 21.1543H523.723C524.328 21.1543 524.852 20.8516 525.295 20.2461C525.529 19.9206 525.773 19.4746 526.027 18.9082C526.874 17.0267 527.99 16.0827 529.377 16.0762C530.432 16.0762 531.265 16.4635 531.877 17.2383C532.313 17.7982 532.619 18.4948 532.795 19.3281C533.055 20.5456 533.57 21.1543 534.338 21.1543H534.484C534.615 21.1543 534.68 21.4212 534.68 21.9551V22.1406C534.68 22.7135 534.615 23 534.484 23H534.328C533.573 23 532.961 22.6354 532.492 21.9062C531.932 22.7786 531.076 23.2148 529.924 23.2148ZM540.188 26.1934L541.613 24.7676L543.039 26.2031L541.623 27.6191L540.188 26.1934ZM534.328 23C533.82 23 533.566 22.7135 533.566 22.1406V21.9551C533.566 21.4212 533.82 21.1543 534.328 21.1543H534.914C537.128 21.1543 539.784 20.3535 542.883 18.752L543.605 18.3809C543.436 18.3353 542.733 18.0618 541.496 17.5605C540.22 17.0462 539.351 16.7891 538.889 16.7891C538.153 16.7891 537.548 17.0951 537.072 17.707L536.799 18.0586L535.295 17.3164L535.451 17.043C536.298 15.6562 537.447 14.9596 538.898 14.9531C539.725 14.9531 540.715 15.2331 541.867 15.793C543.898 16.7826 545.471 17.3001 546.584 17.3457L546.564 19.1035C545.816 19.1686 544.436 19.7318 542.424 20.793C539.631 22.2643 537.089 23 534.797 23H534.328ZM554.016 19.0352C554.016 17.1406 555.738 15.666 559.182 14.6113L559.094 14.1621L560.686 13.8398L561.486 19.5723C561.636 20.627 562.242 21.1543 563.303 21.1543H563.498C563.628 21.1543 563.693 21.4049 563.693 21.9062V22.1406C563.693 22.7135 563.628 23 563.498 23H563.264C561.48 23 560.428 22.2611 560.109 20.7832C559.328 21.4668 558.42 21.8086 557.385 21.8086C555.933 21.8086 554.921 21.3333 554.348 20.3828C554.126 20.0117 554.016 19.5625 554.016 19.0352ZM559.387 16.2422C556.965 17.1146 555.754 18.0065 555.754 18.918C555.754 19.7122 556.278 20.1094 557.326 20.1094C557.893 20.1094 558.426 19.9564 558.928 19.6504C559.553 19.2663 559.8 18.6478 559.67 17.7949L559.465 16.4961L559.416 16.2227L559.387 16.2422ZM570.373 11.3887L571.76 9.99219L573.156 11.3984L571.77 12.7852L570.373 11.3887ZM571.975 14.0059L573.371 12.6191L574.768 14.0156L573.381 15.4023L571.975 14.0059ZM568.811 14.0059L570.188 12.6191L571.594 14.0156L570.197 15.4023L568.811 14.0059ZM574.631 23C573.472 23 572.668 22.541 572.219 21.623C571.568 22.541 570.64 23 569.436 23C568.042 23 567.15 22.541 566.76 21.623C566.239 22.541 565.188 23 563.605 23H563.352C562.844 23 562.59 22.7135 562.59 22.1406V21.9551C562.59 21.4212 562.844 21.1543 563.352 21.1543H563.625C565.181 21.1543 565.965 20.5358 565.979 19.2988C565.979 18.9342 565.969 18.625 565.949 18.3711L565.891 17.7852L567.502 17.5898L567.658 19.6504C567.736 20.653 568.335 21.1543 569.455 21.1543C570.699 21.1543 571.327 20.5749 571.34 19.416C571.34 19.0645 571.333 18.7845 571.32 18.5762L571.262 17.7852L572.873 17.5898L573.029 19.6504C573.107 20.6465 573.625 21.1445 574.582 21.1445C575.565 21.1445 576.05 20.5 576.037 19.2109C576.037 18.918 576.021 18.6055 575.988 18.2734L575.939 17.6777L577.551 17.3848L577.707 19.0449C577.837 20.4512 578.439 21.1543 579.514 21.1543H579.689C579.82 21.1543 579.885 21.4212 579.885 21.9551V22.1406C579.885 22.7135 579.82 23 579.689 23H579.533C578.231 23 577.421 22.5345 577.102 21.6035C576.633 22.5345 575.809 23 574.631 23ZM580.285 23H579.543C579.035 23 578.781 22.7135 578.781 22.1406V21.9551C578.781 21.4212 579.035 21.1543 579.543 21.1543H580.285C581.301 21.1543 581.994 21.0501 582.365 20.8418C582.919 20.5163 583.195 19.9173 583.195 19.0449C583.195 18.2702 583.075 17.4076 582.834 16.457L584.465 16.0566C584.784 17.0723 584.943 18.0586 584.943 19.0156C584.943 20.5 584.514 21.5645 583.654 22.209C582.945 22.7363 581.822 23 580.285 23ZM582.57 26.1934L583.996 24.7676L585.422 26.2031L584.006 27.6191L582.57 26.1934ZM579.396 26.1934L580.812 24.7676L582.248 26.2031L580.822 27.6191L579.396 26.1934ZM593.107 17.8047C593.719 19.1979 594.025 20.4935 594.025 21.6914C594.025 25.4674 591.734 27.6615 587.15 28.2734L586.74 26.6133C590.425 26.112 592.268 24.5104 592.268 21.8086C592.268 20.7604 591.981 19.6211 591.408 18.3906L593.107 17.8047Z" fill="#9E9E9E"/>
    <path d="M773.915 399.883C773.924 400.628 773.839 401 773.661 401H773.395C770.06 401 768.393 399.146 768.393 395.439V382.363H770.678V395.414C770.678 397.538 771.596 398.601 773.433 398.601H773.661C773.83 398.601 773.915 398.948 773.915 399.642V399.883ZM774.791 401H773.496C772.836 401 772.506 400.628 772.506 399.883V399.642C772.506 398.948 772.836 398.601 773.496 398.601H776.86H777.495C777.123 398.338 776.835 398.093 776.632 397.864C775.955 397.077 775.62 396.176 775.629 395.16C775.629 394.145 776.001 393.209 776.746 392.354C777.626 391.33 778.752 390.818 780.123 390.818C781.435 390.818 782.561 391.263 783.5 392.151C784.236 392.837 784.609 393.649 784.617 394.589C784.617 396.188 783.864 397.45 782.357 398.372C783.72 398.567 784.685 398.664 785.252 398.664C785.827 398.664 786.272 398.605 786.585 398.486C787.347 398.19 787.728 397.521 787.728 396.48C787.728 395.643 787.3 394.741 786.445 393.776C784.896 392.007 782.908 390.636 780.479 389.663L781.608 387.594C787.245 390.683 790.042 393.649 790 396.493C789.983 397.746 789.602 398.783 788.857 399.604C788.028 400.526 786.699 400.987 784.871 400.987C783.635 400.996 782.057 400.695 780.136 400.086C778.079 400.695 776.298 401 774.791 401ZM781.469 396.785C782.146 396.167 782.48 395.49 782.472 394.754C782.463 394.339 782.307 393.963 782.002 393.624C781.545 393.125 780.957 392.875 780.237 392.875C779.391 392.875 778.739 393.243 778.282 393.979C778.054 394.335 777.935 394.745 777.927 395.211C777.927 395.888 778.198 396.468 778.739 396.95C778.976 397.162 779.234 397.331 779.514 397.458C779.717 397.56 779.928 397.636 780.148 397.687C780.275 397.636 780.402 397.572 780.529 397.496C780.826 397.31 781.139 397.073 781.469 396.785ZM821.7 380.434L811.493 384.598V382.973L821.7 378.796V380.434ZM809.335 401C802.886 401 799.661 398.943 799.661 394.83C799.661 393.688 799.894 392.6 800.359 391.567L802.403 392.443C802.124 393.163 801.984 393.853 801.984 394.513C802.001 397.238 804.451 398.601 809.335 398.601H811.646C815.31 398.601 817.147 397.813 817.155 396.239C817.155 395.41 816.715 394.585 815.835 393.764C814.489 392.511 813.334 391.508 812.369 390.755C811.404 390.002 810.922 389.168 810.922 388.254C810.922 387.721 811.078 387.247 811.392 386.832C811.713 386.417 812.149 386.1 812.699 385.88L821.751 382.287V384.763L813.017 388.178L812.953 388.19C815.171 390.044 816.791 391.521 817.815 392.621C818.493 393.357 819.038 394.31 819.453 395.478C820.198 397.56 821.417 398.601 823.109 398.601H823.312C823.482 398.601 823.566 398.948 823.566 399.642V399.883C823.566 400.628 823.482 401 823.312 401H823.109C821.357 401 819.923 400.251 818.806 398.753C817.841 400.251 815.454 401 811.646 401H809.335ZM824.087 401H823.122C822.462 401 822.132 400.628 822.132 399.883V399.642C822.132 398.948 822.462 398.601 823.122 398.601H824.087C825.407 398.601 826.309 398.465 826.791 398.194C827.51 397.771 827.87 396.993 827.87 395.858C827.87 394.851 827.714 393.73 827.4 392.494L829.521 391.974C829.935 393.294 830.143 394.576 830.143 395.82C830.143 397.75 829.584 399.134 828.467 399.972C827.544 400.657 826.084 401 824.087 401ZM825.483 387.975L827.337 386.121L829.19 387.987L827.35 389.828L825.483 387.975ZM837.277 394.246C838.073 396.057 838.471 397.742 838.471 399.299C838.471 404.208 835.492 407.06 829.533 407.855L829 405.697C833.79 405.046 836.186 402.964 836.186 399.451C836.186 398.089 835.813 396.607 835.068 395.008L837.277 394.246ZM833.545 389.371L835.449 387.467L837.379 389.384L835.462 391.301L833.545 389.371Z" fill="#303030"/>
    <path d="M458.331 137.023L458.351 123.674H460.089L460.079 134.104C460.079 135.471 460.821 136.154 462.306 136.154H462.501C462.631 136.154 462.696 136.405 462.696 136.906V137.141C462.696 137.714 462.631 138 462.501 138H462.257C461.248 138 460.499 137.756 460.011 137.268C460.004 137.417 459.998 137.567 459.991 137.717C459.809 141.337 457.866 143.146 454.161 143.146C450.385 143.146 448.504 141.311 448.517 137.639C448.517 136.962 448.582 136.298 448.712 135.646C448.855 134.969 449.06 134.302 449.327 133.645L450.919 134.279C450.483 135.386 450.265 136.503 450.265 137.629C450.265 140.109 451.567 141.35 454.171 141.35C456.938 141.35 458.325 139.908 458.331 137.023ZM470.851 132.297C470.037 131.626 469.236 131.291 468.448 131.291C468.032 131.285 467.657 131.343 467.325 131.467C466.993 131.584 466.707 131.76 466.466 131.994C466.238 132.222 466.065 132.476 465.948 132.756C465.831 133.036 465.772 133.345 465.772 133.684C465.772 134.543 466.28 135.214 467.296 135.695C467.439 135.767 467.524 135.799 467.55 135.793L471.808 134.758V136.555C468.709 137.518 465.857 138 463.253 138H462.354C461.847 138 461.593 137.714 461.593 137.141V136.955C461.593 136.421 461.847 136.154 462.354 136.154H465.021H465.089L465.05 136.105C465.004 136.053 464.962 136.005 464.923 135.959C464.884 135.913 464.845 135.868 464.806 135.822C464.773 135.777 464.741 135.731 464.708 135.686C464.675 135.633 464.643 135.585 464.61 135.539C464.246 134.973 464.067 134.322 464.073 133.586C464.08 132.518 464.369 131.623 464.942 130.9C465.248 130.516 465.632 130.201 466.095 129.953C466.694 129.628 467.397 129.468 468.204 129.475C469.539 129.481 470.639 129.934 471.505 130.832L470.851 132.297ZM478.692 137.141C478.699 137.714 478.634 138 478.497 138H478.292C475.727 138 474.444 136.574 474.444 133.723V123.664H476.202V133.703C476.202 135.337 476.909 136.154 478.321 136.154H478.497C478.627 136.154 478.692 136.421 478.692 136.955V137.141ZM482.394 134.562C480.473 134.562 479.5 133.68 479.474 131.916C479.474 131.636 479.5 131.366 479.552 131.105C479.747 130.077 480.121 129.25 480.675 128.625C481.228 128 481.941 127.688 482.813 127.688C483.341 127.688 483.81 127.821 484.22 128.088C485.359 128.817 486.049 130.243 486.29 132.365C486.336 132.788 486.358 133.189 486.358 133.566C486.358 135.233 485.886 136.418 484.942 137.121C484.161 137.707 482.787 138 480.821 138H478.36C477.853 138 477.599 137.714 477.599 137.141V136.955C477.599 136.421 477.853 136.154 478.36 136.154H480.929C483.409 136.154 484.679 135.559 484.737 134.367C484.737 134.309 484.734 134.25 484.728 134.191C483.914 134.439 483.136 134.562 482.394 134.562ZM481.085 131.652C481.085 132.395 481.596 132.766 482.618 132.766C483.139 132.766 483.79 132.648 484.571 132.414C484.48 131.659 484.314 131.021 484.073 130.5C483.754 129.797 483.312 129.445 482.745 129.445C482.022 129.445 481.508 129.947 481.202 130.949C481.124 131.197 481.085 131.431 481.085 131.652ZM481.095 124.729L482.521 123.303L483.946 124.738L482.53 126.154L481.095 124.729Z" fill="#FF4B4B"/>
    <path d="M384.255 229.99C383.382 229.99 382.451 229.896 381.462 229.707V227.861C382.373 228.05 383.321 228.145 384.304 228.145C386.485 228.145 387.575 227.692 387.575 226.787C387.575 226.357 387.279 225.449 386.687 224.062L385.388 221.025L386.999 220.283L388.991 225.195C389.785 227.168 390.554 228.154 391.296 228.154H391.491C391.621 228.154 391.687 228.421 391.687 228.955V229.141C391.687 229.342 391.677 229.505 391.657 229.629C391.638 229.759 391.615 229.854 391.589 229.912C391.556 229.971 391.524 230 391.491 230H391.296C390.417 230 389.616 229.43 388.894 228.291C387.969 229.424 386.423 229.99 384.255 229.99ZM394.382 233.193L395.808 231.768L397.233 233.203L395.817 234.619L394.382 233.193ZM391.208 233.193L392.624 231.768L394.06 233.203L392.634 234.619L391.208 233.193ZM398.698 229.141C398.698 229.714 398.633 230 398.503 230H398.405C397.116 230 396.228 229.541 395.739 228.623C395.095 229.541 393.968 230 392.36 230H391.345C390.843 230 390.593 229.714 390.593 229.141V228.955C390.593 228.421 390.843 228.154 391.345 228.154H392.312C393.815 228.154 394.649 227.741 394.812 226.914C394.851 226.686 394.87 226.416 394.87 226.104C394.87 225.908 394.86 225.664 394.841 225.371L394.792 224.58L396.394 224.385L396.55 226.445C396.641 227.585 397.266 228.154 398.425 228.154H398.503C398.633 228.154 398.698 228.451 398.698 229.043V229.141ZM402.399 226.562C400.479 226.562 399.506 225.68 399.479 223.916C399.479 223.636 399.506 223.366 399.558 223.105C399.753 222.077 400.127 221.25 400.681 220.625C401.234 220 401.947 219.688 402.819 219.688C403.347 219.688 403.815 219.821 404.226 220.088C405.365 220.817 406.055 222.243 406.296 224.365C406.341 224.788 406.364 225.189 406.364 225.566C406.364 227.233 405.892 228.418 404.948 229.121C404.167 229.707 402.793 230 400.827 230H398.366C397.858 230 397.604 229.714 397.604 229.141V228.955C397.604 228.421 397.858 228.154 398.366 228.154H400.935C403.415 228.154 404.685 227.559 404.743 226.367C404.743 226.309 404.74 226.25 404.733 226.191C403.92 226.439 403.142 226.562 402.399 226.562ZM401.091 223.652C401.091 224.395 401.602 224.766 402.624 224.766C403.145 224.766 403.796 224.648 404.577 224.414C404.486 223.659 404.32 223.021 404.079 222.5C403.76 221.797 403.317 221.445 402.751 221.445C402.028 221.445 401.514 221.947 401.208 222.949C401.13 223.197 401.091 223.431 401.091 223.652ZM402.712 216.758L404.138 215.332L405.563 216.768L404.147 218.184L402.712 216.758ZM399.538 216.758L400.954 215.332L402.39 216.768L400.964 218.184L399.538 216.758Z" fill="#2FAAE0"/>
    <path d="M198.239 284.498C198.239 284.12 197.985 283.932 197.478 283.932L196.364 283.922C194.991 283.915 194.336 283.336 194.401 282.184C194.479 280.934 194.877 279.824 195.593 278.854C196.511 277.604 197.836 276.956 199.567 276.91V278.795C197.53 279.029 196.387 280.1 196.14 282.008L196.13 282.105H197.546C199.128 282.099 199.916 282.851 199.909 284.361C199.909 285.169 199.681 285.891 199.226 286.529C198.347 287.766 196.979 288.548 195.124 288.873C194.453 288.99 193.721 289.049 192.927 289.049C188.988 289.049 187.019 287.307 187.019 283.824C187.019 282.359 187.471 280.605 188.376 278.561L189.968 279.195C189.167 281.012 188.767 282.545 188.767 283.795C188.767 286.093 190.14 287.249 192.888 287.262C193.675 287.262 194.382 287.2 195.007 287.076C196.153 286.855 197.035 286.425 197.653 285.787C198.037 285.396 198.233 284.967 198.239 284.498ZM202.507 269.664H204.255V283.99H202.507V269.664ZM212.312 280.035C212.312 278.141 214.034 276.666 217.478 275.611L217.39 275.162L218.981 274.84L219.782 280.572C219.932 281.627 220.537 282.154 221.599 282.154H221.794C221.924 282.154 221.989 282.405 221.989 282.906V283.141C221.989 283.714 221.924 284 221.794 284H221.56C219.776 284 218.724 283.261 218.405 281.783C217.624 282.467 216.716 282.809 215.681 282.809C214.229 282.809 213.216 282.333 212.644 281.383C212.422 281.012 212.312 280.562 212.312 280.035ZM217.683 277.242C215.261 278.115 214.05 279.007 214.05 279.918C214.05 280.712 214.574 281.109 215.622 281.109C216.188 281.109 216.722 280.956 217.224 280.65C217.849 280.266 218.096 279.648 217.966 278.795L217.761 277.496L217.712 277.223L217.683 277.242ZM225.681 280.562C223.76 280.562 222.787 279.68 222.761 277.916C222.761 277.636 222.787 277.366 222.839 277.105C223.034 276.077 223.409 275.25 223.962 274.625C224.515 274 225.228 273.688 226.101 273.688C226.628 273.688 227.097 273.821 227.507 274.088C228.646 274.817 229.336 276.243 229.577 278.365C229.623 278.788 229.646 279.189 229.646 279.566C229.646 281.233 229.174 282.418 228.229 283.121C227.448 283.707 226.075 284 224.108 284H221.647C221.14 284 220.886 283.714 220.886 283.141V282.955C220.886 282.421 221.14 282.154 221.647 282.154H224.216C226.696 282.154 227.966 281.559 228.024 280.367C228.024 280.309 228.021 280.25 228.015 280.191C227.201 280.439 226.423 280.562 225.681 280.562ZM224.372 277.652C224.372 278.395 224.883 278.766 225.905 278.766C226.426 278.766 227.077 278.648 227.858 278.414C227.767 277.659 227.601 277.021 227.36 276.5C227.041 275.797 226.599 275.445 226.032 275.445C225.31 275.445 224.795 275.947 224.489 276.949C224.411 277.197 224.372 277.431 224.372 277.652ZM224.382 270.729L225.808 269.303L227.233 270.738L225.817 272.154L224.382 270.729ZM236.394 283.141C236.4 283.714 236.335 284 236.198 284H235.993C233.428 284 232.146 282.574 232.146 279.723V269.664H233.903V279.703C233.903 281.337 234.61 282.154 236.022 282.154H236.198C236.328 282.154 236.394 282.421 236.394 282.955V283.141ZM246.247 272.447L247.673 271.021L249.099 272.457L247.683 273.873L246.247 272.447ZM243.044 282.154H244.548C246.429 282.154 247.855 281.949 248.825 281.539C249.776 281.103 250.251 280.455 250.251 279.596C250.251 279.179 250.137 278.821 249.909 278.521C249.525 278.02 248.985 277.766 248.288 277.76C246.647 277.766 244.899 279.231 243.044 282.154ZM239.528 282.584C238.838 283.528 237.738 284 236.228 284H236.062C235.554 284 235.3 283.714 235.3 283.141V282.955C235.3 282.421 235.557 282.154 236.071 282.154H236.228C237.692 282.154 238.496 281.741 238.64 280.914C238.679 280.667 238.698 280.38 238.698 280.055C238.698 279.892 238.688 279.664 238.669 279.371L238.62 278.58L240.222 278.385L240.397 280.455C240.469 281.282 240.729 281.754 241.179 281.871C243.535 277.88 245.896 275.888 248.259 275.895C249.632 275.895 250.677 276.409 251.394 277.438C251.823 278.056 252.035 278.736 252.028 279.479C252.028 279.83 251.983 280.204 251.892 280.602C251.371 282.867 248.903 284 244.489 284H243.991C241.582 284 240.095 283.528 239.528 282.584ZM254.636 269.664H256.384V283.99H254.636V269.664ZM275.339 270.729L276.765 269.303L278.19 270.738L276.774 272.154L275.339 270.729ZM274.978 284H271.755C266.8 284 264.323 282.418 264.323 279.254C264.323 278.375 264.502 277.538 264.86 276.744L266.433 277.418C266.218 277.971 266.11 278.502 266.11 279.01C266.11 281.106 267.946 282.154 271.618 282.154H275.085C277.611 282.154 278.881 281.559 278.894 280.367C278.894 280.309 278.89 280.25 278.884 280.191C278.07 280.439 277.292 280.562 276.55 280.562C274.642 280.562 273.672 279.68 273.64 277.916C273.633 277.636 273.656 277.366 273.708 277.105C273.903 276.077 274.278 275.25 274.831 274.625C275.384 274 276.097 273.688 276.97 273.688C277.497 273.688 277.966 273.821 278.376 274.088C279.535 274.83 280.225 276.256 280.446 278.365C280.492 278.788 280.518 279.189 280.524 279.566C280.518 281.233 280.043 282.418 279.099 283.121C278.317 283.707 276.944 284 274.978 284ZM275.241 277.652C275.241 278.395 275.752 278.766 276.774 278.766C277.295 278.766 277.95 278.648 278.737 278.414C278.64 277.659 278.47 277.021 278.229 276.5C277.91 275.797 277.471 275.445 276.911 275.445C276.182 275.445 275.664 275.947 275.358 276.949C275.28 277.197 275.241 277.431 275.241 277.652ZM285.944 278.805L286.599 280.943C286.846 281.751 287.465 282.154 288.454 282.154H288.728C288.858 282.154 288.923 282.405 288.923 282.906V283.141C288.923 283.714 288.858 284 288.728 284H288.562C287.67 284 287.093 283.827 286.833 283.482C286.54 286.777 284.261 288.707 279.997 289.273L279.587 287.613C283.278 287.112 285.121 285.507 285.114 282.799C285.114 281.764 284.825 280.628 284.245 279.391L285.944 278.805ZM288.571 284C288.063 284 287.81 283.714 287.81 283.141V282.955C287.81 282.421 288.063 282.154 288.571 282.154H289.157C291.371 282.154 294.027 281.354 297.126 279.752L297.849 279.381C297.679 279.335 296.976 279.062 295.739 278.561C294.463 278.046 293.594 277.789 293.132 277.789C292.396 277.789 291.791 278.095 291.315 278.707L291.042 279.059L289.538 278.316L289.694 278.043C290.541 276.656 291.69 275.96 293.142 275.953C293.968 275.953 294.958 276.233 296.11 276.793C298.142 277.783 299.714 278.3 300.827 278.346L300.808 280.104C300.059 280.169 298.679 280.732 296.667 281.793C293.874 283.264 291.332 284 289.04 284H288.571ZM317.976 283.023L318.005 269.664H319.743L319.733 281.08C319.733 281.992 319.704 282.874 319.646 283.727C319.372 287.34 317.429 289.146 313.815 289.146C310.052 289.146 308.171 287.298 308.171 283.6C308.171 282.942 308.236 282.291 308.366 281.646C308.509 280.969 308.715 280.302 308.981 279.645L310.573 280.279C310.137 281.386 309.919 282.503 309.919 283.629C309.919 286.109 311.221 287.35 313.825 287.35C316.586 287.35 317.969 285.908 317.976 283.023ZM327.409 282.096C327.259 279.882 326.628 278.775 325.515 278.775C324.825 278.775 324.346 279.166 324.079 279.947C323.962 280.299 323.903 280.631 323.903 280.943C323.903 281.751 324.479 282.151 325.632 282.145C326.498 282.138 327.09 282.122 327.409 282.096ZM329.099 282.154C329.099 282.154 329.414 282.154 330.046 282.154C330.176 282.154 330.241 282.451 330.241 283.043V283.141C330.241 283.714 330.176 284 330.046 284L329.04 283.99C328.552 286.992 326.325 288.753 322.36 289.273L321.95 287.604C325.114 287.135 326.924 285.93 327.38 283.99C326.963 284.01 326.442 284.02 325.817 284.02C323.441 284.02 322.253 283.043 322.253 281.09C322.253 280.302 322.422 279.557 322.761 278.854C323.373 277.571 324.33 276.93 325.632 276.93C327.644 276.93 328.799 278.671 329.099 282.154ZM337.429 281.52C338.138 281.943 339.353 282.154 341.071 282.154H341.296C341.426 282.154 341.491 282.421 341.491 282.955V283.141C341.491 283.355 341.485 283.518 341.472 283.629C341.452 283.759 341.429 283.854 341.403 283.912C341.371 283.971 341.335 284 341.296 284H341.071C338.903 284 337.224 283.538 336.032 282.613L336.013 282.604L335.993 282.613C334.919 283.538 332.972 284 330.153 284H329.919C329.411 284 329.157 283.714 329.157 283.141V282.955C329.157 282.421 329.411 282.154 329.919 282.154H330.183C332.416 282.154 333.851 281.943 334.489 281.52L334.528 281.49L334.489 281.461C332.451 280.309 331.433 279.199 331.433 278.131C331.433 277.454 331.947 276.884 332.976 276.422C333.685 276.103 334.704 275.94 336.032 275.934C336.468 275.934 336.875 275.953 337.253 275.992C337.624 276.025 337.966 276.077 338.278 276.148C338.591 276.214 338.871 276.298 339.118 276.402C340.088 276.812 340.573 277.372 340.573 278.082C340.573 279.026 339.525 280.156 337.429 281.471L337.38 281.49L337.429 281.52ZM338.679 278.336C338.679 277.932 337.78 277.73 335.983 277.73C334.187 277.73 333.285 277.939 333.278 278.355C333.278 278.505 333.379 278.684 333.581 278.893C333.783 279.101 334.086 279.345 334.489 279.625C334.776 279.827 335.043 280.003 335.29 280.152C335.57 280.322 335.795 280.449 335.964 280.533L335.983 280.543L335.993 280.533C336.507 280.26 336.986 279.954 337.429 279.615C337.852 279.29 338.164 279.023 338.366 278.814C338.575 278.606 338.679 278.447 338.679 278.336ZM345.642 277.74C345.251 278.124 345.056 278.505 345.056 278.883C345.056 279.28 345.264 279.719 345.681 280.201C346.156 280.755 346.521 281.031 346.774 281.031C347.022 281.031 347.386 280.755 347.868 280.201C348.285 279.719 348.493 279.283 348.493 278.893C348.493 278.417 348.197 277.942 347.604 277.467C347.272 277.193 346.976 277.057 346.716 277.057C346.455 277.057 346.097 277.285 345.642 277.74ZM346.735 282.74C345.603 283.58 343.881 284 341.569 284H341.169C340.661 284 340.407 283.714 340.407 283.141V282.955C340.407 282.421 340.661 282.154 341.169 282.154H341.569C343.236 282.148 344.346 282.04 344.899 281.832C343.864 280.966 343.347 279.947 343.347 278.775C343.347 277.636 343.991 276.62 345.28 275.729C345.736 275.41 346.234 275.25 346.774 275.25C347.302 275.25 347.761 275.367 348.151 275.602C349.525 276.435 350.212 277.532 350.212 278.893C350.212 279.993 349.688 280.973 348.64 281.832C349.245 282.047 350.124 282.154 351.276 282.154H351.589C351.719 282.154 351.784 282.421 351.784 282.955V283.141C351.784 283.714 351.719 284 351.589 284H351.296C349.375 284 347.855 283.58 346.735 282.74ZM345.3 271.988L346.726 270.562L348.151 271.998L346.735 273.414L345.3 271.988ZM357.673 282.428C358.584 282.428 359.04 281.982 359.04 281.09C359.04 280.667 358.975 280.302 358.845 279.996C358.532 279.286 358.011 278.932 357.282 278.932C356.384 278.932 355.697 279.605 355.222 280.953C356.075 281.936 356.892 282.428 357.673 282.428ZM354.372 282.604C353.571 283.535 352.66 284 351.638 284H351.433C350.931 284 350.681 283.714 350.681 283.141V282.955C350.681 282.421 350.931 282.154 351.433 282.154H351.589C352.123 282.154 352.644 281.852 353.151 281.246C353.373 280.973 353.62 280.53 353.894 279.918C354.746 278.023 355.863 277.076 357.243 277.076C358.317 277.076 359.164 277.464 359.782 278.238C360.401 279.007 360.71 279.908 360.71 280.943C360.71 281.979 360.492 282.753 360.056 283.268C359.515 283.899 358.767 284.215 357.81 284.215C356.547 284.215 355.401 283.678 354.372 282.604Z" fill="#FF9329"/>
    <path d="M542.37 302.896L543.796 301.471L545.222 302.906L543.806 304.322L542.37 302.896ZM550.192 308.453C550.186 309.332 549.971 310.221 549.548 311.119C548.578 313.137 546.634 314.146 543.718 314.146C539.779 314.146 537.81 312.298 537.81 308.6C537.81 307.265 538.138 305.803 538.796 304.215L540.388 304.85C539.841 306.23 539.567 307.473 539.567 308.58C539.567 311.093 540.974 312.35 543.786 312.35C546.892 312.35 548.444 310.901 548.444 308.004C548.444 306.806 548.148 305.602 547.556 304.391L549.245 303.805L549.958 305.992C550.212 306.767 550.84 307.154 551.843 307.154H552.028C552.159 307.154 552.224 307.405 552.224 307.906V308.141C552.224 308.714 552.159 309 552.028 309H551.882C551.14 309 550.576 308.818 550.192 308.453ZM554.909 312.193L556.335 310.768L557.761 312.203L556.345 313.619L554.909 312.193ZM551.735 312.193L553.151 310.768L554.587 312.203L553.161 313.619L551.735 312.193ZM559.226 308.141C559.226 308.714 559.16 309 559.03 309H558.933C557.644 309 556.755 308.541 556.267 307.623C555.622 308.541 554.496 309 552.888 309H551.872C551.371 309 551.12 308.714 551.12 308.141V307.955C551.12 307.421 551.371 307.154 551.872 307.154H552.839C554.343 307.154 555.176 306.741 555.339 305.914C555.378 305.686 555.397 305.416 555.397 305.104C555.397 304.908 555.388 304.664 555.368 304.371L555.319 303.58L556.921 303.385L557.077 305.445C557.168 306.585 557.793 307.154 558.952 307.154H559.03C559.16 307.154 559.226 307.451 559.226 308.043V308.141ZM570.183 309C569.024 309 568.22 308.541 567.771 307.623C567.119 308.541 566.192 309 564.987 309C563.594 309 562.702 308.541 562.312 307.623C561.791 308.541 560.739 309 559.157 309H558.903C558.396 309 558.142 308.714 558.142 308.141V307.955C558.142 307.421 558.396 307.154 558.903 307.154H559.177C560.733 307.154 561.517 306.536 561.53 305.299C561.53 304.934 561.521 304.625 561.501 304.371L561.442 303.785L563.054 303.59L563.21 305.65C563.288 306.653 563.887 307.154 565.007 307.154C566.25 307.154 566.879 306.575 566.892 305.416C566.892 305.064 566.885 304.785 566.872 304.576L566.813 303.785L568.425 303.59L568.581 305.65C568.659 306.646 569.177 307.145 570.134 307.145C571.117 307.145 571.602 306.5 571.589 305.211C571.589 304.918 571.573 304.605 571.54 304.273L571.491 303.678L573.103 303.385L573.259 305.045C573.389 306.451 573.991 307.154 575.065 307.154H575.241C575.371 307.154 575.437 307.421 575.437 307.955V308.141C575.437 308.714 575.371 309 575.241 309H575.085C573.783 309 572.972 308.535 572.653 307.604C572.185 308.535 571.361 309 570.183 309ZM575.827 309H575.085C574.577 309 574.323 308.714 574.323 308.141V307.955C574.323 307.421 574.577 307.154 575.085 307.154H575.827C576.843 307.154 577.536 307.05 577.907 306.842C578.461 306.516 578.737 305.917 578.737 305.045C578.737 304.27 578.617 303.408 578.376 302.457L580.007 302.057C580.326 303.072 580.485 304.059 580.485 305.016C580.485 306.5 580.056 307.564 579.196 308.209C578.487 308.736 577.364 309 575.827 309ZM576.472 314.557L577.868 313.17L579.255 314.557L577.858 315.953L576.472 314.557ZM578.073 311.939L579.479 310.553L580.866 311.93L579.47 313.326L578.073 311.939ZM574.909 311.939L576.296 310.553L577.692 311.93L576.286 313.326L574.909 311.939ZM588.288 305.035C588.288 303.141 590.01 301.666 593.454 300.611L593.366 300.162L594.958 299.84L595.759 305.572C595.909 306.627 596.514 307.154 597.575 307.154H597.771C597.901 307.154 597.966 307.405 597.966 307.906V308.141C597.966 308.714 597.901 309 597.771 309H597.536C595.752 309 594.701 308.261 594.382 306.783C593.601 307.467 592.692 307.809 591.657 307.809C590.205 307.809 589.193 307.333 588.62 306.383C588.399 306.012 588.288 305.562 588.288 305.035ZM593.659 302.242C591.237 303.115 590.026 304.007 590.026 304.918C590.026 305.712 590.55 306.109 591.599 306.109C592.165 306.109 592.699 305.956 593.2 305.65C593.825 305.266 594.073 304.648 593.942 303.795L593.737 302.496L593.688 302.223L593.659 302.242ZM604.968 308.141C604.968 308.714 604.903 309 604.772 309H604.675C603.386 309 602.497 308.541 602.009 307.623C601.364 308.541 600.238 309 598.63 309H597.614C597.113 309 596.862 308.714 596.862 308.141V307.955C596.862 307.421 597.113 307.154 597.614 307.154H598.581C600.085 307.154 600.918 306.741 601.081 305.914C601.12 305.686 601.14 305.416 601.14 305.104C601.14 304.908 601.13 304.664 601.11 304.371L601.062 303.58L602.663 303.385L602.819 305.445C602.91 306.585 603.535 307.154 604.694 307.154H604.772C604.903 307.154 604.968 307.451 604.968 308.043V308.141ZM600.778 299.801L602.204 298.375L603.63 299.811L602.214 301.227L600.778 299.801ZM597.604 299.801L599.021 298.375L600.456 299.811L599.03 301.227L597.604 299.801ZM615.925 309C614.766 309 613.962 308.541 613.513 307.623C612.862 308.541 611.934 309 610.729 309C609.336 309 608.444 308.541 608.054 307.623C607.533 308.541 606.481 309 604.899 309H604.646C604.138 309 603.884 308.714 603.884 308.141V307.955C603.884 307.421 604.138 307.154 604.646 307.154H604.919C606.475 307.154 607.259 306.536 607.272 305.299C607.272 304.934 607.263 304.625 607.243 304.371L607.185 303.785L608.796 303.59L608.952 305.65C609.03 306.653 609.629 307.154 610.749 307.154C611.993 307.154 612.621 306.575 612.634 305.416C612.634 305.064 612.627 304.785 612.614 304.576L612.556 303.785L614.167 303.59L614.323 305.65C614.401 306.646 614.919 307.145 615.876 307.145C616.859 307.145 617.344 306.5 617.331 305.211C617.331 304.918 617.315 304.605 617.282 304.273L617.233 303.678L618.845 303.385L619.001 305.045C619.131 306.451 619.733 307.154 620.808 307.154H620.983C621.114 307.154 621.179 307.421 621.179 307.955V308.141C621.179 308.714 621.114 309 620.983 309H620.827C619.525 309 618.715 308.535 618.396 307.604C617.927 308.535 617.103 309 615.925 309ZM621.569 309H620.827C620.319 309 620.065 308.714 620.065 308.141V307.955C620.065 307.421 620.319 307.154 620.827 307.154H621.569C622.585 307.154 623.278 307.05 623.649 306.842C624.203 306.516 624.479 305.917 624.479 305.045C624.479 304.27 624.359 303.408 624.118 302.457L625.749 302.057C626.068 303.072 626.228 304.059 626.228 305.016C626.228 306.5 625.798 307.564 624.938 308.209C624.229 308.736 623.106 309 621.569 309ZM622.087 312.193L623.513 310.768L624.938 312.203L623.522 313.619L622.087 312.193ZM628.815 294.664H630.563V308.99H628.815V294.664ZM638.229 306.988C638.086 304.846 637.455 303.775 636.335 303.775C635.645 303.775 635.166 304.166 634.899 304.947C634.782 305.299 634.724 305.631 634.724 305.943C634.724 306.816 635.365 307.249 636.647 307.242C637.188 307.236 637.715 307.151 638.229 306.988ZM636.638 309.02C634.261 309.02 633.073 308.043 633.073 306.09C633.073 305.302 633.243 304.557 633.581 303.854C634.193 302.571 635.15 301.93 636.452 301.93C637.787 301.93 638.737 302.675 639.304 304.166C639.74 305.312 639.955 306.5 639.948 307.73C639.922 311.507 637.663 313.688 633.171 314.273L632.761 312.613C635.905 312.171 637.725 310.924 638.22 308.873C637.445 308.971 636.918 309.02 636.638 309.02Z" fill="#3ABC40"/>
    <path d="M302.37 302.896L303.796 301.471L305.222 302.906L303.806 304.322L302.37 302.896ZM310.192 308.453C310.186 309.332 309.971 310.221 309.548 311.119C308.578 313.137 306.634 314.146 303.718 314.146C299.779 314.146 297.81 312.298 297.81 308.6C297.81 307.265 298.138 305.803 298.796 304.215L300.388 304.85C299.841 306.23 299.567 307.473 299.567 308.58C299.567 311.093 300.974 312.35 303.786 312.35C306.892 312.35 308.444 310.901 308.444 308.004C308.444 306.806 308.148 305.602 307.556 304.391L309.245 303.805L309.958 305.992C310.212 306.767 310.84 307.154 311.843 307.154H312.028C312.159 307.154 312.224 307.405 312.224 307.906V308.141C312.224 308.714 312.159 309 312.028 309H311.882C311.14 309 310.576 308.818 310.192 308.453ZM314.909 312.193L316.335 310.768L317.761 312.203L316.345 313.619L314.909 312.193ZM311.735 312.193L313.151 310.768L314.587 312.203L313.161 313.619L311.735 312.193ZM319.226 308.141C319.226 308.714 319.16 309 319.03 309H318.933C317.644 309 316.755 308.541 316.267 307.623C315.622 308.541 314.496 309 312.888 309H311.872C311.371 309 311.12 308.714 311.12 308.141V307.955C311.12 307.421 311.371 307.154 311.872 307.154H312.839C314.343 307.154 315.176 306.741 315.339 305.914C315.378 305.686 315.397 305.416 315.397 305.104C315.397 304.908 315.388 304.664 315.368 304.371L315.319 303.58L316.921 303.385L317.077 305.445C317.168 306.585 317.793 307.154 318.952 307.154H319.03C319.16 307.154 319.226 307.451 319.226 308.043V308.141ZM330.183 309C329.024 309 328.22 308.541 327.771 307.623C327.119 308.541 326.192 309 324.987 309C323.594 309 322.702 308.541 322.312 307.623C321.791 308.541 320.739 309 319.157 309H318.903C318.396 309 318.142 308.714 318.142 308.141V307.955C318.142 307.421 318.396 307.154 318.903 307.154H319.177C320.733 307.154 321.517 306.536 321.53 305.299C321.53 304.934 321.521 304.625 321.501 304.371L321.442 303.785L323.054 303.59L323.21 305.65C323.288 306.653 323.887 307.154 325.007 307.154C326.25 307.154 326.879 306.575 326.892 305.416C326.892 305.064 326.885 304.785 326.872 304.576L326.813 303.785L328.425 303.59L328.581 305.65C328.659 306.646 329.177 307.145 330.134 307.145C331.117 307.145 331.602 306.5 331.589 305.211C331.589 304.918 331.573 304.605 331.54 304.273L331.491 303.678L333.103 303.385L333.259 305.045C333.389 306.451 333.991 307.154 335.065 307.154H335.241C335.371 307.154 335.437 307.421 335.437 307.955V308.141C335.437 308.714 335.371 309 335.241 309H335.085C333.783 309 332.972 308.535 332.653 307.604C332.185 308.535 331.361 309 330.183 309ZM335.827 309H335.085C334.577 309 334.323 308.714 334.323 308.141V307.955C334.323 307.421 334.577 307.154 335.085 307.154H335.827C336.843 307.154 337.536 307.05 337.907 306.842C338.461 306.516 338.737 305.917 338.737 305.045C338.737 304.27 338.617 303.408 338.376 302.457L340.007 302.057C340.326 303.072 340.485 304.059 340.485 305.016C340.485 306.5 340.056 307.564 339.196 308.209C338.487 308.736 337.364 309 335.827 309ZM336.472 314.557L337.868 313.17L339.255 314.557L337.858 315.953L336.472 314.557ZM338.073 311.939L339.479 310.553L340.866 311.93L339.47 313.326L338.073 311.939ZM334.909 311.939L336.296 310.553L337.692 311.93L336.286 313.326L334.909 311.939ZM348.288 305.035C348.288 303.141 350.01 301.666 353.454 300.611L353.366 300.162L354.958 299.84L355.759 305.572C355.909 306.627 356.514 307.154 357.575 307.154H357.771C357.901 307.154 357.966 307.405 357.966 307.906V308.141C357.966 308.714 357.901 309 357.771 309H357.536C355.752 309 354.701 308.261 354.382 306.783C353.601 307.467 352.692 307.809 351.657 307.809C350.205 307.809 349.193 307.333 348.62 306.383C348.399 306.012 348.288 305.562 348.288 305.035ZM353.659 302.242C351.237 303.115 350.026 304.007 350.026 304.918C350.026 305.712 350.55 306.109 351.599 306.109C352.165 306.109 352.699 305.956 353.2 305.65C353.825 305.266 354.073 304.648 353.942 303.795L353.737 302.496L353.688 302.223L353.659 302.242ZM364.968 308.141C364.968 308.714 364.903 309 364.772 309H364.675C363.386 309 362.497 308.541 362.009 307.623C361.364 308.541 360.238 309 358.63 309H357.614C357.113 309 356.862 308.714 356.862 308.141V307.955C356.862 307.421 357.113 307.154 357.614 307.154H358.581C360.085 307.154 360.918 306.741 361.081 305.914C361.12 305.686 361.14 305.416 361.14 305.104C361.14 304.908 361.13 304.664 361.11 304.371L361.062 303.58L362.663 303.385L362.819 305.445C362.91 306.585 363.535 307.154 364.694 307.154H364.772C364.903 307.154 364.968 307.451 364.968 308.043V308.141ZM360.778 299.801L362.204 298.375L363.63 299.811L362.214 301.227L360.778 299.801ZM357.604 299.801L359.021 298.375L360.456 299.811L359.03 301.227L357.604 299.801ZM375.925 309C374.766 309 373.962 308.541 373.513 307.623C372.862 308.541 371.934 309 370.729 309C369.336 309 368.444 308.541 368.054 307.623C367.533 308.541 366.481 309 364.899 309H364.646C364.138 309 363.884 308.714 363.884 308.141V307.955C363.884 307.421 364.138 307.154 364.646 307.154H364.919C366.475 307.154 367.259 306.536 367.272 305.299C367.272 304.934 367.263 304.625 367.243 304.371L367.185 303.785L368.796 303.59L368.952 305.65C369.03 306.653 369.629 307.154 370.749 307.154C371.993 307.154 372.621 306.575 372.634 305.416C372.634 305.064 372.627 304.785 372.614 304.576L372.556 303.785L374.167 303.59L374.323 305.65C374.401 306.646 374.919 307.145 375.876 307.145C376.859 307.145 377.344 306.5 377.331 305.211C377.331 304.918 377.315 304.605 377.282 304.273L377.233 303.678L378.845 303.385L379.001 305.045C379.131 306.451 379.733 307.154 380.808 307.154H380.983C381.114 307.154 381.179 307.421 381.179 307.955V308.141C381.179 308.714 381.114 309 380.983 309H380.827C379.525 309 378.715 308.535 378.396 307.604C377.927 308.535 377.103 309 375.925 309ZM381.569 309H380.827C380.319 309 380.065 308.714 380.065 308.141V307.955C380.065 307.421 380.319 307.154 380.827 307.154H381.569C382.585 307.154 383.278 307.05 383.649 306.842C384.203 306.516 384.479 305.917 384.479 305.045C384.479 304.27 384.359 303.408 384.118 302.457L385.749 302.057C386.068 303.072 386.228 304.059 386.228 305.016C386.228 306.5 385.798 307.564 384.938 308.209C384.229 308.736 383.106 309 381.569 309ZM382.087 312.193L383.513 310.768L384.938 312.203L383.522 313.619L382.087 312.193ZM388.815 294.664H390.563V308.99H388.815V294.664ZM398.229 306.988C398.086 304.846 397.455 303.775 396.335 303.775C395.645 303.775 395.166 304.166 394.899 304.947C394.782 305.299 394.724 305.631 394.724 305.943C394.724 306.816 395.365 307.249 396.647 307.242C397.188 307.236 397.715 307.151 398.229 306.988ZM396.638 309.02C394.261 309.02 393.073 308.043 393.073 306.09C393.073 305.302 393.243 304.557 393.581 303.854C394.193 302.571 395.15 301.93 396.452 301.93C397.787 301.93 398.737 302.675 399.304 304.166C399.74 305.312 399.955 306.5 399.948 307.73C399.922 311.507 397.663 313.688 393.171 314.273L392.761 312.613C395.905 312.171 397.725 310.924 398.22 308.873C397.445 308.971 396.918 309.02 396.638 309.02Z" fill="#3ABC40"/>
    <path d="M34.3193 307.154C34.4561 307.154 34.5244 307.421 34.5244 307.955V308.141C34.5244 308.714 34.4561 309 34.3193 309H32.9326H32.6885C33.0661 309.286 33.2516 309.658 33.2451 310.113C33.2451 310.374 33.1833 310.667 33.0596 310.992C32.8057 311.643 32.2848 312.223 31.4971 312.73C30.0387 313.661 28.2907 314.127 26.2529 314.127C22.3337 314.127 20.3805 312.428 20.3936 309.029C20.3936 307.604 20.7223 306.184 21.3799 304.771L22.9717 305.406C22.4183 306.806 22.1416 307.997 22.1416 308.98C22.1416 311.207 23.5641 312.327 26.4092 312.34C27.7048 312.34 28.818 312.132 29.749 311.715C30.4977 311.376 31.0316 310.966 31.3506 310.484C31.5003 310.257 31.5752 310.038 31.5752 309.83C31.5752 309.27 31.1455 308.99 30.2861 308.99H28.9873C28.6097 308.951 28.3525 308.645 28.2158 308.072C28.1507 307.799 28.1182 307.584 28.1182 307.428C28.1182 307.271 28.154 307.18 28.2256 307.154H34.3193ZM41.2236 297.389L42.6104 295.992L44.0068 297.398L42.6201 298.785L41.2236 297.389ZM42.8252 300.006L44.2217 298.619L45.6182 300.016L44.2314 301.402L42.8252 300.006ZM39.6611 300.006L41.0381 298.619L42.4443 300.016L41.0479 301.402L39.6611 300.006ZM45.4521 308.99C44.2477 308.99 43.4535 308.535 43.0693 307.623C42.4118 308.541 41.484 309 40.2861 309C38.8929 308.993 38.001 308.535 37.6104 307.623C37.0895 308.541 36.0381 309 34.4561 309H34.2021C33.6943 309 33.4404 308.714 33.4404 308.141V307.955C33.4404 307.421 33.6943 307.154 34.2021 307.154H34.4756C36.0316 307.154 36.8161 306.536 36.8291 305.299C36.8291 304.934 36.8193 304.625 36.7998 304.371L36.7412 303.785L38.3525 303.59L38.5088 305.65C38.5869 306.653 39.1859 307.154 40.3057 307.154C41.5492 307.154 42.1774 306.575 42.1904 305.416C42.1904 305.064 42.1839 304.785 42.1709 304.576L42.1123 303.785L43.7236 303.59L43.8799 305.65C43.958 306.646 44.4691 307.145 45.4131 307.145C46.3571 307.145 46.8291 306.529 46.8291 305.299C46.8291 304.628 46.6859 303.798 46.3994 302.809L48.1084 302.359C48.4274 303.368 48.5869 304.326 48.5869 305.23C48.5869 305.25 48.5869 305.27 48.5869 305.289C48.5804 306.637 48.1833 307.656 47.3955 308.346C46.9072 308.775 46.2594 308.99 45.4521 308.99ZM54.1533 303.805C54.7653 305.198 55.0713 306.493 55.0713 307.691C55.0713 311.467 52.7796 313.661 48.1963 314.273L47.7861 312.613C51.471 312.112 53.3135 310.51 53.3135 307.809C53.3135 306.76 53.027 305.621 52.4541 304.391L54.1533 303.805ZM61.8584 308.141C61.8649 308.714 61.7998 309 61.6631 309H61.458C58.8929 309 57.6104 307.574 57.6104 304.723V294.664H59.3682V304.703C59.3682 306.337 60.0745 307.154 61.4873 307.154H61.6631C61.7933 307.154 61.8584 307.421 61.8584 307.955V308.141ZM70.7256 293.15L62.874 296.354V295.104L70.7256 291.891V293.15ZM69.0166 304.752C69.5895 306.354 70.527 307.154 71.8291 307.154H71.9854C72.1156 307.154 72.1807 307.421 72.1807 307.955V308.141C72.1807 308.714 72.1156 309 71.9854 309H71.8291C70.4814 309 69.3779 308.424 68.5186 307.271C67.7764 308.424 65.9437 309 63.0205 309H61.5264C61.0186 309 60.7646 308.714 60.7646 308.141V307.955C60.7646 307.421 61.0186 307.154 61.5264 307.154H63.0107C65.8298 307.154 67.2425 306.549 67.249 305.338C67.249 304.7 66.9105 304.065 66.2334 303.434C65.1982 302.47 64.3096 301.699 63.5674 301.119C62.8252 300.54 62.4541 299.898 62.4541 299.195C62.4541 298.785 62.5745 298.421 62.8154 298.102C63.0628 297.783 63.3981 297.538 63.8213 297.369L70.7842 294.605V296.51L64.0654 299.137L64.0264 299.146C65.7256 300.572 66.9691 301.708 67.7568 302.555C68.2777 303.121 68.6976 303.854 69.0166 304.752ZM72.6006 309H71.8584C71.3506 309 71.0967 308.714 71.0967 308.141V307.955C71.0967 307.421 71.3506 307.154 71.8584 307.154H72.6006C73.6162 307.154 74.3096 307.05 74.6807 306.842C75.234 306.516 75.5107 305.917 75.5107 305.045C75.5107 304.27 75.3903 303.408 75.1494 302.457L76.7803 302.057C77.0993 303.072 77.2588 304.059 77.2588 305.016C77.2588 306.5 76.8291 307.564 75.9697 308.209C75.2601 308.736 74.137 309 72.6006 309ZM73.6748 298.98L75.1006 297.555L76.5264 298.99L75.1104 300.406L73.6748 298.98ZM91.9756 307.408C92.8089 307.415 93.2158 306.962 93.1963 306.051C93.1898 305.673 93.1117 305.315 92.9619 304.977C92.6559 304.28 92.1481 303.928 91.4385 303.922C90.5531 303.909 89.8662 304.583 89.3779 305.943C90.4977 306.92 91.3636 307.408 91.9756 307.408ZM96.5361 307.154C96.6663 307.154 96.7314 307.421 96.7314 307.955V308.141C96.7314 308.714 96.6663 309 96.5361 309H96.3799C95.5856 309 94.9541 308.635 94.4854 307.906C93.984 308.733 93.2158 309.173 92.1807 309.225C92.1481 309.225 92.1156 309.225 92.083 309.225C91.5947 309.225 90.9958 309.059 90.2861 308.727C90.0322 308.609 89.5895 308.359 88.958 307.975C88.5804 307.747 88.2223 307.639 87.8838 307.652C86.9137 307.678 86.432 309.326 86.4385 312.594C86.4385 313.87 86.484 315.032 86.5752 316.08H84.7783C84.7067 314.973 84.6709 313.798 84.6709 312.555C84.6709 310.165 84.9281 308.463 85.4424 307.447C85.9632 306.425 86.6631 305.846 87.542 305.709C88.4925 303.294 89.7881 302.083 91.4287 302.076C92.4704 302.076 93.3037 302.464 93.9287 303.238C94.3258 303.733 94.6188 304.43 94.8076 305.328C95.068 306.546 95.5921 307.154 96.3799 307.154H96.5361ZM97.1318 309H96.3896C95.8818 309 95.6279 308.714 95.6279 308.141V307.955C95.6279 307.421 95.8818 307.154 96.3896 307.154H97.1318C98.1475 307.154 98.8408 307.05 99.2119 306.842C99.7653 306.516 100.042 305.917 100.042 305.045C100.042 304.27 99.9215 303.408 99.6807 302.457L101.312 302.057C101.631 303.072 101.79 304.059 101.79 305.016C101.79 306.5 101.36 307.564 100.501 308.209C99.7913 308.736 98.6683 309 97.1318 309ZM99.417 312.193L100.843 310.768L102.269 312.203L100.853 313.619L99.417 312.193ZM96.2432 312.193L97.6592 310.768L99.0947 312.203L97.6689 313.619L96.2432 312.193ZM109.593 306.773C111.051 306.298 111.78 304.957 111.78 302.75V294.664H113.528V303.639C113.528 305.982 114.28 307.154 115.784 307.154H116.028C116.159 307.154 116.224 307.421 116.224 307.955V308.141C116.224 308.714 116.159 309 116.028 309H115.647C113.935 309 112.868 308.264 112.444 306.793C111.39 308.245 109.57 308.971 106.985 308.971C106.087 308.971 105.361 308.919 104.808 308.814V307.008C105.869 307.145 106.914 307.18 107.942 307.115C106.868 303.411 105.55 299.762 103.987 296.168L105.657 295.25C107.259 299.124 108.571 302.965 109.593 306.773ZM124.388 303.297C123.574 302.626 122.773 302.291 121.985 302.291C121.569 302.285 121.194 302.343 120.862 302.467C120.53 302.584 120.244 302.76 120.003 302.994C119.775 303.222 119.603 303.476 119.485 303.756C119.368 304.036 119.31 304.345 119.31 304.684C119.31 305.543 119.817 306.214 120.833 306.695C120.976 306.767 121.061 306.799 121.087 306.793L125.345 305.758V307.555C122.246 308.518 119.394 309 116.79 309H115.892C115.384 309 115.13 308.714 115.13 308.141V307.955C115.13 307.421 115.384 307.154 115.892 307.154H118.558H118.626L118.587 307.105C118.541 307.053 118.499 307.005 118.46 306.959C118.421 306.913 118.382 306.868 118.343 306.822C118.31 306.777 118.278 306.731 118.245 306.686C118.213 306.633 118.18 306.585 118.147 306.539C117.783 305.973 117.604 305.322 117.61 304.586C117.617 303.518 117.907 302.623 118.479 301.9C118.785 301.516 119.17 301.201 119.632 300.953C120.231 300.628 120.934 300.468 121.741 300.475C123.076 300.481 124.176 300.934 125.042 301.832L124.388 303.297Z" fill="#DF6FFD"/>
</svg>
